<svg width="60" height="60" viewBox="0 0 60 60" fill="none" xmlns="http://www.w3.org/2000/svg">
<path fill-rule="evenodd" clip-rule="evenodd" d="M30 60C46.5685 60 60 46.5685 60 30C60 13.4315 46.5685 0 30 0C13.4315 0 0 13.4315 0 30C0 46.5685 13.4315 60 30 60ZM22 43C21.4477 43 21 42.5523 21 42C21 41.4477 21.4477 41 22 41H39.5858L17.2929 18.7071C16.9024 18.3166 16.9024 17.6834 17.2929 17.2929C17.6834 16.9024 18.3166 16.9024 18.7071 17.2929L41 39.5858V22C41 21.4477 41.4477 21 42 21C42.5523 21 43 21.4477 43 22V42C43 42.5523 42.5523 43 42 43H22Z" fill="white"/>
</svg>
