<svg width="205" height="201" viewBox="0 0 205 201" fill="none" xmlns="http://www.w3.org/2000/svg">
<path fill-rule="evenodd" clip-rule="evenodd" d="M201.942 197.68C202.002 197.271 202.05 196.696 202.05 195.91C202.05 192.469 201.161 186.836 199.425 179.424C197.706 172.08 195.206 163.194 192.099 153.343C185.886 133.643 177.279 110.195 167.724 87.6927C158.16 65.1715 147.69 43.6991 137.766 27.9018C132.797 19.9922 128.035 13.6201 123.668 9.26085C119.179 4.78033 115.627 2.95342 113.07 2.95342C84.2898 2.95342 60.9592 26.3139 60.9592 55.1304C60.9592 83.947 84.2898 107.307 113.07 107.307C117.747 107.307 122.632 109.508 127.405 112.745C132.236 116.022 137.294 120.599 142.384 125.873C152.564 136.423 163.203 150.116 172.785 162.714C174.11 164.456 175.413 166.175 176.691 167.861L176.699 167.871L176.699 167.871L176.7 167.872C184.743 178.479 191.791 187.776 197.054 193.342C198.565 194.94 199.856 196.151 200.921 196.972C201.315 197.275 201.655 197.507 201.942 197.68ZM174.339 169.644C191.663 192.494 205 210.086 205 195.91C205 179.137 186.331 121.394 164.478 72.908C166.296 67.5602 167.318 61.8394 167.4 55.8851C167.818 25.5021 143.609 0.521319 113.289 0.0028603C113.23 0.00132177 113.171 0.000403009 113.112 0.000106201L113.111 0.000104664L113.07 0C82.6608 0 58.0096 24.6827 58.0096 55.1304C58.0096 85.5781 82.6608 110.261 113.07 110.261C129.32 110.261 154.456 143.416 174.339 169.644ZM103.237 61.0373C107.994 61.0373 111.962 57.6551 112.873 53.1615C113.002 53.7977 113.07 54.4561 113.07 55.1304C113.07 60.5675 108.668 64.9752 103.237 64.9752C97.8073 64.9752 93.4053 60.5675 93.4053 55.1304C93.4053 54.4561 93.473 53.7977 93.602 53.1615C94.5129 57.6551 98.4807 61.0373 103.237 61.0373ZM39.7455 163.507V160.14H35.0873V158.204C35.0873 157.249 35.3031 156.52 35.7346 156.015C36.1756 155.509 36.9074 155.257 37.9301 155.257C38.371 155.257 38.7463 155.299 39.0559 155.383C39.3655 155.458 39.6188 155.523 39.8159 155.58L40.801 152.184C40.5101 152.072 40.0645 151.95 39.464 151.819C38.8636 151.679 38.1412 151.609 37.2968 151.609C36.1521 151.609 35.092 151.833 34.1162 152.282C33.1405 152.722 32.3571 153.391 31.766 154.289C31.1749 155.177 30.8794 156.295 30.8794 157.642V160.14H27.53V163.507H30.8794V181.692H35.0873V163.507H39.7455ZM47.2575 160.14V181.692H51.4654V160.14H47.2575ZM47.4967 156.085C48.0221 156.571 48.6507 156.814 49.3825 156.814C50.1143 156.814 50.7382 156.571 51.2543 156.085C51.7797 155.589 52.0424 155 52.0424 154.317C52.0424 153.625 51.7797 153.035 51.2543 152.549C50.7382 152.053 50.1143 151.805 49.3825 151.805C48.6507 151.805 48.0221 152.053 47.4967 152.549C46.9807 153.035 46.7227 153.625 46.7227 154.317C46.7227 155 46.9807 155.589 47.4967 156.085ZM64.5046 168.896V181.692H60.2967V160.14H64.3357V163.648H64.6031C65.1003 162.507 65.8791 161.59 66.9392 160.898C68.0088 160.205 69.3551 159.859 70.9782 159.859C72.4512 159.859 73.7413 160.168 74.8484 160.785C75.9555 161.393 76.8139 162.301 77.4238 163.507C78.0336 164.714 78.3385 166.206 78.3385 167.984V181.692H74.1306V168.489C74.1306 166.926 73.7225 165.706 72.9063 164.826C72.09 163.938 70.9689 163.493 69.5428 163.493C68.567 163.493 67.6992 163.704 66.9392 164.125C66.1887 164.546 65.5929 165.163 65.1519 165.977C64.7204 166.781 64.5046 167.754 64.5046 168.896ZM90.5721 180.78C91.9418 181.669 93.4993 182.113 95.2444 182.113C96.5578 182.113 97.6274 181.893 98.453 181.454C99.2787 181.014 99.926 180.5 100.395 179.91C100.874 179.321 101.24 178.797 101.493 178.339H101.845V181.692H105.954V152.956H101.746V163.634H101.493C101.24 163.185 100.883 162.666 100.423 162.076C99.9729 161.487 99.335 160.972 98.5093 160.533C97.6931 160.084 96.6141 159.859 95.2725 159.859C93.5368 159.859 91.9841 160.299 90.6143 161.178C89.2445 162.058 88.1655 163.325 87.3774 164.981C86.5987 166.637 86.2094 168.629 86.2094 170.958C86.2094 173.287 86.594 175.285 87.3634 176.95C88.1421 178.605 89.2116 179.882 90.5721 180.78ZM99.2411 177.581C98.4061 178.217 97.3835 178.535 96.1732 178.535C94.9254 178.535 93.8746 178.203 93.0208 177.539C92.1764 176.865 91.5384 175.953 91.1068 174.803C90.6753 173.652 90.4595 172.357 90.4595 170.916C90.4595 169.494 90.6706 168.217 91.0928 167.086C91.5243 165.954 92.1623 165.06 93.0067 164.405C93.8511 163.751 94.9066 163.423 96.1732 163.423C97.4022 163.423 98.4343 163.737 99.2693 164.363C100.104 164.99 100.738 165.865 101.169 166.987C101.601 168.11 101.817 169.419 101.817 170.916C101.817 172.432 101.596 173.76 101.155 174.901C100.724 176.042 100.086 176.936 99.2411 177.581ZM131.328 165.402L127.515 166.075C127.355 165.589 127.102 165.126 126.755 164.686C126.417 164.246 125.957 163.886 125.375 163.606C124.794 163.325 124.067 163.185 123.194 163.185C122.003 163.185 121.008 163.451 120.211 163.985C119.413 164.508 119.014 165.187 119.014 166.019C119.014 166.739 119.282 167.319 119.817 167.759C120.351 168.199 121.214 168.559 122.406 168.839L125.84 169.625C127.829 170.084 129.311 170.79 130.287 171.744C131.263 172.698 131.751 173.938 131.751 175.462C131.751 176.753 131.375 177.904 130.625 178.914C129.884 179.915 128.847 180.701 127.515 181.271C126.192 181.842 124.658 182.127 122.913 182.127C120.492 182.127 118.517 181.613 116.988 180.584C115.459 179.546 114.52 178.072 114.173 176.164L118.24 175.547C118.494 176.604 119.014 177.403 119.802 177.946C120.591 178.479 121.618 178.746 122.884 178.746C124.264 178.746 125.366 178.46 126.192 177.89C127.017 177.31 127.43 176.604 127.43 175.771C127.43 175.098 127.177 174.532 126.67 174.073C126.173 173.615 125.408 173.269 124.376 173.035L120.717 172.235C118.7 171.777 117.208 171.047 116.242 170.046C115.285 169.045 114.806 167.778 114.806 166.244C114.806 164.971 115.163 163.858 115.876 162.904C116.589 161.95 117.574 161.206 118.831 160.673C120.089 160.131 121.529 159.859 123.152 159.859C125.488 159.859 127.327 160.364 128.669 161.375C130.01 162.376 130.897 163.718 131.328 165.402ZM8.97751 138.796C7.24353 138.796 5.69601 138.347 4.33493 137.447C2.98318 136.538 1.92042 135.245 1.14666 133.569C0.38222 131.883 0 129.861 0 127.503C0 125.144 0.386881 123.127 1.16064 121.451C1.94373 119.775 3.01581 118.491 4.37688 117.601C5.73796 116.711 7.28082 116.266 9.00547 116.266C10.3386 116.266 11.4107 116.493 12.2217 116.948C13.0421 117.393 13.676 117.914 14.1235 118.51C14.5803 119.107 14.9345 119.633 15.1863 120.087H15.438V109.276H19.6191V138.37H15.5358V134.975H15.1863C14.9345 135.439 14.571 135.969 14.0955 136.566C13.6294 137.163 12.9862 137.684 12.1658 138.129C11.3454 138.574 10.2826 138.796 8.97751 138.796ZM9.90043 135.174C11.103 135.174 12.1192 134.852 12.9489 134.208C13.7879 133.554 14.4218 132.65 14.8506 131.495C15.2888 130.339 15.5079 128.994 15.5079 127.46C15.5079 125.945 15.2935 124.619 14.8646 123.482C14.4358 122.346 13.8065 121.46 12.9768 120.826C12.1471 120.191 11.1217 119.874 9.90043 119.874C8.6419 119.874 7.59312 120.206 6.75411 120.868C5.91509 121.531 5.28116 122.436 4.85233 123.582C4.43282 124.728 4.22306 126.02 4.22306 127.46C4.22306 128.919 4.43748 130.23 4.86631 131.395C5.29514 132.56 5.92907 133.483 6.76809 134.165C7.61643 134.838 8.66054 135.174 9.90043 135.174ZM37.994 138.811C35.8778 138.811 34.0553 138.351 32.5264 137.433C31.0068 136.504 29.8322 135.202 29.0025 133.526C28.1821 131.84 27.772 129.866 27.772 127.602C27.772 125.367 28.1821 123.397 29.0025 121.692C29.8322 119.988 30.9882 118.657 32.4705 117.701C33.9621 116.744 35.7054 116.266 37.7004 116.266C38.9123 116.266 40.0869 116.469 41.2242 116.877C42.3616 117.284 43.3824 117.923 44.2867 118.794C45.1909 119.666 45.9041 120.797 46.4262 122.19C46.9482 123.572 47.2092 125.253 47.2092 127.233V128.739H31.9427C31.975 130.069 32.2255 131.21 32.6942 132.162C33.2069 133.185 33.9201 133.966 34.8337 134.506C35.7473 135.037 36.8147 135.302 38.036 135.302C38.8284 135.302 39.5509 135.188 40.2034 134.961C40.856 134.724 41.42 134.374 41.8955 133.91C42.3709 133.445 42.7345 132.872 42.9862 132.191L46.9436 132.915C46.6266 134.099 46.0579 135.136 45.2375 136.026C44.4265 136.907 43.4057 137.594 42.1751 138.086C40.9539 138.569 39.5602 138.811 37.994 138.811ZM32.6383 122.928C32.2294 123.742 31.9999 124.618 31.9496 125.556H43.112C43.112 124.439 42.8883 123.449 42.4408 122.587C41.9933 121.716 41.3641 121.029 40.553 120.528C39.7513 120.026 38.8097 119.775 37.7283 119.775C36.5537 119.775 35.5282 120.068 34.6519 120.655C33.7849 121.233 33.1137 121.991 32.6383 122.928ZM60.4941 138.37H64.9689L72.7578 116.55H68.269L62.8434 133.341H62.6196L57.18 116.55H52.6912L60.4941 138.37Z" fill="white"/>
</svg>
