<svg width="28" height="28" viewBox="0 0 28 28" fill="none" xmlns="http://www.w3.org/2000/svg">
<rect width="28" height="28" rx="4" fill="#A0BFFF" fill-opacity="0.25" style="fill:#A0BFFF;fill:color(display-p3 0.6292 0.7507 1.0000);fill-opacity:0.25;"/>
<path fill-rule="evenodd" clip-rule="evenodd" d="M14.6364 9.5C14.6364 9.22386 14.4125 9 14.1364 9H7.5C6.67157 9 6 9.67157 6 10.5V20.5C6 21.3284 6.67157 22 7.5 22H17.5C18.3284 22 19 21.3284 19 20.5V13.8636C19 13.5875 18.7761 13.3636 18.5 13.3636C18.2239 13.3636 18 13.5875 18 13.8636V20.5C18 20.7761 17.7761 21 17.5 21H7.5C7.22386 21 7 20.7761 7 20.5V10.5C7 10.2239 7.22386 10 7.5 10H14.1364C14.4125 10 14.6364 9.77614 14.6364 9.5Z" fill="#276EFF" style="fill:#276EFF;fill:color(display-p3 0.1542 0.4314 1.0000);fill-opacity:1;"/>
<path fill-rule="evenodd" clip-rule="evenodd" d="M22 6.5C22 6.22386 21.7761 6 21.5 6H16.5C16.2239 6 16 6.22386 16 6.5C16 6.77614 16.2239 7 16.5 7H20.2929L12.1464 15.1464C11.9512 15.3417 11.9512 15.6583 12.1464 15.8536C12.3417 16.0488 12.6583 16.0488 12.8536 15.8536L21 7.70711V11.5C21 11.7761 21.2239 12 21.5 12C21.7761 12 22 11.7761 22 11.5V6.5Z" fill="#276EFF" style="fill:#276EFF;fill:color(display-p3 0.1542 0.4314 1.0000);fill-opacity:1;"/>
<path d="M20.2929 7L20.5757 7.28284C20.6901 7.16844 20.7244 6.9964 20.6624 6.84693C20.6005 6.69746 20.4547 6.6 20.2929 6.6V7ZM12.1464 15.1464L11.8636 14.8636L11.8636 14.8636L12.1464 15.1464ZM12.1464 15.8536L11.8636 16.1364L11.8636 16.1364L12.1464 15.8536ZM12.8536 15.8536L13.1364 16.1364L13.1364 16.1364L12.8536 15.8536ZM21 7.70711H21.4C21.4 7.54532 21.3025 7.39947 21.1531 7.33756C21.0036 7.27564 20.8316 7.30986 20.7172 7.42426L21 7.70711ZM14.1364 9.4C14.1916 9.4 14.2364 9.44477 14.2364 9.5H15.0364C15.0364 9.00294 14.6334 8.6 14.1364 8.6V9.4ZM7.5 9.4H14.1364V8.6H7.5V9.4ZM6.4 10.5C6.4 9.89249 6.89249 9.4 7.5 9.4V8.6C6.45066 8.6 5.6 9.45066 5.6 10.5H6.4ZM6.4 20.5V10.5H5.6V20.5H6.4ZM7.5 21.6C6.89249 21.6 6.4 21.1075 6.4 20.5H5.6C5.6 21.5493 6.45066 22.4 7.5 22.4V21.6ZM17.5 21.6H7.5V22.4H17.5V21.6ZM18.6 20.5C18.6 21.1075 18.1075 21.6 17.5 21.6V22.4C18.5493 22.4 19.4 21.5493 19.4 20.5H18.6ZM18.6 13.8636V20.5H19.4V13.8636H18.6ZM18.5 13.7636C18.5552 13.7636 18.6 13.8084 18.6 13.8636H19.4C19.4 13.3666 18.9971 12.9636 18.5 12.9636V13.7636ZM18.4 13.8636C18.4 13.8084 18.4448 13.7636 18.5 13.7636V12.9636C18.0029 12.9636 17.6 13.3666 17.6 13.8636H18.4ZM18.4 20.5V13.8636H17.6V20.5H18.4ZM17.5 21.4C17.9971 21.4 18.4 20.9971 18.4 20.5H17.6C17.6 20.5552 17.5552 20.6 17.5 20.6V21.4ZM7.5 21.4H17.5V20.6H7.5V21.4ZM6.6 20.5C6.6 20.9971 7.00294 21.4 7.5 21.4V20.6C7.44477 20.6 7.4 20.5552 7.4 20.5H6.6ZM6.6 10.5V20.5H7.4V10.5H6.6ZM7.5 9.6C7.00294 9.6 6.6 10.0029 6.6 10.5H7.4C7.4 10.4448 7.44477 10.4 7.5 10.4V9.6ZM14.1364 9.6H7.5V10.4H14.1364V9.6ZM14.2364 9.5C14.2364 9.55523 14.1916 9.6 14.1364 9.6V10.4C14.6334 10.4 15.0364 9.99706 15.0364 9.5H14.2364ZM21.5 6.4C21.5552 6.4 21.6 6.44477 21.6 6.5H22.4C22.4 6.00294 21.9971 5.6 21.5 5.6V6.4ZM16.5 6.4H21.5V5.6H16.5V6.4ZM16.4 6.5C16.4 6.44477 16.4448 6.4 16.5 6.4V5.6C16.0029 5.6 15.6 6.00294 15.6 6.5H16.4ZM16.5 6.6C16.4448 6.6 16.4 6.55523 16.4 6.5H15.6C15.6 6.99706 16.0029 7.4 16.5 7.4V6.6ZM20.2929 6.6H16.5V7.4H20.2929V6.6ZM12.4293 15.4293L20.5757 7.28284L20.0101 6.71716L11.8636 14.8636L12.4293 15.4293ZM12.4293 15.5707C12.3902 15.5317 12.3902 15.4683 12.4293 15.4293L11.8636 14.8636C11.5121 15.2151 11.5121 15.7849 11.8636 16.1364L12.4293 15.5707ZM12.5707 15.5707C12.5317 15.6098 12.4683 15.6098 12.4293 15.5707L11.8636 16.1364C12.2151 16.4879 12.7849 16.4879 13.1364 16.1364L12.5707 15.5707ZM20.7172 7.42426L12.5707 15.5707L13.1364 16.1364L21.2828 7.98995L20.7172 7.42426ZM21.4 11.5V7.70711H20.6V11.5H21.4ZM21.5 11.6C21.4448 11.6 21.4 11.5552 21.4 11.5H20.6C20.6 11.9971 21.0029 12.4 21.5 12.4V11.6ZM21.6 11.5C21.6 11.5552 21.5552 11.6 21.5 11.6V12.4C21.9971 12.4 22.4 11.9971 22.4 11.5H21.6ZM21.6 6.5V11.5H22.4V6.5H21.6Z" fill="#276EFF" style="fill:#276EFF;fill:color(display-p3 0.1542 0.4314 1.0000);fill-opacity:1;"/>
</svg>
