<svg width="36" height="37" viewBox="0 0 36 37" fill="none" xmlns="http://www.w3.org/2000/svg">
<path d="M0 9.5C0 7.01472 2.01472 5 4.5 5H31.5C33.9853 5 36 7.01472 36 9.5V27.5C36 29.9853 33.9853 32 31.5 32H4.5C2.01472 32 0 29.9853 0 27.5V9.5ZM4.5 7.25C3.25736 7.25 2.25 8.25736 2.25 9.5V9.98804L18 19.438L33.75 9.98804V9.5C33.75 8.25736 32.7426 7.25 31.5 7.25H4.5ZM33.75 12.612L23.1568 18.9679L33.75 25.4867V12.612ZM33.674 28.0819L20.9831 20.2721L18 22.062L15.0169 20.2721L2.32597 28.0819C2.58242 29.0425 3.45859 29.75 4.5 29.75H31.5C32.5414 29.75 33.4176 29.0425 33.674 28.0819ZM2.25 25.4867L12.8432 18.9679L2.25 12.612V25.4867Z" fill="#2C2D2E"/>
<path d="M0 9.5C0 7.01472 2.01472 5 4.5 5H31.5C33.9853 5 36 7.01472 36 9.5V27.5C36 29.9853 33.9853 32 31.5 32H4.5C2.01472 32 0 29.9853 0 27.5V9.5ZM4.5 7.25C3.25736 7.25 2.25 8.25736 2.25 9.5V9.98804L18 19.438L33.75 9.98804V9.5C33.75 8.25736 32.7426 7.25 31.5 7.25H4.5ZM33.75 12.612L23.1568 18.9679L33.75 25.4867V12.612ZM33.674 28.0819L20.9831 20.2721L18 22.062L15.0169 20.2721L2.32597 28.0819C2.58242 29.0425 3.45859 29.75 4.5 29.75H31.5C32.5414 29.75 33.4176 29.0425 33.674 28.0819ZM2.25 25.4867L12.8432 18.9679L2.25 12.612V25.4867Z" fill="black" fill-opacity="0.2"/>
</svg>
