<svg width="36" height="36" viewBox="0 0 36 36" fill="none" xmlns="http://www.w3.org/2000/svg">
<rect width="36" height="36" rx="8" fill="#5865F2"/>
<path d="M25.7977 11.1727C24.3387 10.5031 22.7992 10.0252 21.2176 9.75098C21.2033 9.74856 21.1885 9.75065 21.1754 9.75694C21.1623 9.76324 21.1515 9.77344 21.1445 9.78613C20.9462 10.1377 20.7268 10.5975 20.5735 10.9575C18.8686 10.6988 17.1344 10.6988 15.4295 10.9575C15.2585 10.5565 15.0651 10.1654 14.8502 9.78613C14.8429 9.77357 14.8321 9.7635 14.819 9.75722C14.806 9.75094 14.7913 9.74877 14.777 9.75098C13.1951 10.0241 11.6555 10.502 10.1969 11.1727C10.1844 11.1774 10.174 11.1864 10.1674 11.198C7.25086 15.5559 6.45071 19.807 6.84305 24.0046C6.84446 24.0243 6.85711 24.044 6.87258 24.0566C8.57094 25.3146 10.4706 26.2751 12.4905 26.8972C12.5048 26.9017 12.5201 26.9015 12.5342 26.8967C12.5484 26.8919 12.5607 26.8827 12.5692 26.8705C13.0024 26.2799 13.3877 25.6569 13.7195 25.0016C13.7241 24.9927 13.7267 24.9828 13.7272 24.9728C13.7277 24.9628 13.726 24.9527 13.7222 24.9434C13.7185 24.9341 13.7128 24.9257 13.7056 24.9187C13.6983 24.9118 13.6896 24.9065 13.6802 24.9032C13.0743 24.6703 12.4875 24.3906 11.9252 24.0665C11.9149 24.0605 11.9063 24.0521 11.9 24.042C11.8938 24.0319 11.8902 24.0204 11.8895 24.0086C11.8888 23.9967 11.891 23.9849 11.8961 23.9741C11.9011 23.9634 11.9086 23.954 11.9182 23.9469C12.0363 23.8583 12.1544 23.7655 12.2669 23.6727C12.2768 23.6647 12.2888 23.6596 12.3014 23.6578C12.314 23.6561 12.3269 23.6578 12.3386 23.6629C16.0215 25.3447 20.0082 25.3447 23.6462 23.6629C23.6583 23.6574 23.6717 23.6555 23.6848 23.6572C23.698 23.659 23.7104 23.6643 23.7207 23.6727C23.8332 23.7655 23.9513 23.8583 24.0694 23.9469C24.079 23.9539 24.0867 23.9632 24.0918 23.9739C24.0969 23.9846 24.0993 23.9964 24.0988 24.0082C24.0982 24.02 24.0947 24.0316 24.0886 24.0417C24.0825 24.0519 24.074 24.0604 24.0638 24.0665C23.5027 24.3935 22.9152 24.6729 22.3074 24.9018C22.298 24.9054 22.2895 24.9109 22.2824 24.9181C22.2752 24.9252 22.2697 24.9338 22.2661 24.9432C22.2626 24.9526 22.261 24.9627 22.2616 24.9728C22.2621 24.9828 22.2648 24.9926 22.2694 25.0016C22.6069 25.6555 22.9937 26.2799 23.4183 26.8705C23.4269 26.8827 23.4392 26.8919 23.4533 26.8967C23.4675 26.9015 23.4828 26.9017 23.4971 26.8972C25.5204 26.2771 27.4231 25.3165 29.1234 24.0566C29.1319 24.0506 29.1389 24.0429 29.144 24.0339C29.1491 24.0249 29.1522 24.0149 29.153 24.0046C29.6227 19.1517 28.3669 14.9358 25.8258 11.1994C25.8233 11.1932 25.8194 11.1877 25.8146 11.1831C25.8097 11.1785 25.804 11.1749 25.7977 11.1727ZM14.2694 21.448C13.1599 21.448 12.2472 20.4299 12.2472 19.1812C12.2472 17.931 13.143 16.9129 14.2694 16.9129C15.4042 16.9129 16.3084 17.9395 16.2915 19.1812C16.2915 20.4299 15.3958 21.448 14.2694 21.448ZM21.7449 21.448C20.6368 21.448 19.7228 20.4299 19.7228 19.1812C19.7228 17.931 20.6185 16.9129 21.7449 16.9129C22.8798 16.9129 23.7854 17.9395 23.7671 19.1812C23.7671 20.4299 22.8798 21.448 21.7449 21.448Z" fill="#F9F9F9"/>
</svg>
