<svg width="36" height="37" viewBox="0 0 36 37" fill="none" xmlns="http://www.w3.org/2000/svg">
<path d="M8.22121 3.4891C7.65772 2.76461 6.58676 2.69794 5.93776 3.34694L3.61143 5.67327C2.52361 6.76109 2.12371 8.30222 2.59898 9.65406C4.5076 15.0828 7.63234 20.1801 11.9761 24.5239C16.3199 28.8677 21.4172 31.9924 26.8459 33.901C28.1978 34.3763 29.7389 33.9764 30.8267 32.8886L33.1531 30.5622C33.8021 29.9132 33.7354 28.8423 33.0109 28.2788L27.822 24.243C27.4519 23.9551 26.9699 23.8534 26.5151 23.9671L21.5897 25.1984C20.2518 25.5329 18.8366 25.1409 17.8615 24.1658L12.3342 18.6385C11.3591 17.6634 10.9671 16.2482 11.3016 14.9103L12.5329 9.98494C12.6466 9.53005 12.5449 9.04815 12.257 8.67803L8.22121 3.4891ZM4.24074 1.64992C5.9105 -0.0198368 8.66586 0.151706 10.1156 2.01568L14.1515 7.20461C14.8921 8.15683 15.1538 9.39669 14.8612 10.567L13.6299 15.4924C13.4999 16.0124 13.6522 16.5625 14.0312 16.9415L19.5585 22.4688C19.9375 22.8478 20.4876 23.0001 21.0076 22.8701L25.933 21.6388C27.1033 21.3462 28.3432 21.6079 29.2954 22.3486L34.4843 26.3844C36.3483 27.8341 36.5198 30.5895 34.8501 32.2593L32.5238 34.5856C30.8594 36.25 28.37 36.9808 26.0499 36.1651C20.2895 34.1399 14.8824 30.8242 10.2791 26.2209C5.67584 21.6176 2.36013 16.2105 0.334886 10.4501C-0.480785 8.13003 0.250043 5.64062 1.91441 3.97625L4.24074 1.64992Z" fill="#2C2D2E"/>
<path d="M8.22121 3.4891C7.65772 2.76461 6.58676 2.69794 5.93776 3.34694L3.61143 5.67327C2.52361 6.76109 2.12371 8.30222 2.59898 9.65406C4.5076 15.0828 7.63234 20.1801 11.9761 24.5239C16.3199 28.8677 21.4172 31.9924 26.8459 33.901C28.1978 34.3763 29.7389 33.9764 30.8267 32.8886L33.1531 30.5622C33.8021 29.9132 33.7354 28.8423 33.0109 28.2788L27.822 24.243C27.4519 23.9551 26.9699 23.8534 26.5151 23.9671L21.5897 25.1984C20.2518 25.5329 18.8366 25.1409 17.8615 24.1658L12.3342 18.6385C11.3591 17.6634 10.9671 16.2482 11.3016 14.9103L12.5329 9.98494C12.6466 9.53005 12.5449 9.04815 12.257 8.67803L8.22121 3.4891ZM4.24074 1.64992C5.9105 -0.0198368 8.66586 0.151706 10.1156 2.01568L14.1515 7.20461C14.8921 8.15683 15.1538 9.39669 14.8612 10.567L13.6299 15.4924C13.4999 16.0124 13.6522 16.5625 14.0312 16.9415L19.5585 22.4688C19.9375 22.8478 20.4876 23.0001 21.0076 22.8701L25.933 21.6388C27.1033 21.3462 28.3432 21.6079 29.2954 22.3486L34.4843 26.3844C36.3483 27.8341 36.5198 30.5895 34.8501 32.2593L32.5238 34.5856C30.8594 36.25 28.37 36.9808 26.0499 36.1651C20.2895 34.1399 14.8824 30.8242 10.2791 26.2209C5.67584 21.6176 2.36013 16.2105 0.334886 10.4501C-0.480785 8.13003 0.250043 5.64062 1.91441 3.97625L4.24074 1.64992Z" fill="black" fill-opacity="0.2"/>
</svg>
