<svg width="36" height="36" viewBox="0 0 36 36" fill="none" xmlns="http://www.w3.org/2000/svg">
<path d="M32.6371 5.65879L26.1503 2.53579C25.784 2.35916 25.3718 2.30088 24.9709 2.36901C24.5699 2.43714 24.2001 2.62832 23.9127 2.91604L2.67833 22.275C2.42069 22.5088 2.26647 22.8354 2.24959 23.1828C2.23271 23.5303 2.35456 23.8703 2.58833 24.1279C2.61645 24.1583 2.64458 24.1875 2.67495 24.2145L4.40858 25.7895C4.63511 25.9957 4.9267 26.116 5.23271 26.1296C5.53872 26.1432 5.83981 26.0491 6.0837 25.8638L31.6606 6.46879C31.8538 6.32219 32.084 6.23243 32.3255 6.20961C32.5669 6.18679 32.8099 6.23181 33.0272 6.33961C33.2444 6.44741 33.4272 6.61371 33.5551 6.81978C33.6829 7.02586 33.7507 7.26353 33.7508 7.50604V7.43067C33.7508 7.06043 33.6463 6.69772 33.4492 6.38426C33.2522 6.07081 32.9707 5.81934 32.6371 5.65879Z" fill="#0065A9"/>
<path d="M32.6371 30.3412L26.1503 33.4653C25.7839 33.6414 25.3718 33.6994 24.971 33.6313C24.5702 33.5632 24.2004 33.3723 23.9127 33.085L2.67833 13.7249C2.42069 13.4911 2.26647 13.1646 2.24959 12.8171C2.23271 12.4696 2.35456 12.1297 2.58833 11.872C2.61645 11.8417 2.64458 11.8124 2.67495 11.7854L4.40858 10.2104C4.63534 10.0034 4.9276 9.88253 5.23436 9.86896C5.54113 9.85539 5.84292 9.94996 6.08708 10.1362L31.6606 29.5312C31.8538 29.6778 32.084 29.7675 32.3255 29.7903C32.5669 29.8132 32.8099 29.7682 33.0272 29.6604C33.2444 29.5526 33.4272 29.3863 33.5551 29.1802C33.6829 28.9741 33.7507 28.7364 33.7508 28.4939V28.5749C33.7496 28.9442 33.6445 29.3056 33.4476 29.618C33.2506 29.9303 32.9697 30.1809 32.6371 30.3412Z" fill="#007ACC"/>
<path d="M26.1503 33.4655C25.7839 33.6416 25.3718 33.6996 24.971 33.6315C24.5702 33.5634 24.2004 33.3725 23.9127 33.0852C24.0743 33.2447 24.2793 33.3529 24.5021 33.3963C24.7249 33.4397 24.9555 33.4165 25.1651 33.3294C25.3748 33.2423 25.554 33.0953 25.6804 32.9067C25.8069 32.7182 25.8748 32.4966 25.8758 32.2696V3.73059C25.876 3.50254 25.8085 3.27956 25.6819 3.0899C25.5552 2.90025 25.3752 2.75245 25.1644 2.66522C24.9537 2.578 24.7219 2.55528 24.4982 2.59994C24.2746 2.6446 24.0693 2.75462 23.9082 2.91609C24.1957 2.62847 24.5654 2.43728 24.9663 2.36896C25.3671 2.30063 25.7793 2.35856 26.1458 2.53471L32.6315 5.65321C32.9661 5.81296 33.2488 6.06408 33.4469 6.3776C33.6449 6.69112 33.7503 7.05425 33.7508 7.42509V28.5751C33.7509 28.9456 33.6463 29.3087 33.4491 29.6224C33.2518 29.936 32.97 30.1876 32.636 30.3481L26.1503 33.4655Z" fill="#1F9CF0"/>
</svg>
