<svg width="18" height="19" viewBox="0 0 18 19" fill="none" xmlns="http://www.w3.org/2000/svg">
<path d="M6.54768 16.6428V14.0872C6.54766 13.4372 7.0776 12.909 7.73418 12.9047H10.1392C10.799 12.9047 11.3338 13.4341 11.3338 14.0872V16.6508C11.3336 17.2027 11.7785 17.6537 12.3359 17.6667H13.9392C15.5376 17.6667 16.8333 16.3839 16.8333 14.8015V7.53153C16.8248 6.90902 16.5296 6.32446 16.0316 5.94419L10.5481 1.57108C9.58745 0.809639 8.22184 0.809639 7.26118 1.57108L1.80169 5.95213C1.30188 6.33085 1.00616 6.91639 1 7.53947V14.8015C1 16.3839 2.29573 17.6667 3.89409 17.6667H5.49747C6.06863 17.6667 6.53165 17.2083 6.53165 16.6428" stroke="#A0AFC4" stroke-width="1.5" stroke-linecap="round" stroke-linejoin="round"/>
</svg>
