<svg width="150" height="142" viewBox="0 0 150 142" fill="none" xmlns="http://www.w3.org/2000/svg">
<path fill-rule="evenodd" clip-rule="evenodd" d="M106.019 0.803745C108.093 2.23737 108.624 5.09748 107.204 7.19196C103.623 12.4743 98.3817 15.0534 92.9158 16.3437C87.5648 17.6069 81.5469 17.7365 75.9351 17.7979C75.4491 17.8032 74.9656 17.808 74.4847 17.8127C69.2161 17.865 64.2556 17.9142 59.6738 18.6077C54.7244 19.3569 50.7258 20.7973 47.7136 23.4044C43.3272 27.2008 41.5907 32.0611 42.2401 35.8965C42.8325 39.3946 45.6777 43.4443 53.6487 45.3104C56.1768 45.9022 60.798 45.9699 66.8085 45.493C72.6576 45.0289 79.3347 44.0949 85.6833 42.9637C88.1589 42.5226 90.5199 44.1913 90.9567 46.6908C91.3936 49.1903 89.7409 51.5742 87.2653 52.0153C80.7174 53.1819 73.7395 54.1628 67.5217 54.6562C61.4655 55.1367 55.6081 55.2043 51.5925 54.2643C41.0303 51.7916 34.631 45.501 33.2669 37.4455C31.96 29.7274 35.5554 21.821 41.7889 16.426C46.6105 12.2529 52.5029 10.399 58.3241 9.51785C63.5707 8.7237 69.1715 8.67074 74.3108 8.62214C74.8243 8.61729 75.3331 8.61248 75.8365 8.60697C81.5774 8.54422 86.6144 8.39196 90.8432 7.39366C94.9572 6.42249 97.8206 4.76047 99.6918 2.00034C101.112 -0.0941496 103.944 -0.629883 106.019 0.803745Z" fill="#F9F9F9"/>
<path fill-rule="evenodd" clip-rule="evenodd" d="M43.9812 79.1963C41.9068 77.7626 41.3762 74.9025 42.796 72.808C46.3771 67.5257 51.6183 64.9466 57.0842 63.6563C62.4352 62.3931 68.4531 62.2635 74.0649 62.2021C74.5509 62.1968 75.0344 62.192 75.5153 62.1873C80.7839 62.135 85.7444 62.0858 90.3262 61.3923C95.2756 60.6431 99.2742 59.2027 102.286 56.5956C106.673 52.7992 108.409 47.9389 107.76 44.1035C107.168 40.6054 104.322 36.5557 96.3513 34.6896C93.8232 34.0978 89.202 34.0301 83.1915 34.507C77.3424 34.9711 70.6653 35.9051 64.3167 37.0363C61.8411 37.4774 59.4801 35.8087 59.0433 33.3092C58.6064 30.8097 60.2591 28.4258 62.7347 27.9847C69.2826 26.8181 76.2605 25.8372 82.4783 25.3438C88.5345 24.8633 94.3919 24.7957 98.4075 25.7357C108.97 28.2084 115.369 34.499 116.733 42.5545C118.04 50.2726 114.445 58.179 108.211 63.574C103.389 67.7471 97.4971 69.601 91.6759 70.4821C86.4293 71.2763 80.8285 71.3293 75.6892 71.3779C75.1757 71.3827 74.6669 71.3875 74.1635 71.393C68.4226 71.4558 63.3856 71.608 59.1568 72.6063C55.0428 73.5775 52.1794 75.2395 50.3082 77.9997C48.8883 80.0941 46.0556 80.6299 43.9812 79.1963Z" fill="#F9F9F9"/>
<path d="M142 117V102.221H144.813V104.569H144.968C145.241 103.774 145.721 103.148 146.409 102.693C147.103 102.231 147.888 102 148.764 102C148.946 102 149.16 102.006 149.406 102.019C149.659 102.032 149.857 102.048 150 102.067V104.819C149.883 104.787 149.676 104.752 149.377 104.713C149.079 104.668 148.78 104.646 148.482 104.646C147.794 104.646 147.181 104.79 146.642 105.079C146.11 105.361 145.689 105.756 145.377 106.262C145.066 106.763 144.91 107.334 144.91 107.975V117H142Z" fill="#F9F9F9"/>
<path d="M132.363 118C130.838 118 129.526 117.674 128.424 117.022C127.33 116.363 126.484 115.439 125.886 114.25C125.295 113.053 125 111.652 125 110.045C125 108.459 125.295 107.061 125.886 105.851C126.484 104.641 127.317 103.697 128.384 103.018C129.459 102.339 130.714 102 132.151 102C133.024 102 133.87 102.145 134.689 102.434C135.508 102.723 136.244 103.176 136.895 103.795C137.546 104.413 138.06 105.216 138.436 106.204C138.812 107.185 139 108.378 139 109.783V110.852H126.702V108.594H136.049C136.049 107.8 135.888 107.098 135.565 106.486C135.243 105.868 134.79 105.381 134.206 105.025C133.628 104.668 132.95 104.49 132.171 104.49C131.325 104.49 130.587 104.699 129.955 105.115C129.331 105.525 128.847 106.063 128.505 106.728C128.169 107.387 128.001 108.103 128.001 108.876V110.64C128.001 111.675 128.183 112.556 128.545 113.282C128.915 114.008 129.428 114.562 130.086 114.945C130.744 115.322 131.513 115.51 132.393 115.51C132.964 115.51 133.484 115.429 133.954 115.268C134.424 115.1 134.83 114.851 135.173 114.522C135.515 114.192 135.777 113.786 135.958 113.302L138.809 113.816C138.58 114.656 138.171 115.392 137.58 116.024C136.996 116.649 136.26 117.136 135.374 117.486C134.494 117.829 133.491 118 132.363 118Z" fill="#F9F9F9"/>
<path d="M114.406 118C113.169 118 112.065 117.68 111.093 117.04C110.129 116.393 109.37 115.474 108.818 114.281C108.273 113.082 108 111.643 108 109.966C108 108.288 108.276 106.853 108.828 105.661C109.387 104.468 110.152 103.555 111.123 102.922C112.095 102.289 113.196 101.972 114.426 101.972C115.378 101.972 116.143 102.134 116.721 102.457C117.307 102.774 117.759 103.144 118.078 103.569C118.404 103.993 118.657 104.367 118.837 104.691H119.016V97H122V117.697H119.086V115.282H118.837C118.657 115.612 118.398 115.989 118.058 116.413C117.726 116.838 117.267 117.208 116.681 117.525C116.096 117.842 115.338 118 114.406 118ZM115.065 115.423C115.923 115.423 116.648 115.194 117.24 114.736C117.839 114.271 118.291 113.628 118.597 112.806C118.91 111.984 119.066 111.027 119.066 109.936C119.066 108.858 118.913 107.914 118.607 107.106C118.301 106.297 117.852 105.667 117.26 105.216C116.668 104.765 115.936 104.539 115.065 104.539C114.167 104.539 113.418 104.775 112.82 105.246C112.221 105.718 111.769 106.361 111.463 107.177C111.163 107.992 111.014 108.911 111.014 109.936C111.014 110.973 111.167 111.906 111.473 112.735C111.779 113.564 112.231 114.22 112.83 114.705C113.435 115.184 114.18 115.423 115.065 115.423Z" fill="#F9F9F9"/>
<path d="M101.402 117V101.856H104.566V117H101.402ZM103 99.5197C102.45 99.5197 101.977 99.3488 101.582 99.007C101.194 98.6587 101 98.2446 101 97.7648C101 97.2784 101.194 96.8643 101.582 96.5225C101.977 96.1742 102.45 96 103 96C103.55 96 104.019 96.1742 104.407 96.5225C104.802 96.8643 105 97.2784 105 97.7648C105 98.2446 104.802 98.6587 104.407 99.007C104.019 99.3488 103.55 99.5197 103 99.5197Z" fill="#F9F9F9"/>
<path d="M94.7913 102.633C94.6863 101.691 94.2533 100.961 93.4921 100.444C92.731 99.9194 91.773 99.6573 90.6181 99.6573C89.7913 99.6573 89.0761 99.79 88.4724 100.055C87.8688 100.314 87.3996 100.673 87.065 101.13C86.7369 101.582 86.5728 102.096 86.5728 102.673C86.5728 103.157 86.6844 103.575 86.9075 103.927C87.1371 104.279 87.4357 104.574 87.8031 104.813C88.1772 105.045 88.5774 105.241 89.0039 105.4C89.4304 105.553 89.8405 105.679 90.2342 105.778L92.2028 106.296C92.8458 106.455 93.5052 106.671 94.1811 106.943C94.857 107.215 95.4836 107.573 96.061 108.018C96.6385 108.462 97.1043 109.013 97.4587 109.67C97.8196 110.327 98 111.113 98 112.028C98 113.183 97.7047 114.208 97.1142 115.104C96.5302 116 95.6804 116.706 94.565 117.224C93.456 117.741 92.1142 118 90.5394 118C89.0302 118 87.7244 117.758 86.622 117.273C85.5197 116.789 84.6568 116.102 84.0335 115.213C83.4101 114.318 83.0656 113.256 83 112.028H86.0512C86.1102 112.765 86.3465 113.379 86.7598 113.87C87.1798 114.354 87.7146 114.716 88.3642 114.955C89.0203 115.187 89.7388 115.303 90.5197 115.303C91.3793 115.303 92.1437 115.167 92.813 114.895C93.4888 114.616 94.0203 114.231 94.4075 113.74C94.7946 113.243 94.9882 112.662 94.9882 111.999C94.9882 111.395 94.8176 110.9 94.4764 110.516C94.1417 110.131 93.6857 109.812 93.1083 109.56C92.5374 109.308 91.8911 109.086 91.1693 108.893L88.7874 108.236C87.1732 107.792 85.8937 107.138 84.9488 106.276C84.0105 105.413 83.5413 104.272 83.5413 102.852C83.5413 101.678 83.8563 100.653 84.4862 99.7768C85.1161 98.9009 85.9692 98.2209 87.0453 97.7365C88.1214 97.2455 89.3353 97 90.687 97C92.0518 97 93.2559 97.2422 94.2992 97.7265C95.3491 98.2109 96.1758 98.8777 96.7795 99.727C97.3832 100.57 97.6982 101.538 97.7244 102.633H94.7913Z" fill="#F9F9F9"/>
<path d="M74.3626 118C72.8384 118 71.5257 117.674 70.4245 117.022C69.33 116.363 68.4839 115.439 67.8863 114.25C67.2954 113.053 67 111.652 67 110.045C67 108.459 67.2954 107.061 67.8863 105.851C68.4839 104.641 69.3165 103.697 70.3842 103.018C71.4585 102.339 72.7141 102 74.1511 102C75.024 102 75.87 102.145 76.6892 102.434C77.5084 102.723 78.2436 103.176 78.895 103.795C79.5463 104.413 80.0599 105.216 80.436 106.204C80.812 107.185 81 108.378 81 109.783V110.852H68.7022V108.594H78.0489C78.0489 107.8 77.8878 107.098 77.5655 106.486C77.2432 105.868 76.7899 105.381 76.2058 105.025C75.6283 104.668 74.9501 104.49 74.1712 104.49C73.3252 104.49 72.5866 104.699 71.9554 105.115C71.3309 105.525 70.8475 106.063 70.505 106.728C70.1693 107.387 70.0014 108.103 70.0014 108.876V110.64C70.0014 111.675 70.1827 112.556 70.5453 113.282C70.9146 114.008 71.4283 114.562 72.0863 114.945C72.7444 115.322 73.5132 115.51 74.3928 115.51C74.9635 115.51 75.4839 115.429 75.954 115.268C76.424 115.1 76.8302 114.851 77.1727 114.522C77.5151 114.192 77.777 113.786 77.9583 113.302L80.8086 113.816C80.5803 114.656 80.1707 115.392 79.5799 116.024C78.9957 116.649 78.2604 117.136 77.3741 117.486C76.4945 117.829 75.4906 118 74.3626 118Z" fill="#F9F9F9"/>
<path d="M51 123V102.197H53.7056V104.65H53.9373C54.0979 104.334 54.3295 103.97 54.6322 103.556C54.9349 103.143 55.355 102.781 55.8924 102.473C56.4298 102.158 57.1402 102 58.0235 102C59.1725 102 60.1979 102.309 61.0998 102.926C62.0017 103.543 62.709 104.433 63.2217 105.595C63.7406 106.758 64 108.156 64 109.791C64 111.426 63.7436 112.828 63.2309 113.997C62.7182 115.159 62.014 116.056 61.1183 116.686C60.2226 117.31 59.2003 117.622 58.0513 117.622C57.1865 117.622 56.4792 117.468 55.9294 117.159C55.3858 116.85 54.9596 116.489 54.6507 116.076C54.3419 115.662 54.1041 115.294 53.9373 114.972H53.7705V123H51ZM53.7149 109.762C53.7149 110.826 53.8601 111.758 54.1504 112.559C54.4407 113.36 54.8608 113.987 55.4105 114.44C55.9603 114.887 56.6336 115.11 57.4305 115.11C58.2583 115.11 58.9501 114.877 59.5061 114.411C60.062 113.938 60.4821 113.298 60.7662 112.49C61.0565 111.682 61.2017 110.773 61.2017 109.762C61.2017 108.764 61.0596 107.867 60.7755 107.073C60.4975 106.278 60.0775 105.651 59.5153 105.191C58.9594 104.732 58.2644 104.502 57.4305 104.502C56.6275 104.502 55.948 104.722 55.392 105.162C54.8422 105.602 54.4253 106.216 54.1411 107.004C53.857 107.792 53.7149 108.711 53.7149 109.762Z" fill="#F9F9F9"/>
<path d="M39.2835 118C38.2926 118 37.3968 117.819 36.5959 117.457C35.7951 117.088 35.1605 116.554 34.6922 115.857C34.2308 115.159 34 114.304 34 113.291C34 112.418 34.1697 111.701 34.509 111.137C34.8483 110.574 35.3064 110.127 35.8833 109.799C36.4602 109.47 37.1049 109.222 37.8175 109.054C38.5302 108.886 39.2563 108.759 39.9961 108.672C40.9327 108.564 41.6928 108.477 42.2764 108.41C42.8601 108.336 43.2843 108.219 43.5489 108.058C43.8136 107.897 43.946 107.635 43.946 107.273V107.203C43.946 106.324 43.6949 105.643 43.1926 105.16C42.6972 104.677 41.9575 104.435 40.9734 104.435C39.9486 104.435 39.141 104.66 38.5505 105.109C37.9668 105.552 37.563 106.045 37.3391 106.589L34.4785 105.945C34.8178 105.005 35.3132 104.247 35.9648 103.67C36.6231 103.087 37.3798 102.664 38.2349 102.403C39.0901 102.134 39.9893 102 40.9327 102C41.557 102 42.2187 102.074 42.9178 102.221C43.6236 102.362 44.2819 102.624 44.8927 103.006C45.5103 103.389 46.0159 103.935 46.4096 104.647C46.8032 105.351 47 106.267 47 107.394V117.658H44.0274V115.545H43.9052C43.7084 115.934 43.4132 116.316 43.0196 116.692C42.6259 117.068 42.1203 117.379 41.5027 117.628C40.8851 117.876 40.1454 118 39.2835 118ZM39.9452 115.585C40.7867 115.585 41.5061 115.421 42.1034 115.092C42.7074 114.763 43.1655 114.334 43.4777 113.804C43.7967 113.267 43.9561 112.694 43.9561 112.083V110.091C43.8476 110.198 43.6372 110.299 43.325 110.392C43.0196 110.48 42.6701 110.557 42.2764 110.624C41.8828 110.684 41.4993 110.741 41.1261 110.795C40.7528 110.842 40.4406 110.882 40.1895 110.916C39.5991 110.99 39.0595 111.114 38.5709 111.288C38.089 111.462 37.7022 111.714 37.4103 112.043C37.1253 112.365 36.9828 112.794 36.9828 113.331C36.9828 114.075 37.261 114.639 37.8175 115.021C38.3741 115.397 39.0833 115.585 39.9452 115.585Z" fill="#F9F9F9"/>
<path d="M21.0015 108.094V117H18V97H20.9614V104.441H21.1521C21.5135 103.634 22.0656 102.993 22.8085 102.518C23.5514 102.042 24.5218 101.805 25.7197 101.805C26.7771 101.805 27.7006 102.016 28.4903 102.439C29.2867 102.863 29.9024 103.494 30.3375 104.334C30.7792 105.167 31 106.209 31 107.459V117H27.9985V107.811C27.9985 106.71 27.7073 105.857 27.1251 105.252C26.5429 104.64 25.7331 104.334 24.6958 104.334C23.9864 104.334 23.3506 104.48 22.7884 104.773C22.2329 105.066 21.7946 105.496 21.4734 106.062C21.1588 106.622 21.0015 107.299 21.0015 108.094Z" fill="#F9F9F9"/>
<path d="M11.7913 102.633C11.6864 101.691 11.2533 100.961 10.4921 100.444C9.73097 99.9194 8.77297 99.6573 7.61811 99.6573C6.79134 99.6573 6.07612 99.79 5.47244 100.055C4.86877 100.314 4.39961 100.673 4.06496 101.13C3.73688 101.582 3.57283 102.096 3.57283 102.673C3.57283 103.157 3.68438 103.575 3.90748 103.927C4.13714 104.279 4.4357 104.574 4.80315 104.813C5.17717 105.045 5.57743 105.241 6.00394 105.4C6.43045 105.553 6.84055 105.679 7.23425 105.778L9.20276 106.296C9.8458 106.455 10.5052 106.671 11.1811 106.943C11.857 107.215 12.4836 107.573 13.061 108.018C13.6385 108.462 14.1043 109.013 14.4587 109.67C14.8196 110.327 15 111.113 15 112.028C15 113.183 14.7047 114.208 14.1142 115.104C13.5302 116 12.6804 116.706 11.565 117.224C10.456 117.741 9.11417 118 7.53937 118C6.03018 118 4.72441 117.758 3.62205 117.273C2.51969 116.789 1.65682 116.102 1.03346 115.213C0.410105 114.318 0.0656167 113.256 0 112.028H3.05118C3.11024 112.765 3.34646 113.379 3.75984 113.87C4.17979 114.354 4.71457 114.716 5.36417 114.955C6.02034 115.187 6.73885 115.303 7.51969 115.303C8.37927 115.303 9.1437 115.167 9.81299 114.895C10.4888 114.616 11.0203 114.231 11.4075 113.74C11.7946 113.243 11.9882 112.662 11.9882 111.999C11.9882 111.395 11.8176 110.9 11.4764 110.516C11.1417 110.131 10.6857 109.812 10.1083 109.56C9.5374 109.308 8.89108 109.086 8.16929 108.893L5.7874 108.236C4.17323 107.792 2.8937 107.138 1.94882 106.276C1.0105 105.413 0.541339 104.272 0.541339 102.852C0.541339 101.678 0.856299 100.653 1.48622 99.7768C2.11614 98.9009 2.96916 98.2209 4.04528 97.7365C5.12139 97.2455 6.3353 97 7.68701 97C9.05184 97 10.2559 97.2422 11.2992 97.7265C12.3491 98.2109 13.1759 98.8777 13.7795 99.727C14.3832 100.57 14.6982 101.538 14.7244 102.633H11.7913Z" fill="#F9F9F9"/>
<path d="M128 128V141H127V128H128Z" fill="#F9F9F9"/>
<path d="M119.766 142C118.781 142 117.931 141.774 117.217 141.321C116.507 140.864 115.959 140.227 115.572 139.409C115.191 138.587 115 137.631 115 136.542C115 135.452 115.191 134.491 115.572 133.66C115.959 132.824 116.496 132.173 117.183 131.707C117.876 131.236 118.683 131 119.607 131C120.139 131 120.665 131.092 121.184 131.277C121.703 131.462 122.176 131.762 122.602 132.178C123.028 132.589 123.368 133.134 123.621 133.812C123.874 134.491 124 135.327 124 136.32V137.013H116.118V135.599H122.402C122.402 134.999 122.287 134.463 122.056 133.992C121.83 133.521 121.506 133.15 121.084 132.877C120.667 132.605 120.175 132.469 119.607 132.469C118.981 132.469 118.439 132.63 117.982 132.953C117.53 133.272 117.181 133.688 116.937 134.2C116.693 134.713 116.571 135.262 116.571 135.849V136.791C116.571 137.594 116.704 138.276 116.97 138.834C117.241 139.389 117.616 139.811 118.095 140.102C118.575 140.388 119.132 140.531 119.766 140.531C120.179 140.531 120.552 140.471 120.885 140.351C121.222 140.227 121.513 140.042 121.757 139.797C122.001 139.548 122.189 139.238 122.322 138.869L123.84 139.312C123.68 139.848 123.412 140.319 123.035 140.725C122.658 141.127 122.192 141.441 121.637 141.668C121.082 141.889 120.459 142 119.766 142Z" fill="#F9F9F9"/>
<path d="M106.553 135.062V141H105V131.129H106.5V132.671H106.632C106.868 132.17 107.228 131.767 107.711 131.463C108.193 131.154 108.816 131 109.579 131C110.263 131 110.862 131.137 111.375 131.411C111.888 131.681 112.287 132.093 112.572 132.645C112.857 133.194 113 133.888 113 134.728V141H111.447V134.83C111.447 134.055 111.241 133.451 110.829 133.018C110.417 132.581 109.851 132.362 109.132 132.362C108.636 132.362 108.193 132.467 107.803 132.677C107.417 132.887 107.112 133.194 106.888 133.596C106.664 133.999 106.553 134.488 106.553 135.062Z" fill="#F9F9F9"/>
<path d="M97.4137 142C96.7796 142 96.2041 141.873 95.6873 141.62C95.1705 141.362 94.76 140.991 94.456 140.508C94.152 140.019 94 139.43 94 138.739C94 138.131 94.1129 137.638 94.3388 137.26C94.5646 136.878 94.8664 136.578 95.2443 136.362C95.6221 136.145 96.0391 135.984 96.4951 135.878C96.9555 135.768 97.418 135.68 97.8827 135.616C98.4908 135.533 98.9837 135.47 99.3616 135.429C99.7438 135.383 100.022 135.307 100.195 135.201C100.374 135.095 100.463 134.911 100.463 134.648V134.593C100.463 133.911 100.287 133.381 99.9349 133.004C99.5874 132.626 99.0597 132.437 98.3518 132.437C97.6178 132.437 97.0423 132.608 96.6254 132.948C96.2085 133.289 95.9153 133.653 95.7459 134.04L94.2866 133.487C94.5472 132.843 94.8947 132.34 95.329 131.981C95.7676 131.617 96.2454 131.364 96.7622 131.221C97.2834 131.074 97.7959 131 98.2997 131C98.6211 131 98.9902 131.041 99.4072 131.124C99.8284 131.203 100.235 131.366 100.625 131.615C101.021 131.864 101.349 132.239 101.609 132.741C101.87 133.243 102 133.916 102 134.759V141.751H100.463V140.314H100.384C100.28 140.544 100.106 140.791 99.8632 141.053C99.62 141.316 99.2964 141.539 98.8925 141.724C98.4886 141.908 97.9957 142 97.4137 142ZM97.6482 140.535C98.2562 140.535 98.7687 140.409 99.1857 140.155C99.607 139.902 99.924 139.575 100.137 139.174C100.354 138.773 100.463 138.352 100.463 137.91V136.417C100.397 136.5 100.254 136.576 100.033 136.645C99.8154 136.71 99.5635 136.767 99.2769 136.818C98.9946 136.864 98.7188 136.905 98.4495 136.942C98.1846 136.974 97.9696 137.002 97.8046 137.025C97.405 137.08 97.0315 137.17 96.684 137.295C96.3409 137.414 96.063 137.596 95.8502 137.84C95.6417 138.08 95.5375 138.407 95.5375 138.822C95.5375 139.388 95.7351 139.817 96.1303 140.107C96.5299 140.392 97.0358 140.535 97.6482 140.535Z" fill="#F9F9F9"/>
<path d="M83 141V128H87.487C88.5288 128 89.3804 128.184 90.0418 128.552C90.7075 128.916 91.2003 129.409 91.5202 130.031C91.8401 130.653 92 131.347 92 132.113C92 132.879 91.8401 133.575 91.5202 134.202C91.2046 134.828 90.7161 135.327 90.0548 135.7C89.3934 136.068 88.5461 136.252 87.513 136.252H84.2968V134.855H87.4611C88.1743 134.855 88.7471 134.735 89.1794 134.494C89.6117 134.252 89.9251 133.927 90.1196 133.516C90.3184 133.101 90.4179 132.634 90.4179 132.113C90.4179 131.593 90.3184 131.127 90.1196 130.717C89.9251 130.306 89.6095 129.985 89.1729 129.752C88.7363 129.515 88.1571 129.396 87.4352 129.396H84.6081V141H83Z" fill="#F9F9F9"/>
<path d="M68.5526 135.062V141H67V131.129H68.5V132.671H68.6316C68.8684 132.17 69.2281 131.767 69.7105 131.463C70.193 131.154 70.8158 131 71.5789 131C72.2632 131 72.8618 131.137 73.375 131.411C73.8882 131.681 74.2873 132.093 74.5724 132.645C74.8575 133.194 75 133.888 75 134.728V141H73.4474V134.83C73.4474 134.055 73.2412 133.451 72.8289 133.018C72.4167 132.581 71.8509 132.362 71.1316 132.362C70.636 132.362 70.193 132.467 69.8026 132.677C69.4167 132.887 69.1118 133.194 68.8882 133.596C68.6645 133.999 68.5526 134.488 68.5526 135.062Z" fill="#F9F9F9"/>
<path d="M62.4286 141V131.545H64.5357V141H62.4286ZM63.5 129.97C63.0893 129.97 62.7351 129.873 62.4375 129.68C62.1458 129.488 62 129.256 62 128.985C62 128.714 62.1458 128.482 62.4375 128.289C62.7351 128.096 63.0893 128 63.5 128C63.9107 128 64.2619 128.096 64.5536 128.289C64.8512 128.482 65 128.714 65 128.985C65 129.256 64.8512 129.488 64.5536 129.68C64.2619 129.873 63.9107 129.97 63.5 129.97Z" fill="#F9F9F9"/>
<path d="M47 141V131.129H48.4702V132.671H48.5992C48.8056 132.144 49.1387 131.735 49.5987 131.443C50.0587 131.148 50.6111 131 51.256 131C51.9094 131 52.4532 131.148 52.8874 131.443C53.3259 131.735 53.6677 132.144 53.9127 132.671H54.0159C54.2695 132.161 54.65 131.756 55.1572 131.456C55.6645 131.152 56.2728 131 56.9821 131C57.8677 131 58.5921 131.276 59.1553 131.829C59.7184 132.377 60 133.232 60 134.393V141H58.4782V134.393C58.4782 133.665 58.2783 133.144 57.8785 132.832C57.4787 132.519 57.0079 132.362 56.4663 132.362C55.7698 132.362 55.2303 132.572 54.8477 132.992C54.4651 133.408 54.2738 133.935 54.2738 134.573V141H52.7262V134.239C52.7262 133.678 52.5435 133.226 52.1781 132.883C51.8127 132.536 51.3419 132.362 50.7659 132.362C50.3704 132.362 50.0007 132.467 49.6567 132.677C49.3171 132.887 49.042 133.179 48.8314 133.551C48.625 133.92 48.5218 134.346 48.5218 134.83V141H47Z" fill="#F9F9F9"/>
<path d="M39.3274 142C38.4779 142 37.7279 141.782 37.0774 141.347C36.427 140.907 35.9181 140.288 35.5509 139.489C35.1836 138.686 35 137.737 35 136.642C35 135.556 35.1836 134.614 35.5509 133.815C35.9181 133.017 36.4292 132.4 37.0841 131.964C37.7389 131.529 38.4956 131.312 39.354 131.312C40.0177 131.312 40.542 131.424 40.927 131.648C41.3164 131.868 41.6128 132.119 41.8164 132.402C42.0243 132.68 42.1858 132.909 42.3009 133.088H42.4336V128H44V141.785H42.4867V140.196H42.3009C42.1858 140.385 42.0221 140.622 41.8097 140.91C41.5973 141.192 41.2942 141.446 40.9004 141.67C40.5066 141.89 39.9823 142 39.3274 142ZM39.5398 140.573C40.1681 140.573 40.6991 140.407 41.1327 140.075C41.5664 139.738 41.896 139.274 42.1217 138.682C42.3473 138.085 42.4602 137.396 42.4602 136.615C42.4602 135.844 42.3496 135.168 42.1283 134.589C41.9071 134.006 41.5796 133.553 41.146 133.23C40.7124 132.902 40.177 132.738 39.5398 132.738C38.8761 132.738 38.323 132.911 37.8805 133.257C37.4425 133.598 37.1128 134.062 36.8916 134.65C36.6748 135.233 36.5664 135.888 36.5664 136.615C36.5664 137.351 36.677 138.02 36.8982 138.621C37.1239 139.218 37.4558 139.694 37.8938 140.048C38.3363 140.398 38.885 140.573 39.5398 140.573Z" fill="#F9F9F9"/>
<path d="M23.625 141H22L26.7 128H28.3L33 141H31.375L27.55 130.057H27.45L23.625 141ZM24.225 135.922H30.775V137.318H24.225V135.922Z" fill="#F9F9F9"/>
</svg>
