<svg width="28" height="28" viewBox="0 0 28 28" fill="none" xmlns="http://www.w3.org/2000/svg">
<rect width="28" height="28" rx="4" fill="#A0BFFF" fill-opacity="0.25"/>
<path d="M15.4047 7.05039C14.9919 5.64987 13.0081 5.64987 12.5953 7.05039L12.4952 7.39003C12.2315 8.2849 11.2094 8.70827 10.3901 8.26201L10.0791 8.09264C8.79692 7.39422 7.39422 8.79693 8.09264 10.0791L8.26201 10.3901C8.70827 11.2094 8.2849 12.2315 7.39003 12.4952L7.05039 12.5953C5.64987 13.0081 5.64987 14.9919 7.05039 15.4047L7.39003 15.5048C8.2849 15.7685 8.70827 16.7906 8.26201 17.6099L8.09264 17.9209C7.39422 19.2031 8.79692 20.6058 10.0791 19.9074L10.3901 19.738C11.2094 19.2917 12.2315 19.7151 12.4952 20.61L12.5953 20.9496C13.0081 22.3501 14.9919 22.3501 15.4047 20.9496L15.5048 20.61C15.7685 19.7151 16.7906 19.2917 17.6099 19.738L17.9209 19.9074C19.2031 20.6058 20.6058 19.2031 19.9074 17.9209L19.738 17.6099C19.2917 16.7906 19.7151 15.7685 20.61 15.5048L20.9496 15.4047C22.3501 14.9919 22.3501 13.0081 20.9496 12.5953L20.61 12.4952C19.7151 12.2315 19.2917 11.2094 19.738 10.3901L19.9074 10.0791C20.6058 8.79692 19.2031 7.39422 17.9209 8.09264L17.6099 8.26201C16.7906 8.70827 15.7685 8.2849 15.5048 7.39003L15.4047 7.05039ZM14 16.9288C12.3825 16.9288 11.0712 15.6175 11.0712 14C11.0712 12.3825 12.3825 11.0712 14 11.0712C15.6175 11.0712 16.9288 12.3825 16.9288 14C16.9288 15.6175 15.6175 16.9288 14 16.9288Z" fill="#276EFF"/>
</svg>
