<svg width="99" height="85" viewBox="0 0 99 85" fill="none" xmlns="http://www.w3.org/2000/svg">
<path fill-rule="evenodd" clip-rule="evenodd" d="M70.0379 0.524671C71.4052 1.46052 71.7549 3.32754 70.8191 4.69479C68.4588 8.14302 65.0043 9.82659 61.4018 10.6689C57.875 11.4935 53.9087 11.5781 50.2099 11.6181C49.8896 11.6216 49.571 11.6247 49.254 11.6278C45.7815 11.6619 42.512 11.6941 39.4922 12.1468C36.2301 12.6358 33.5947 13.5761 31.6093 15.278C28.7183 17.7562 27.5738 20.9289 28.0018 23.4326C28.3922 25.7161 30.2675 28.3597 35.5211 29.5778C37.1874 29.9642 40.2332 30.0083 44.1947 29.697C48.0497 29.3941 52.4506 28.7843 56.6349 28.0459C58.2666 27.758 59.8227 28.8473 60.1106 30.4789C60.3986 32.1106 59.3093 33.6667 57.6776 33.9546C53.362 34.7162 48.7629 35.3565 44.6648 35.6786C40.6731 35.9923 36.8125 36.0364 34.1659 35.4228C27.2044 33.8086 22.9866 29.7022 22.0876 24.4438C21.2262 19.4055 23.5959 14.2444 27.7044 10.7226C30.8823 7.99847 34.766 6.78828 38.6027 6.21309C42.0606 5.69468 45.7521 5.6601 49.1394 5.62838C49.4778 5.62521 49.8132 5.62207 50.145 5.61848C53.9287 5.57752 57.2486 5.47812 60.0358 4.82645C62.7473 4.19249 64.6346 3.10755 65.8678 1.30579C66.8037 -0.0614592 68.6707 -0.411176 70.0379 0.524671Z" fill="#707FDD"/>
<path fill-rule="evenodd" clip-rule="evenodd" d="M28.9622 51.3784C27.5949 50.4426 27.2452 48.5755 28.1811 47.2083C30.5413 43.7601 33.9958 42.0765 37.5983 41.2342C41.1251 40.4096 45.0915 40.325 48.7902 40.2849C49.1105 40.2815 49.4291 40.2784 49.7461 40.2752C53.2186 40.2411 56.4881 40.209 59.5079 39.7563C62.77 39.2672 65.4055 38.3269 67.3908 36.6251C70.2818 34.1469 71.4264 30.9741 70.9983 28.4704C70.6079 26.187 68.7326 23.5434 63.479 22.3253C61.8127 21.9389 58.7669 21.8948 54.8054 22.2061C50.9504 22.509 46.5495 23.1187 42.3652 23.8571C40.7336 24.1451 39.1774 23.0558 38.8895 21.4241C38.6016 19.7925 39.6909 18.2364 41.3225 17.9484C45.6382 17.1869 50.2373 16.5466 54.3354 16.2245C58.327 15.9108 62.1876 15.8667 64.8342 16.4803C71.7957 18.0944 76.0135 22.2008 76.9125 27.4593C77.7739 32.4976 75.4042 37.6587 71.2957 41.1805C68.1178 43.9046 64.2342 45.1148 60.3974 45.69C56.9395 46.2084 53.248 46.243 49.8607 46.2747C49.5223 46.2779 49.1869 46.281 48.8551 46.2846C45.0714 46.3256 41.7515 46.425 38.9643 47.0766C36.2528 47.7106 34.3656 48.7955 33.1323 50.5973C32.1964 51.9645 30.3294 52.3143 28.9622 51.3784Z" fill="white"/>
<path d="M93.1712 71.5182V61.7H95.0185V63.2597H95.1208C95.2998 62.7312 95.6151 62.3158 96.0668 62.0132C96.5228 61.7064 97.0384 61.553 97.6137 61.553C97.733 61.553 97.8736 61.5572 98.0356 61.5658C98.2017 61.5743 98.3317 61.5849 98.4255 61.5977V63.4258C98.3488 63.4045 98.2124 63.3811 98.0164 63.3555C97.8204 63.3257 97.6243 63.3108 97.4283 63.3108C96.9766 63.3108 96.5739 63.4067 96.2202 63.5984C95.8708 63.7859 95.5938 64.048 95.3892 64.3847C95.1847 64.717 95.0824 65.0963 95.0824 65.5224V71.5182H93.1712Z" fill="white"/>
<path d="M86.8384 71.7162C85.8711 71.7162 85.038 71.5095 84.3391 71.0962C83.6445 70.6786 83.1076 70.0926 82.7283 69.3384C82.3533 68.5798 82.1658 67.6913 82.1658 66.6729C82.1658 65.6672 82.3533 64.7808 82.7283 64.0138C83.1076 63.2467 83.636 62.648 84.3136 62.2176C84.9954 61.7872 85.7923 61.572 86.7042 61.572C87.2582 61.572 87.7951 61.6636 88.315 61.8469C88.8349 62.0301 89.3015 62.3178 89.7148 62.7098C90.1282 63.1019 90.4542 63.6111 90.6928 64.2375C90.9315 64.8597 91.0508 65.6161 91.0508 66.5067V67.1842H83.2461V65.7524H89.1779C89.1779 65.2496 89.0756 64.8043 88.8711 64.4165C88.6665 64.0244 88.3789 63.7155 88.0082 63.4896C87.6417 63.2638 87.2113 63.1509 86.717 63.1509C86.18 63.1509 85.7113 63.283 85.3107 63.5472C84.9144 63.8071 84.6076 64.148 84.3903 64.5699C84.1772 64.9875 84.0707 65.4413 84.0707 65.9314V67.05C84.0707 67.7063 84.1857 68.2645 84.4158 68.7247C84.6502 69.1849 84.9762 69.5365 85.3938 69.7794C85.8114 70.018 86.2994 70.1374 86.8576 70.1374C87.2198 70.1374 87.5501 70.0862 87.8484 69.984C88.1467 69.8774 88.4045 69.7197 88.6218 69.5109C88.8391 69.3021 89.0053 69.0443 89.1204 68.7375L90.9293 69.0635C90.7844 69.5962 90.5245 70.0628 90.1495 70.4634C89.7788 70.8597 89.3121 71.1686 88.7496 71.3902C88.1914 71.6075 87.5543 71.7162 86.8384 71.7162Z" fill="white"/>
<path d="M75.0146 71.7099C74.222 71.7099 73.5146 71.5075 72.8925 71.1027C72.2746 70.6936 71.7888 70.1119 71.4351 69.3576C71.0857 68.5991 70.9109 67.6893 70.9109 66.6282C70.9109 65.5672 71.0878 64.6595 71.4415 63.9052C71.7994 63.151 72.2895 62.5736 72.9117 62.173C73.5338 61.7724 74.2391 61.5721 75.0274 61.5721C75.6368 61.5721 76.1269 61.6744 76.4976 61.879C76.8726 62.0792 77.1624 62.3136 77.3669 62.5821C77.5757 62.8505 77.7376 63.087 77.8527 63.2916H77.9678V58.4272H79.879V71.5182H78.0125V69.9905H77.8527C77.7376 70.1993 77.5715 70.4379 77.3541 70.7064C77.1411 70.9748 76.847 71.2092 76.472 71.4095C76.097 71.6098 75.6112 71.7099 75.0146 71.7099ZM75.4365 70.0799C75.9862 70.0799 76.4507 69.9351 76.83 69.6453C77.2135 69.3513 77.5033 68.9443 77.6993 68.4244C77.8996 67.9045 77.9997 67.2994 77.9997 66.6091C77.9997 65.9272 77.9017 65.3307 77.7057 64.8193C77.5097 64.3079 77.222 63.9095 76.8428 63.624C76.4635 63.3385 75.9948 63.1957 75.4365 63.1957C74.8612 63.1957 74.3818 63.3449 73.9983 63.6432C73.6148 63.9415 73.325 64.3484 73.129 64.864C72.9372 65.3797 72.8413 65.9613 72.8413 66.6091C72.8413 67.2653 72.9394 67.8555 73.1354 68.3797C73.3314 68.9038 73.6212 69.3193 74.0047 69.6261C74.3925 69.9287 74.8698 70.0799 75.4365 70.0799Z" fill="white"/>
<path d="M66.8568 71.5181V61.7H68.7681V71.5181H66.8568ZM67.8221 60.185C67.4897 60.185 67.2042 60.0742 66.9655 59.8526C66.7311 59.6268 66.614 59.3583 66.614 59.0473C66.614 58.7319 66.7311 58.4634 66.9655 58.2419C67.2042 58.016 67.4897 57.9031 67.8221 57.9031C68.1544 57.9031 68.4378 58.016 68.6722 58.2419C68.9108 58.4634 69.0302 58.7319 69.0302 59.0473C69.0302 59.3583 68.9108 59.6268 68.6722 59.8526C68.4378 60.0742 68.1544 60.185 67.8221 60.185Z" fill="white"/>
<path d="M62.5662 61.8662C62.498 61.2611 62.2167 60.7923 61.7224 60.4599C61.2281 60.1233 60.6059 59.955 59.8559 59.955C59.319 59.955 58.8545 60.0402 58.4625 60.2106C58.0704 60.3768 57.7657 60.607 57.5484 60.901C57.3354 61.1908 57.2288 61.521 57.2288 61.8918C57.2288 62.2028 57.3013 62.4713 57.4461 62.6972C57.5953 62.923 57.7892 63.1126 58.0278 63.266C58.2707 63.4152 58.5307 63.5409 58.8077 63.6432C59.0846 63.7412 59.351 63.8222 59.6067 63.8861L60.8851 64.2185C61.3027 64.3207 61.731 64.4592 62.1699 64.6339C62.6088 64.8087 63.0158 65.0388 63.3908 65.3243C63.7658 65.6098 64.0683 65.9635 64.2984 66.3854C64.5328 66.8072 64.65 67.3122 64.65 67.9003C64.65 68.6418 64.4582 69.3001 64.0747 69.8754C63.6954 70.4507 63.1436 70.9045 62.4192 71.2369C61.699 71.5693 60.8275 71.7355 59.8048 71.7355C58.8247 71.7355 57.9767 71.58 57.2608 71.2689C56.5449 70.9578 55.9845 70.5168 55.5797 69.9457C55.1748 69.3705 54.9511 68.6886 54.9085 67.9003H56.89C56.9284 68.3733 57.0818 68.7675 57.3503 69.0828C57.623 69.3939 57.9703 69.6261 58.3922 69.7795C58.8183 69.9287 59.2849 70.0033 59.792 70.0033C60.3503 70.0033 60.8467 69.9159 61.2814 69.7412C61.7203 69.5622 62.0655 69.3151 62.3169 68.9997C62.5683 68.6801 62.694 68.3072 62.694 67.8811C62.694 67.4933 62.5832 67.1758 62.3616 66.9287C62.1443 66.6815 61.8481 66.477 61.4731 66.3151C61.1024 66.1531 60.6827 66.0104 60.2139 65.8868L58.667 65.4649C57.6187 65.1794 56.7878 64.7597 56.1741 64.2057C55.5648 63.6517 55.2601 62.9187 55.2601 62.0068C55.2601 61.2526 55.4646 60.5942 55.8737 60.0317C56.2828 59.4692 56.8368 59.0324 57.5356 58.7213C58.2345 58.406 59.0229 58.2483 59.9007 58.2483C60.7871 58.2483 61.569 58.4038 62.2466 58.7149C62.9284 59.026 63.4653 59.4543 63.8574 59.9997C64.2494 60.5409 64.454 61.1631 64.471 61.8662H62.5662Z" fill="white"/>
<path d="M48.94 71.7162C47.9727 71.7162 47.1396 71.5095 46.4407 71.0962C45.7461 70.6786 45.2092 70.0926 44.8299 69.3384C44.4549 68.5798 44.2674 67.6913 44.2674 66.6729C44.2674 65.6672 44.4549 64.7808 44.8299 64.0138C45.2092 63.2467 45.7376 62.648 46.4151 62.2176C47.0969 61.7872 47.8938 61.572 48.8057 61.572C49.3597 61.572 49.8967 61.6636 50.4165 61.8469C50.9364 62.0301 51.403 62.3178 51.8164 62.7098C52.2298 63.1019 52.5557 63.6111 52.7944 64.2375C53.033 64.8597 53.1523 65.6161 53.1523 66.5067V67.1842H45.3477V65.7524H51.2795C51.2795 65.2496 51.1772 64.8043 50.9727 64.4165C50.7681 64.0244 50.4805 63.7155 50.1097 63.4896C49.7432 63.2638 49.3128 63.1509 48.8185 63.1509C48.2816 63.1509 47.8128 63.283 47.4123 63.5472C47.016 63.8071 46.7092 64.148 46.4918 64.5699C46.2788 64.9875 46.1722 65.4413 46.1722 65.9314V67.05C46.1722 67.7063 46.2873 68.2645 46.5174 68.7247C46.7518 69.1849 47.0778 69.5365 47.4954 69.7794C47.913 70.018 48.4009 70.1374 48.9592 70.1374C49.3214 70.1374 49.6516 70.0862 49.9499 69.984C50.2482 69.8774 50.506 69.7197 50.7234 69.5109C50.9407 69.3021 51.1069 69.0443 51.2219 68.7375L53.0309 69.0635C52.886 69.5962 52.6261 70.0628 52.2511 70.4634C51.8803 70.8597 51.4137 71.1686 50.8512 71.3902C50.293 71.6075 49.6559 71.7162 48.94 71.7162Z" fill="#707FDD"/>
<path d="M33.5989 75.1999V61.6999H35.4654V63.2915H35.6252C35.736 63.0869 35.8958 62.8504 36.1046 62.582C36.3134 62.3135 36.6032 62.0791 36.9739 61.8788C37.3447 61.6743 37.8347 61.572 38.4441 61.572C39.2367 61.572 39.9441 61.7723 40.5663 62.1729C41.1884 62.5734 41.6764 63.1509 42.03 63.9051C42.388 64.6594 42.567 65.5671 42.567 66.6281C42.567 67.6892 42.3901 68.599 42.0364 69.3575C41.6827 70.1118 41.1969 70.6935 40.5791 71.1026C39.9612 71.5074 39.2559 71.7098 38.4633 71.7098C37.8667 71.7098 37.3788 71.6097 36.9995 71.4094C36.6245 71.2091 36.3305 70.9747 36.1174 70.7063C35.9043 70.4378 35.7403 70.1992 35.6252 69.9903H35.5102V75.1999H33.5989ZM35.4718 66.609C35.4718 67.2993 35.5719 67.9044 35.7722 68.4243C35.9725 68.9442 36.2623 69.3511 36.6416 69.6452C37.0208 69.9349 37.4853 70.0798 38.035 70.0798C38.606 70.0798 39.0833 69.9286 39.4668 69.626C39.8504 69.3192 40.1401 68.9037 40.3362 68.3795C40.5364 67.8554 40.6366 67.2652 40.6366 66.609C40.6366 65.9612 40.5386 65.3795 40.3425 64.8639C40.1508 64.3483 39.861 63.9413 39.4732 63.643C39.0897 63.3447 38.6103 63.1956 38.035 63.1956C37.481 63.1956 37.0123 63.3384 36.6288 63.6239C36.2495 63.9094 35.9619 64.3078 35.7658 64.8192C35.5698 65.3305 35.4718 65.9271 35.4718 66.609Z" fill="#707FDD"/>
<path d="M26.2082 71.7354C25.586 71.7354 25.0235 71.6203 24.5207 71.3902C24.0178 71.1558 23.6194 70.817 23.3253 70.3739C23.0356 69.9307 22.8907 69.3874 22.8907 68.7439C22.8907 68.1899 22.9972 67.734 23.2103 67.376C23.4234 67.018 23.711 66.7347 24.0732 66.5259C24.4354 66.317 24.8403 66.1594 25.2877 66.0528C25.7351 65.9463 26.1911 65.8653 26.6556 65.8099C27.2437 65.7418 27.7209 65.6864 28.0874 65.6438C28.4539 65.5969 28.7202 65.5223 28.8864 65.42C29.0526 65.3178 29.1357 65.1516 29.1357 64.9215V64.8767C29.1357 64.3185 28.978 63.8859 28.6627 63.5791C28.3516 63.2723 27.8871 63.1189 27.2692 63.1189C26.6258 63.1189 26.1187 63.2617 25.7479 63.5472C25.3815 63.8284 25.1279 64.1416 24.9873 64.4868L23.1911 64.0777C23.4042 63.4811 23.7153 62.9996 24.1244 62.6331C24.5377 62.2624 25.0128 61.9939 25.5498 61.8277C26.0867 61.6572 26.6513 61.572 27.2437 61.572C27.6357 61.572 28.0512 61.6189 28.4901 61.7126C28.9333 61.8021 29.3467 61.9683 29.7302 62.2112C30.118 62.4541 30.4354 62.8014 30.6826 63.2531C30.9297 63.7006 31.0533 64.2822 31.0533 64.9982V71.518H29.1869V70.1757H29.1101C28.9866 70.4229 28.8012 70.6658 28.554 70.9044C28.3069 71.143 27.9894 71.3412 27.6016 71.4989C27.2138 71.6565 26.7494 71.7354 26.2082 71.7354ZM26.6236 70.2013C27.1521 70.2013 27.6038 70.0969 27.9788 69.8881C28.358 69.6793 28.6457 69.4065 28.8417 69.0699C29.042 68.729 29.1421 68.3646 29.1421 67.9769V66.7112C29.0739 66.7794 28.9418 66.8433 28.7458 66.903C28.554 66.9584 28.3346 67.0074 28.0874 67.05C27.8403 67.0884 27.5995 67.1246 27.3651 67.1587C27.1307 67.1885 26.9347 67.2141 26.7771 67.2354C26.4063 67.2822 26.0675 67.3611 25.7607 67.4719C25.4582 67.5827 25.2153 67.7425 25.032 67.9513C24.853 68.1558 24.7636 68.4286 24.7636 68.7695C24.7636 69.2425 24.9383 69.6004 25.2877 69.8433C25.6371 70.082 26.0824 70.2013 26.6236 70.2013Z" fill="#707FDD"/>
<path d="M14.434 65.6886V71.5182H12.5228V58.4272H14.4084V63.298H14.5299C14.76 62.7696 15.1115 62.3498 15.5846 62.0388C16.0576 61.7277 16.6755 61.5721 17.4382 61.5721C18.1115 61.5721 18.6996 61.7106 19.2025 61.9876C19.7096 62.2646 20.1016 62.678 20.3786 63.2277C20.6598 63.7731 20.8005 64.4549 20.8005 65.2731V71.5182H18.8892V65.5032C18.8892 64.7831 18.7039 64.2248 18.3331 63.8285C17.9624 63.428 17.4468 63.2277 16.7863 63.2277C16.3346 63.2277 15.9297 63.3236 15.5718 63.5153C15.2181 63.7071 14.939 63.9883 14.7344 64.3591C14.5341 64.7255 14.434 65.1687 14.434 65.6886Z" fill="#707FDD"/>
<path d="M8.23219 61.8662C8.16401 61.2611 7.88276 60.7923 7.38844 60.4599C6.89413 60.1233 6.27197 59.955 5.52197 59.955C4.98504 59.955 4.52055 60.0402 4.1285 60.2106C3.73646 60.3768 3.43177 60.607 3.21444 60.901C3.00137 61.1908 2.89484 61.521 2.89484 61.8918C2.89484 62.2028 2.96728 62.4713 3.11217 62.6972C3.26131 62.923 3.45521 63.1126 3.69384 63.266C3.93674 63.4152 4.19668 63.5409 4.47367 63.6432C4.75066 63.7412 5.017 63.8222 5.27268 63.8861L6.55109 64.2185C6.9687 64.3207 7.39697 64.4592 7.83589 64.6339C8.27481 64.8087 8.68177 65.0388 9.05677 65.3243C9.43177 65.6098 9.73433 65.9635 9.96444 66.3854C10.1988 66.8072 10.316 67.3122 10.316 67.9003C10.316 68.6418 10.1242 69.3001 9.74072 69.8754C9.36146 70.4507 8.80961 70.9045 8.08518 71.2369C7.36501 71.5693 6.49356 71.7355 5.47083 71.7355C4.49072 71.7355 3.64271 71.58 2.9268 71.2689C2.21089 70.9578 1.65052 70.5168 1.24569 69.9457C0.840859 69.3705 0.617138 68.6886 0.574524 67.9003H2.55606C2.59441 68.3733 2.74782 68.7675 3.01629 69.0828C3.28901 69.3939 3.63631 69.6261 4.05819 69.7795C4.48433 69.9287 4.95094 70.0033 5.45805 70.0033C6.01629 70.0033 6.51273 69.9159 6.94739 69.7412C7.38631 69.5622 7.73148 69.3151 7.9829 68.9997C8.23433 68.6801 8.36004 68.3072 8.36004 67.8811C8.36004 67.4933 8.24924 67.1758 8.02765 66.9287C7.81032 66.6815 7.51415 66.477 7.13915 66.3151C6.76842 66.1531 6.34867 66.0104 5.87992 65.8868L4.33305 65.4649C3.28475 65.1794 2.45379 64.7597 1.84015 64.2057C1.23077 63.6517 0.926086 62.9187 0.926086 62.0068C0.926086 61.2526 1.13063 60.5942 1.53972 60.0317C1.94881 59.4692 2.50279 59.0324 3.20165 58.7213C3.90052 58.406 4.68887 58.2483 5.56671 58.2483C6.45308 58.2483 7.23504 58.4038 7.91259 58.7149C8.59441 59.026 9.13134 59.4543 9.52339 59.9997C9.91543 60.5409 10.12 61.1631 10.137 61.8662H8.23219Z" fill="#707FDD"/>
<path d="M84.1183 75.4727V84.1999H83.1126V75.4727H84.1183Z" fill="white"/>
<path d="M78.8725 84.3364C78.2418 84.3364 77.6978 84.1972 77.2404 83.9188C76.7858 83.6375 76.435 83.2455 76.1878 82.7426C75.9435 82.2369 75.8214 81.6489 75.8214 80.9784C75.8214 80.308 75.9435 79.7171 76.1878 79.2057C76.435 78.6915 76.7787 78.2909 77.2191 78.004C77.6623 77.7142 78.1793 77.5693 78.7702 77.5693C79.1111 77.5693 79.4478 77.6262 79.7802 77.7398C80.1125 77.8534 80.4151 78.0381 80.6878 78.2938C80.9606 78.5466 81.1779 78.8818 81.3398 79.2994C81.5017 79.7171 81.5827 80.2313 81.5827 80.8421V81.2682H76.5373V80.3989H80.56C80.56 80.0296 80.4861 79.7 80.3384 79.4102C80.1935 79.1205 79.9861 78.8918 79.7162 78.7242C79.4492 78.5566 79.1339 78.4727 78.7702 78.4727C78.3696 78.4727 78.0231 78.5722 77.7304 78.771C77.4407 78.9671 77.2177 79.2227 77.0614 79.5381C76.9052 79.8534 76.827 80.1915 76.827 80.5523V81.1318C76.827 81.6262 76.9123 82.0452 77.0827 82.3889C77.256 82.7298 77.4961 82.9898 77.8029 83.1688C78.1097 83.3449 78.4662 83.433 78.8725 83.433C79.1367 83.433 79.3753 83.396 79.5884 83.3222C79.8043 83.2455 79.9904 83.1318 80.1466 82.9813C80.3029 82.8279 80.4236 82.6375 80.5089 82.4102L81.4804 82.683C81.3782 83.0125 81.2063 83.3023 80.9648 83.5523C80.7233 83.7994 80.425 83.9926 80.0699 84.1318C79.7148 84.2682 79.3157 84.3364 78.8725 84.3364Z" fill="white"/>
<path d="M70.1144 80.2625V84.2H69.1087V77.6546H70.0803V78.6773H70.1655C70.3189 78.3449 70.5519 78.0779 70.8644 77.8762C71.1769 77.6716 71.5803 77.5693 72.0746 77.5693C72.5178 77.5693 72.9056 77.6602 73.238 77.8421C73.5704 78.021 73.8289 78.2938 74.0135 78.6602C74.1982 79.0239 74.2905 79.4841 74.2905 80.0409V84.2H73.2848V80.1091C73.2848 79.5949 73.1513 79.1943 72.8843 78.9074C72.6172 78.6176 72.2507 78.4727 71.7848 78.4727C71.4638 78.4727 71.1769 78.5423 70.924 78.6816C70.674 78.8208 70.4766 79.0239 70.3317 79.2909C70.1868 79.558 70.1144 79.8818 70.1144 80.2625Z" fill="white"/>
<path d="M64.2731 84.3534C63.8583 84.3534 63.4819 84.2753 63.1438 84.1191C62.8057 83.96 62.5373 83.7313 62.3384 83.433C62.1395 83.1318 62.0401 82.7682 62.0401 82.3421C62.0401 81.9671 62.114 81.6631 62.2617 81.4301C62.4094 81.1943 62.6069 81.0097 62.854 80.8762C63.1012 80.7426 63.3739 80.6432 63.6722 80.5779C63.9733 80.5097 64.2759 80.4557 64.5799 80.4159C64.9776 80.3648 65.3 80.3264 65.5472 80.3009C65.7972 80.2725 65.979 80.2256 66.0927 80.1602C66.2091 80.0949 66.2674 79.9813 66.2674 79.8193V79.7852C66.2674 79.3648 66.1523 79.0381 65.9222 78.8051C65.6949 78.5722 65.3498 78.4557 64.8867 78.4557C64.4066 78.4557 64.0302 78.5608 63.7574 78.771C63.4847 78.9813 63.2929 79.2057 63.1821 79.4443L62.2276 79.1034C62.3981 78.7057 62.6253 78.396 62.9094 78.1744C63.1964 77.95 63.5089 77.7938 63.8469 77.7057C64.1878 77.6148 64.5231 77.5693 64.8526 77.5693C65.0628 77.5693 65.3043 77.5949 65.577 77.646C65.8526 77.6943 66.1182 77.7952 66.3739 77.9486C66.6324 78.102 66.8469 78.3335 67.0174 78.6432C67.1878 78.9529 67.2731 79.3676 67.2731 79.8875V84.2H66.2674V83.3137H66.2162C66.1481 83.4557 66.0344 83.6077 65.8753 83.7696C65.7162 83.9316 65.5046 84.0693 65.2404 84.183C64.9762 84.2966 64.6537 84.3534 64.2731 84.3534ZM64.4265 83.45C64.8242 83.45 65.1594 83.3719 65.4321 83.2156C65.7077 83.0594 65.9151 82.8577 66.0543 82.6105C66.1964 82.3634 66.2674 82.1034 66.2674 81.8307V80.9102C66.2248 80.9614 66.131 81.0083 65.9861 81.0509C65.8441 81.0906 65.6793 81.1262 65.4918 81.1574C65.3071 81.1858 65.1267 81.2114 64.9506 81.2341C64.7773 81.254 64.6367 81.271 64.5287 81.2852C64.2674 81.3193 64.0231 81.3747 63.7958 81.4514C63.5714 81.5253 63.3895 81.6375 63.2503 81.7881C63.114 81.9358 63.0458 82.1375 63.0458 82.3932C63.0458 82.7426 63.175 83.0068 63.4336 83.1858C63.6949 83.3619 64.0259 83.45 64.4265 83.45Z" fill="white"/>
<path d="M54.8661 84.1999V75.4727H57.815C58.4997 75.4727 59.0593 75.5962 59.494 75.8434C59.9315 76.0877 60.2554 76.4187 60.4656 76.8363C60.6758 77.2539 60.7809 77.7198 60.7809 78.234C60.7809 78.7482 60.6758 79.2156 60.4656 79.636C60.2582 80.0565 59.9372 80.3917 59.5025 80.6417C59.0679 80.8888 58.511 81.0124 57.8321 81.0124H55.7184V80.0749H57.798C58.2667 80.0749 58.6431 79.994 58.9272 79.832C59.2113 79.6701 59.4173 79.4513 59.5451 79.1758C59.6758 78.8974 59.7411 78.5835 59.7411 78.234C59.7411 77.8846 59.6758 77.5721 59.5451 77.2965C59.4173 77.021 59.2099 76.805 58.923 76.6488C58.636 76.4897 58.2554 76.4102 57.7809 76.4102H55.923V84.1999H54.8661Z" fill="white"/>
<path d="M45.3409 80.2625V84.2H44.3353V77.6546H45.3069V78.6773H45.3921C45.5455 78.3449 45.7784 78.0779 46.0909 77.8762C46.4034 77.6716 46.8069 77.5693 47.3012 77.5693C47.7444 77.5693 48.1321 77.6602 48.4645 77.8421C48.7969 78.021 49.0554 78.2938 49.2401 78.6602C49.4248 79.0239 49.5171 79.4841 49.5171 80.0409V84.2H48.5114V80.1091C48.5114 79.5949 48.3779 79.1943 48.1108 78.9074C47.8438 78.6176 47.4773 78.4727 47.0114 78.4727C46.6904 78.4727 46.4034 78.5423 46.1506 78.6816C45.9006 78.8208 45.7032 79.0239 45.5583 79.2909C45.4134 79.558 45.3409 79.8818 45.3409 80.2625Z" fill="white"/>
<path d="M41.4876 84.2V77.6545H42.4932V84.2H41.4876ZM41.9989 76.5636C41.8029 76.5636 41.6339 76.4968 41.4918 76.3633C41.3526 76.2298 41.283 76.0693 41.283 75.8818C41.283 75.6943 41.3526 75.5338 41.4918 75.4002C41.6339 75.2667 41.8029 75.2 41.9989 75.2C42.195 75.2 42.3626 75.2667 42.5018 75.4002C42.6438 75.5338 42.7148 75.6943 42.7148 75.8818C42.7148 76.0693 42.6438 76.2298 42.5018 76.3633C42.3626 76.4968 42.195 76.5636 41.9989 76.5636Z" fill="white"/>
<path d="M31.0579 84.2V77.6546H32.0295V78.6773H32.1147C32.2511 78.3279 32.4713 78.0566 32.7753 77.8634C33.0792 77.6673 33.4443 77.5693 33.8704 77.5693C34.3022 77.5693 34.6616 77.6673 34.9485 77.8634C35.2383 78.0566 35.4642 78.3279 35.6261 78.6773H35.6943C35.8619 78.3392 36.1133 78.0708 36.4485 77.8719C36.7838 77.6702 37.1858 77.5693 37.6545 77.5693C38.2397 77.5693 38.7184 77.7526 39.0906 78.1191C39.4628 78.4827 39.6488 79.0494 39.6488 79.8193V84.2H38.6432V79.8193C38.6432 79.3364 38.511 78.9912 38.2468 78.7838C37.9826 78.5764 37.6716 78.4727 37.3136 78.4727C36.8534 78.4727 36.4968 78.6119 36.244 78.8904C35.9912 79.1659 35.8647 79.5154 35.8647 79.9387V84.2H34.842V79.7171C34.842 79.3449 34.7213 79.0452 34.4798 78.8179C34.2383 78.5878 33.9272 78.4727 33.5466 78.4727C33.2852 78.4727 33.0409 78.5423 32.8136 78.6816C32.5892 78.8208 32.4074 79.0139 32.2682 79.2611C32.1318 79.5054 32.0636 79.7881 32.0636 80.1091V84.2H31.0579Z" fill="white"/>
<path d="M26.0763 84.3363C25.5309 84.3363 25.0493 84.1985 24.6317 83.9229C24.2141 83.6445 23.8874 83.2525 23.6516 82.7468C23.4158 82.2383 23.2979 81.6374 23.2979 80.9442C23.2979 80.2567 23.4158 79.6602 23.6516 79.1545C23.8874 78.6488 24.2155 78.2582 24.636 77.9826C25.0564 77.707 25.5422 77.5692 26.0934 77.5692C26.5195 77.5692 26.8562 77.6403 27.1033 77.7823C27.3533 77.9215 27.5437 78.0806 27.6743 78.2596C27.8079 78.4357 27.9115 78.5806 27.9854 78.6942H28.0706V75.4727H29.0763V84.1999H28.1047V83.1942H27.9854C27.9115 83.3136 27.8064 83.4641 27.6701 83.646C27.5337 83.8249 27.3391 83.9854 27.0863 84.1275C26.8334 84.2667 26.4968 84.3363 26.0763 84.3363ZM26.2127 83.4329C26.6161 83.4329 26.957 83.3278 27.2354 83.1175C27.5138 82.9045 27.7255 82.6104 27.8704 82.2354C28.0152 81.8576 28.0877 81.4215 28.0877 80.9272C28.0877 80.4386 28.0167 80.011 27.8746 79.6445C27.7326 79.2752 27.5223 78.9883 27.2439 78.7837C26.9655 78.5763 26.6218 78.4727 26.2127 78.4727C25.7865 78.4727 25.4314 78.582 25.1473 78.8008C24.8661 79.0167 24.6544 79.3107 24.5124 79.6829C24.3732 80.0522 24.3036 80.467 24.3036 80.9272C24.3036 81.3931 24.3746 81.8164 24.5167 82.1971C24.6615 82.5749 24.8746 82.8761 25.1559 83.1005C25.44 83.3221 25.7922 83.4329 26.2127 83.4329Z" fill="white"/>
<path d="M15.9897 84.1999H14.8818L18.0863 75.4727H19.1772L22.3818 84.1999H21.2738L18.6659 76.8533H18.5977L15.9897 84.1999ZM16.3988 80.7908H20.8647V81.7283H16.3988V80.7908Z" fill="white"/>
</svg>
