<svg width="38" height="36" viewBox="0 0 38 36" fill="none" xmlns="http://www.w3.org/2000/svg">
<path d="M12.6562 1C12.6562 0.447715 12.2085 0 11.6562 0C11.104 0 10.6562 0.447715 10.6562 1H12.6562ZM10.6562 29C10.6562 29.5523 11.104 30 11.6562 30C12.2085 30 12.6562 29.5523 12.6562 29H10.6562ZM6.8125 2H26.1875V0H6.8125V2ZM31 6.25V23.75H33V6.25H31ZM26.1875 28H6.8125V30H26.1875V28ZM2 23.75V6.25H0V23.75H2ZM6.8125 28C4.05644 28 2 26.0039 2 23.75H0C0 27.2951 3.14825 30 6.8125 30V28ZM31 23.75C31 26.0039 28.9436 28 26.1875 28V30C29.8518 30 33 27.2951 33 23.75H31ZM26.1875 2C28.9436 2 31 3.99611 31 6.25H33C33 2.7049 29.8518 0 26.1875 0V2ZM6.8125 0C3.14825 0 0 2.7049 0 6.25H2C2 3.99611 4.05644 2 6.8125 2V0ZM10.6562 1V29H12.6562V1H10.6562ZM1.96875 11.625H31.0313V9.625H1.96875V11.625Z" fill="#707FDD"/>
<rect width="16" height="20" transform="translate(21 15)" fill="#272B35"/>
<path d="M37 27V32C37 33.6569 34.3137 35 31 35C27.6863 35 25 33.6569 25 32V27M37 27V22M37 27C37 28.6569 34.3137 30 31 30C27.6863 30 25 28.6569 25 27M37 22C37 20.3431 34.3137 19 31 19C27.6863 19 25 20.3431 25 22M37 22C37 23.6569 34.3137 25 31 25C27.6863 25 25 23.6569 25 22M25 27V22" stroke="#707FDD" stroke-width="2" stroke-linecap="round" stroke-linejoin="round"/>
</svg>
