<svg width="14" height="15" viewBox="0 0 14 15" fill="none" xmlns="http://www.w3.org/2000/svg">
<path fill-rule="evenodd" clip-rule="evenodd" d="M7 2.47038L12.6 8.56047V12.8307C12.6 13.6716 11.9732 14.3533 11.2 14.3533H2.8C2.0268 14.3533 1.4 13.6716 1.4 12.8307V8.56047L7 2.47038Z" fill="white"/>
<path fill-rule="evenodd" clip-rule="evenodd" d="M11.6667 1.66558V5.21813L9.8 3.1881V1.66558C9.8 1.38529 10.0089 1.15807 10.2667 1.15807H11.2C11.4577 1.15807 11.6667 1.38529 11.6667 1.66558Z" fill="white"/>
<path fill-rule="evenodd" clip-rule="evenodd" d="M6.34003 0.650563C6.70452 0.254173 7.29548 0.254175 7.65997 0.650563L13.8633 7.39681C14.0456 7.595 14.0456 7.91634 13.8633 8.11453C13.6811 8.31273 13.3856 8.31273 13.2034 8.11453L7 1.36829L0.79665 8.11453C0.614405 8.31273 0.318928 8.31273 0.136684 8.11453C-0.0455612 7.91634 -0.0455612 7.595 0.136684 7.39681L6.34003 0.650563Z" fill="white"/>
</svg>
