<svg width="14" height="15" viewBox="0 0 14 15" fill="none" xmlns="http://www.w3.org/2000/svg">
<path d="M10.8667 0.353271H3.77333C2.79395 0.353271 2 1.13677 2 2.10327V12.6033C2 13.5698 2.79395 14.3533 3.77333 14.3533H10.8667C11.8461 14.3533 12.64 13.5698 12.64 12.6033V2.10327C12.64 1.13677 11.8461 0.353271 10.8667 0.353271ZM4.66 3.85327H9.98C10.2248 3.85327 10.4233 4.04915 10.4233 4.29077C10.4233 4.5324 10.2248 4.72827 9.98 4.72827H4.66C4.41515 4.72827 4.21667 4.5324 4.21667 4.29077C4.21667 4.04915 4.41515 3.85327 4.66 3.85327ZM4.21667 6.04077C4.21667 5.79915 4.41515 5.60327 4.66 5.60327H9.98C10.2248 5.60327 10.4233 5.79915 10.4233 6.04077C10.4233 6.2824 10.2248 6.47827 9.98 6.47827H4.66C4.41515 6.47827 4.21667 6.2824 4.21667 6.04077ZM4.66 7.35327H9.98C10.2248 7.35327 10.4233 7.54915 10.4233 7.79077C10.4233 8.0324 10.2248 8.22827 9.98 8.22827H4.66C4.41515 8.22827 4.21667 8.0324 4.21667 7.79077C4.21667 7.54915 4.41515 7.35327 4.66 7.35327ZM4.66 9.10327H7.32C7.56485 9.10327 7.76333 9.29915 7.76333 9.54077C7.76333 9.7824 7.56485 9.97827 7.32 9.97827H4.66C4.41515 9.97827 4.21667 9.7824 4.21667 9.54077C4.21667 9.29915 4.41515 9.10327 4.66 9.10327Z" fill="#8F97B2"/>
</svg>
