<svg width="12" height="15" viewBox="0 0 12 15" fill="none" xmlns="http://www.w3.org/2000/svg">
<path fill-rule="evenodd" clip-rule="evenodd" d="M3.42857 1.66577C3.42857 0.940898 4.00421 0.353271 4.71429 0.353271H7.28571C7.99579 0.353271 8.57143 0.940898 8.57143 1.66577V2.54077C8.57143 3.26565 7.99579 3.85327 7.28571 3.85327H4.71429C4.00421 3.85327 3.42857 3.26565 3.42857 2.54077V1.66577ZM7.71429 1.66577C7.71429 1.42415 7.52241 1.22827 7.28571 1.22827H4.71429C4.47759 1.22827 4.28571 1.42415 4.28571 1.66577V2.54077C4.28571 2.7824 4.47759 2.97827 4.71429 2.97827H7.28571C7.52241 2.97827 7.71429 2.7824 7.71429 2.54077V1.66577Z" fill="#8F97B2"/>
<path d="M1.71429 1.66577H2.57143V2.54077C2.57143 3.74889 3.53082 4.72827 4.71429 4.72827H7.28571C8.46918 4.72827 9.42857 3.74889 9.42857 2.54077V1.66577H10.2857C11.2325 1.66577 12 2.44927 12 3.41577V12.6033C12 13.5698 11.2325 14.3533 10.2857 14.3533H1.71429C0.767512 14.3533 0 13.5698 0 12.6033V3.41577C0 2.44927 0.767512 1.66577 1.71429 1.66577Z" fill="#8F97B2"/>
</svg>
