<svg width="17" height="23" viewBox="0 0 17 23" fill="none" xmlns="http://www.w3.org/2000/svg">
<path d="M14.1667 0.5H2.83333C1.26853 0.5 0 1.73122 0 3.25V19.75C0 21.2688 1.26853 22.5 2.83333 22.5H14.1667C15.7315 22.5 17 21.2688 17 19.75V3.25C17 1.73122 15.7315 0.5 14.1667 0.5ZM4.25 6H12.75C13.1412 6 13.4583 6.3078 13.4583 6.6875C13.4583 7.0672 13.1412 7.375 12.75 7.375H4.25C3.8588 7.375 3.54167 7.0672 3.54167 6.6875C3.54167 6.3078 3.8588 6 4.25 6ZM3.54167 9.4375C3.54167 9.0578 3.8588 8.75 4.25 8.75H12.75C13.1412 8.75 13.4583 9.0578 13.4583 9.4375C13.4583 9.81719 13.1412 10.125 12.75 10.125H4.25C3.8588 10.125 3.54167 9.81719 3.54167 9.4375ZM4.25 11.5H12.75C13.1412 11.5 13.4583 11.8078 13.4583 12.1875C13.4583 12.5672 13.1412 12.875 12.75 12.875H4.25C3.8588 12.875 3.54167 12.5672 3.54167 12.1875C3.54167 11.8078 3.8588 11.5 4.25 11.5ZM4.25 14.25H8.5C8.8912 14.25 9.20833 14.5578 9.20833 14.9375C9.20833 15.3172 8.8912 15.625 8.5 15.625H4.25C3.8588 15.625 3.54167 15.3172 3.54167 14.9375C3.54167 14.5578 3.8588 14.25 4.25 14.25Z" fill="#707FDD"/>
</svg>
