<svg width="14" height="15" viewBox="0 0 14 15" fill="none" xmlns="http://www.w3.org/2000/svg">
<path d="M8.22908 1.2726C7.86788 0.0471527 6.13212 0.0471532 5.77092 1.2726L5.68333 1.56979C5.45254 2.3528 4.55818 2.72326 3.84132 2.33278L3.56924 2.18457C2.44731 1.57346 1.21994 2.80083 1.83106 3.92276L1.97926 4.19484C2.36974 4.9117 1.99929 5.80605 1.21628 6.03684L0.919088 6.12444C-0.306363 6.48564 -0.306362 8.2214 0.919088 8.58259L1.21628 8.67019C1.99929 8.90098 2.36974 9.79533 1.97926 10.5122L1.83106 10.7843C1.21994 11.9062 2.44731 13.1336 3.56924 12.5225L3.84132 12.3743C4.55818 11.9838 5.45254 12.3542 5.68333 13.1372L5.77092 13.4344C6.13212 14.6599 7.86788 14.6599 8.22908 13.4344L8.31668 13.1372C8.54747 12.3542 9.44182 11.9838 10.1587 12.3743L10.4308 12.5225C11.5527 13.1336 12.7801 11.9062 12.1689 10.7843L12.0207 10.5122C11.6303 9.79533 12.0007 8.90098 12.7837 8.67019L13.0809 8.58259C14.3064 8.2214 14.3064 6.48564 13.0809 6.12444L12.7837 6.03684C12.0007 5.80605 11.6303 4.9117 12.0207 4.19484L12.1689 3.92275C12.7801 2.80082 11.5527 1.57346 10.4308 2.18457L10.1587 2.33278C9.44182 2.72326 8.54747 2.3528 8.31668 1.56979L8.22908 1.2726ZM7 9.91623C5.58465 9.91623 4.43729 8.76886 4.43729 7.35352C4.43729 5.93817 5.58465 4.7908 7 4.7908C8.41535 4.7908 9.56271 5.93817 9.56271 7.35352C9.56271 8.76886 8.41535 9.91623 7 9.91623Z" fill="#8F97B2"/>
</svg>
