<svg width="16" height="17" viewBox="0 0 16 17" fill="none" xmlns="http://www.w3.org/2000/svg">
<path d="M10.75 4V3.4C10.75 2.55992 10.75 2.13988 10.5865 1.81901C10.4427 1.53677 10.2132 1.3073 9.93099 1.16349C9.61012 1 9.19008 1 8.35 1H7.15C6.30992 1 5.88988 1 5.56901 1.16349C5.28677 1.3073 5.0573 1.53677 4.91349 1.81901C4.75 2.13988 4.75 2.55992 4.75 3.4V4M1 4H14.5M13 4V12.4C13 13.6601 13 14.2902 12.7548 14.7715C12.539 15.1948 12.1948 15.539 11.7715 15.7548C11.2902 16 10.6601 16 9.4 16H6.1C4.83988 16 4.20982 16 3.72852 15.7548C3.30516 15.539 2.96095 15.1948 2.74524 14.7715C2.5 14.2902 2.5 13.6601 2.5 12.4V4" stroke="white" stroke-width="2" stroke-linecap="round" stroke-linejoin="round"/>
</svg>
