<svg width="20" height="20" viewBox="0 0 20 20" fill="none" xmlns="http://www.w3.org/2000/svg">
<path d="M10 7.50009V10.8334M3.64909 12.6666C2.89123 13.9792 2.51241 14.6358 2.56901 15.1744C2.61839 15.6441 2.86493 16.0709 3.24707 16.3486C3.68503 16.6668 4.44242 16.6668 5.95711 16.6668H14.0429C15.5576 16.6668 16.3149 16.6668 16.7528 16.3486C17.135 16.0709 17.3816 15.6441 17.431 15.1744C17.4876 14.6358 17.1089 13.9792 16.351 12.6666L12.3096 5.66659C11.5517 4.35394 11.1726 3.69773 10.6779 3.47746C10.2464 3.28534 9.75334 3.28534 9.32183 3.47746C8.82732 3.69763 8.44845 4.35385 7.69122 5.66541L3.64909 12.6666ZM10.0423 13.3334V13.4168L9.9585 13.4169V13.3334H10.0423Z" stroke="white" stroke-width="2" stroke-linecap="round" stroke-linejoin="round"/>
</svg>
