<svg width="36" height="36" viewBox="0 0 36 36" fill="none" xmlns="http://www.w3.org/2000/svg">
<rect width="36" height="36" rx="8" fill="#242424"/>
<path d="M18 6.75C11.7844 6.75 6.75 11.7844 6.75 18C6.75 22.9781 9.97031 27.1828 14.4422 28.6734C15.0047 28.7719 15.2156 28.4344 15.2156 28.1391C15.2156 27.8719 15.2016 26.9859 15.2016 26.0438C12.375 26.5641 11.6437 25.3547 11.4187 24.7219C11.2922 24.3984 10.7438 23.4 10.2656 23.1328C9.87188 22.9219 9.30938 22.4016 10.2516 22.3875C11.1375 22.3734 11.7703 23.2031 11.9812 23.5406C12.9938 25.2422 14.6109 24.7641 15.2578 24.4688C15.3562 23.7375 15.6516 23.2453 15.975 22.9641C13.4719 22.6828 10.8563 21.7125 10.8563 17.4094C10.8563 16.1859 11.2922 15.1734 12.0094 14.3859C11.8969 14.1047 11.5031 12.9516 12.1219 11.4047C12.1219 11.4047 13.0641 11.1094 15.2156 12.5578C16.1156 12.3047 17.0719 12.1781 18.0281 12.1781C18.9844 12.1781 19.9406 12.3047 20.8406 12.5578C22.9922 11.0953 23.9344 11.4047 23.9344 11.4047C24.5531 12.9516 24.1594 14.1047 24.0469 14.3859C24.7641 15.1734 25.2 16.1719 25.2 17.4094C25.2 21.7266 22.5703 22.6828 20.0672 22.9641C20.475 23.3156 20.8266 23.9906 20.8266 25.0453C20.8266 26.55 20.8125 27.7594 20.8125 28.1391C20.8125 28.4344 21.0234 28.7859 21.5859 28.6734C23.8193 27.9195 25.7599 26.4842 27.1348 24.5695C28.5096 22.6548 29.2494 20.3572 29.25 18C29.25 11.7844 24.2156 6.75 18 6.75Z" fill="#F9F9F9"/>
</svg>
