<svg width="168" height="52" viewBox="0 0 168 52" fill="none" xmlns="http://www.w3.org/2000/svg">
<path fill-rule="evenodd" clip-rule="evenodd" d="M48.3811 0.524671C49.7484 1.46052 50.0981 3.32754 49.1623 4.69479C46.802 8.14302 43.3475 9.82659 39.745 10.6689C36.2182 11.4935 32.2519 11.5781 28.5531 11.6181C28.2328 11.6216 27.9142 11.6247 27.5972 11.6278C24.1247 11.6619 20.8552 11.6941 17.8354 12.1468C14.5733 12.6358 11.9379 13.5761 9.95252 15.278C7.0615 17.7562 5.91696 20.9289 6.345 23.4326C6.73539 25.7161 8.61068 28.3597 13.8643 29.5778C15.5306 29.9642 18.5764 30.0083 22.5379 29.697C26.3929 29.3941 30.7938 28.7843 34.9781 28.0459C36.6098 27.758 38.1659 28.8473 38.4538 30.4789C38.7418 32.1106 37.6525 33.6667 36.0208 33.9546C31.7052 34.7162 27.1061 35.3565 23.008 35.6786C19.0163 35.9923 15.1557 36.0364 12.5091 35.4228C5.54762 33.8086 1.32983 29.7022 0.430814 24.4438C-0.430552 19.4055 1.93915 14.2444 6.0476 10.7226C9.2255 7.99847 13.1092 6.78828 16.9459 6.21309C20.4038 5.69468 24.0953 5.6601 27.4826 5.62838C27.821 5.62521 28.1564 5.62207 28.4882 5.61848C32.2719 5.57752 35.5918 5.47812 38.379 4.82645C41.0905 4.19249 42.9778 3.10755 44.211 1.30579C45.1469 -0.0614592 47.0139 -0.411176 48.3811 0.524671Z" fill="#276EFF"/>
<path fill-rule="evenodd" clip-rule="evenodd" d="M7.30538 51.3784C5.93813 50.4426 5.58842 48.5756 6.52426 47.2083C8.8845 43.7601 12.339 42.0765 15.9415 41.2342C19.4683 40.4096 23.4347 40.325 27.1334 40.285C27.4537 40.2815 27.7723 40.2784 28.0893 40.2753C31.5618 40.2412 34.8313 40.2091 37.8511 39.7563C41.1132 39.2673 43.7487 38.327 45.734 36.6251C48.625 34.1469 49.7696 30.9742 49.3415 28.4705C48.9511 26.187 47.0758 23.5434 41.8222 22.3253C40.1559 21.9389 37.1101 21.8948 33.1486 22.2061C29.2936 22.5091 24.8927 23.1188 20.7084 23.8572C19.0768 24.1451 17.5206 23.0558 17.2327 21.4242C16.9448 19.7925 18.0341 18.2364 19.6657 17.9485C23.9814 17.1869 28.5805 16.5466 32.6786 16.2245C36.6702 15.9109 40.5308 15.8667 43.1774 16.4804C50.1389 18.0945 54.3567 22.2009 55.2557 27.4594C56.1171 32.4976 53.7474 37.6587 49.6389 41.1805C46.461 43.9046 42.5774 45.1148 38.7406 45.69C35.2827 46.2084 31.5912 46.243 28.2039 46.2747C27.8655 46.2779 27.5301 46.281 27.1983 46.2846C23.4146 46.3256 20.0947 46.425 17.3075 47.0767C14.596 47.7106 12.7088 48.7956 11.4755 50.5973C10.5396 51.9646 8.67262 52.3143 7.30538 51.3784Z" fill="#272D37"/>
<path d="M76.4395 15.7996C76.3713 15.1945 76.09 14.7257 75.5957 14.3933C75.1014 14.0567 74.4792 13.8883 73.7292 13.8883C73.1923 13.8883 72.7278 13.9736 72.3358 14.144C71.9437 14.3102 71.639 14.5403 71.4217 14.8344C71.2086 15.1241 71.1021 15.4544 71.1021 15.8251C71.1021 16.1362 71.1745 16.4047 71.3194 16.6305C71.4686 16.8564 71.6625 17.046 71.9011 17.1994C72.144 17.3486 72.4039 17.4743 72.6809 17.5766C72.9579 17.6746 73.2243 17.7555 73.4799 17.8195L74.7583 18.1518C75.176 18.2541 75.6042 18.3926 76.0431 18.5673C76.4821 18.742 76.889 18.9721 77.264 19.2577C77.639 19.5432 77.9416 19.8969 78.1717 20.3187C78.4061 20.7406 78.5233 21.2456 78.5233 21.8337C78.5233 22.5751 78.3315 23.2335 77.948 23.8088C77.5687 24.3841 77.0169 24.8379 76.2924 25.1703C75.5723 25.5027 74.7008 25.6689 73.6781 25.6689C72.698 25.6689 71.85 25.5133 71.1341 25.2023C70.4181 24.8912 69.8578 24.4501 69.4529 23.8791C69.0481 23.3038 68.8244 22.622 68.7818 21.8337H70.7633C70.8017 22.3067 70.9551 22.7008 71.2235 23.0162C71.4963 23.3273 71.8436 23.5595 72.2654 23.7129C72.6916 23.8621 73.1582 23.9366 73.6653 23.9366C74.2235 23.9366 74.72 23.8493 75.1547 23.6746C75.5936 23.4956 75.9387 23.2484 76.1902 22.9331C76.4416 22.6135 76.5673 22.2406 76.5673 21.8145C76.5673 21.4267 76.4565 21.1092 76.2349 20.8621C76.0176 20.6149 75.7214 20.4104 75.3464 20.2484C74.9757 20.0865 74.5559 19.9437 74.0872 19.8202L72.5403 19.3983C71.492 19.1128 70.661 18.693 70.0474 18.1391C69.438 17.5851 69.1333 16.8521 69.1333 15.9402C69.1333 15.1859 69.3379 14.5275 69.747 13.965C70.1561 13.4025 70.71 12.9658 71.4089 12.6547C72.1078 12.3393 72.8961 12.1817 73.774 12.1817C74.6603 12.1817 75.4423 12.3372 76.1199 12.6483C76.8017 12.9594 77.3386 13.3876 77.7306 13.9331C78.1227 14.4743 78.3272 15.0964 78.3443 15.7996H76.4395ZM82.6413 19.622V25.4516H80.7301V12.3606H82.6158V17.2314H82.7372C82.9673 16.703 83.3189 16.2832 83.7919 15.9721C84.2649 15.6611 84.8828 15.5055 85.6456 15.5055C86.3189 15.5055 86.907 15.644 87.4098 15.921C87.9169 16.198 88.3089 16.6114 88.5859 17.1611C88.8672 17.7065 89.0078 18.3883 89.0078 19.2065V25.4516H87.0966V19.4366C87.0966 18.7165 86.9112 18.1582 86.5405 17.7619C86.1697 17.3614 85.6541 17.1611 84.9936 17.1611C84.5419 17.1611 84.1371 17.257 83.7791 17.4487C83.4254 17.6405 83.1463 17.9217 82.9418 18.2925C82.7415 18.6589 82.6413 19.1021 82.6413 19.622ZM94.4155 25.6689C93.7933 25.6689 93.2308 25.5538 92.728 25.3237C92.2251 25.0893 91.8267 24.7506 91.5327 24.3074C91.2429 23.8642 91.098 23.3209 91.098 22.6774C91.098 22.1234 91.2045 21.6675 91.4176 21.3095C91.6307 20.9516 91.9183 20.6682 92.2805 20.4594C92.6428 20.2506 93.0476 20.0929 93.495 19.9864C93.9425 19.8798 94.3984 19.7989 94.8629 19.7435C95.451 19.6753 95.9283 19.6199 96.2947 19.5773C96.6612 19.5304 96.9276 19.4558 97.0938 19.3535C97.2599 19.2513 97.343 19.0851 97.343 18.855V18.8102C97.343 18.252 97.1854 17.8195 96.87 17.5126C96.5589 17.2058 96.0945 17.0524 95.4766 17.0524C94.8331 17.0524 94.326 17.1952 93.9553 17.4807C93.5888 17.7619 93.3352 18.0751 93.1946 18.4203L91.3984 18.0112C91.6115 17.4146 91.9226 16.9331 92.3317 16.5666C92.745 16.1959 93.2202 15.9274 93.7571 15.7612C94.294 15.5908 94.8587 15.5055 95.451 15.5055C95.843 15.5055 96.2585 15.5524 96.6974 15.6462C97.1406 15.7356 97.554 15.9018 97.9375 16.1447C98.3253 16.3876 98.6428 16.7349 98.8899 17.1866C99.1371 17.6341 99.2607 18.2158 99.2607 18.9317V25.4516H97.3942V24.1092H97.3175C97.1939 24.3564 97.0085 24.5993 96.7614 24.8379C96.5142 25.0766 96.1967 25.2747 95.8089 25.4324C95.4212 25.59 94.9567 25.6689 94.4155 25.6689ZM94.831 24.1348C95.3594 24.1348 95.8111 24.0304 96.1861 23.8216C96.5653 23.6128 96.853 23.34 97.049 23.0034C97.2493 22.6625 97.3494 22.2981 97.3494 21.9104V20.6447C97.2813 20.7129 97.1491 20.7768 96.9531 20.8365C96.7614 20.8919 96.5419 20.9409 96.2947 20.9835C96.0476 21.0219 95.8068 21.0581 95.5724 21.0922C95.3381 21.122 95.142 21.1476 94.9844 21.1689C94.6136 21.2158 94.2749 21.2946 93.968 21.4054C93.6655 21.5162 93.4226 21.676 93.2393 21.8848C93.0604 22.0893 92.9709 22.3621 92.9709 22.703C92.9709 23.176 93.1456 23.5339 93.495 23.7768C93.8445 24.0155 94.2898 24.1348 94.831 24.1348ZM101.806 29.1334V15.6334H103.673V17.225H103.833C103.943 17.0204 104.103 16.7839 104.312 16.5155C104.521 16.247 104.811 16.0126 105.181 15.8123C105.552 15.6078 106.042 15.5055 106.651 15.5055C107.444 15.5055 108.151 15.7058 108.774 16.1064C109.396 16.507 109.884 17.0844 110.237 17.8386C110.595 18.5929 110.774 19.5006 110.774 20.5616C110.774 21.6227 110.597 22.5325 110.244 23.291C109.89 24.0453 109.404 24.627 108.786 25.0361C108.169 25.4409 107.463 25.6433 106.671 25.6433C106.074 25.6433 105.586 25.5432 105.207 25.3429C104.832 25.1426 104.538 24.9082 104.325 24.6398C104.112 24.3713 103.948 24.1327 103.833 23.9239H103.718V29.1334H101.806ZM103.679 20.5425C103.679 21.2328 103.779 21.8379 103.98 22.3578C104.18 22.8777 104.47 23.2846 104.849 23.5787C105.228 23.8685 105.693 24.0133 106.242 24.0133C106.813 24.0133 107.291 23.8621 107.674 23.5595C108.058 23.2527 108.347 22.8372 108.544 22.3131C108.744 21.7889 108.844 21.1987 108.844 20.5425C108.844 19.8947 108.746 19.3131 108.55 18.7974C108.358 18.2818 108.068 17.8748 107.681 17.5766C107.297 17.2783 106.818 17.1291 106.242 17.1291C105.688 17.1291 105.22 17.2719 104.836 17.5574C104.457 17.8429 104.169 18.2413 103.973 18.7527C103.777 19.2641 103.679 19.8606 103.679 20.5425ZM117.147 25.6497C116.18 25.6497 115.347 25.443 114.648 25.0297C113.953 24.6121 113.416 24.0261 113.037 23.2719C112.662 22.5133 112.475 21.6248 112.475 20.6064C112.475 19.6007 112.662 18.7143 113.037 17.9473C113.416 17.1802 113.945 16.5815 114.622 16.1511C115.304 15.7207 116.101 15.5055 117.013 15.5055C117.567 15.5055 118.104 15.5971 118.624 15.7804C119.144 15.9636 119.61 16.2513 120.024 16.6433C120.437 17.0354 120.763 17.5446 121.002 18.171C121.24 18.7932 121.36 19.5496 121.36 20.4402V21.1177H113.555V19.6859H119.487C119.487 19.1831 119.384 18.7378 119.18 18.35C118.975 17.9579 118.688 17.649 118.317 17.4231C117.95 17.1973 117.52 17.0844 117.026 17.0844C116.489 17.0844 116.02 17.2165 115.619 17.4807C115.223 17.7406 114.916 18.0815 114.699 18.5034C114.486 18.921 114.379 19.3748 114.379 19.8649V20.9835C114.379 21.6398 114.494 22.198 114.725 22.6582C114.959 23.1185 115.285 23.47 115.703 23.7129C116.12 23.9516 116.608 24.0709 117.166 24.0709C117.529 24.0709 117.859 24.0197 118.157 23.9175C118.455 23.8109 118.713 23.6533 118.931 23.4445C119.148 23.2356 119.314 22.9778 119.429 22.671L121.238 22.997C121.093 23.5297 120.833 23.9963 120.458 24.3969C120.088 24.7932 119.621 25.1021 119.058 25.3237C118.5 25.541 117.863 25.6497 117.147 25.6497Z" fill="#276EFF"/>
<path d="M130.773 15.7996C130.705 15.1945 130.424 14.7257 129.93 14.3933C129.435 14.0567 128.813 13.8883 128.063 13.8883C127.526 13.8883 127.062 13.9736 126.67 14.144C126.278 14.3102 125.973 14.5403 125.756 14.8344C125.543 15.1241 125.436 15.4544 125.436 15.8251C125.436 16.1362 125.509 16.4047 125.653 16.6305C125.803 16.8564 125.996 17.046 126.235 17.1994C126.478 17.3486 126.738 17.4743 127.015 17.5766C127.292 17.6746 127.558 17.7555 127.814 17.8195L129.092 18.1518C129.51 18.2541 129.938 18.3926 130.377 18.5673C130.816 18.742 131.223 18.9721 131.598 19.2577C131.973 19.5432 132.276 19.8969 132.506 20.3187C132.74 20.7406 132.857 21.2456 132.857 21.8337C132.857 22.5751 132.665 23.2335 132.282 23.8088C131.903 24.3841 131.351 24.8379 130.626 25.1703C129.906 25.5027 129.035 25.6689 128.012 25.6689C127.032 25.6689 126.184 25.5133 125.468 25.2023C124.752 24.8912 124.192 24.4501 123.787 23.8791C123.382 23.3038 123.158 22.622 123.116 21.8337H125.097C125.136 22.3067 125.289 22.7008 125.558 23.0162C125.83 23.3273 126.178 23.5595 126.599 23.7129C127.026 23.8621 127.492 23.9366 127.999 23.9366C128.558 23.9366 129.054 23.8493 129.489 23.6746C129.928 23.4956 130.273 23.2484 130.524 22.9331C130.776 22.6135 130.901 22.2406 130.901 21.8145C130.901 21.4267 130.79 21.1092 130.569 20.8621C130.352 20.6149 130.055 20.4104 129.68 20.2484C129.31 20.0865 128.89 19.9437 128.421 19.8202L126.874 19.3983C125.826 19.1128 124.995 18.693 124.381 18.1391C123.772 17.5851 123.467 16.8521 123.467 15.9402C123.467 15.1859 123.672 14.5275 124.081 13.965C124.49 13.4025 125.044 12.9658 125.743 12.6547C126.442 12.3393 127.23 12.1817 128.108 12.1817C128.994 12.1817 129.776 12.3372 130.454 12.6483C131.136 12.9594 131.673 13.3876 132.065 13.9331C132.457 14.4743 132.661 15.0964 132.678 15.7996H130.773ZM135.064 25.4516V15.6334H136.975V25.4516H135.064ZM136.029 14.1185C135.697 14.1185 135.411 14.0077 135.173 13.7861C134.938 13.5602 134.821 13.2918 134.821 12.9807C134.821 12.6653 134.938 12.3969 135.173 12.1753C135.411 11.9494 135.697 11.8365 136.029 11.8365C136.362 11.8365 136.645 11.9494 136.879 12.1753C137.118 12.3969 137.237 12.6653 137.237 12.9807C137.237 13.2918 137.118 13.5602 136.879 13.7861C136.645 14.0077 136.362 14.1185 136.029 14.1185ZM143.222 25.6433C142.429 25.6433 141.722 25.4409 141.1 25.0361C140.482 24.627 139.996 24.0453 139.642 23.291C139.293 22.5325 139.118 21.6227 139.118 20.5616C139.118 19.5006 139.295 18.5929 139.649 17.8386C140.007 17.0844 140.497 16.507 141.119 16.1064C141.741 15.7058 142.446 15.5055 143.235 15.5055C143.844 15.5055 144.334 15.6078 144.705 15.8123C145.08 16.0126 145.37 16.247 145.574 16.5155C145.783 16.7839 145.945 17.0204 146.06 17.225H146.175V12.3606H148.086V25.4516H146.22V23.9239H146.06C145.945 24.1327 145.779 24.3713 145.561 24.6398C145.348 24.9082 145.054 25.1426 144.679 25.3429C144.304 25.5432 143.819 25.6433 143.222 25.6433ZM143.644 24.0133C144.194 24.0133 144.658 23.8685 145.037 23.5787C145.421 23.2846 145.711 22.8777 145.907 22.3578C146.107 21.8379 146.207 21.2328 146.207 20.5425C146.207 19.8606 146.109 19.2641 145.913 18.7527C145.717 18.2413 145.429 17.8429 145.05 17.5574C144.671 17.2719 144.202 17.1291 143.644 17.1291C143.069 17.1291 142.589 17.2783 142.206 17.5766C141.822 17.8748 141.532 18.2818 141.336 18.7974C141.145 19.3131 141.049 19.8947 141.049 20.5425C141.049 21.1987 141.147 21.7889 141.343 22.3131C141.539 22.8372 141.828 23.2527 142.212 23.5595C142.6 23.8621 143.077 24.0133 143.644 24.0133ZM155.046 25.6497C154.078 25.6497 153.245 25.443 152.546 25.0297C151.852 24.6121 151.315 24.0261 150.936 23.2719C150.561 22.5133 150.373 21.6248 150.373 20.6064C150.373 19.6007 150.561 18.7143 150.936 17.9473C151.315 17.1802 151.843 16.5815 152.521 16.1511C153.203 15.7207 153.999 15.5055 154.911 15.5055C155.465 15.5055 156.002 15.5971 156.522 15.7804C157.042 15.9636 157.509 16.2513 157.922 16.6433C158.335 17.0354 158.661 17.5446 158.9 18.171C159.139 18.7932 159.258 19.5496 159.258 20.4402V21.1177H151.453V19.6859H157.385C157.385 19.1831 157.283 18.7378 157.078 18.35C156.874 17.9579 156.586 17.649 156.215 17.4231C155.849 17.1973 155.419 17.0844 154.924 17.0844C154.387 17.0844 153.919 17.2165 153.518 17.4807C153.122 17.7406 152.815 18.0815 152.597 18.5034C152.384 18.921 152.278 19.3748 152.278 19.8649V20.9835C152.278 21.6398 152.393 22.198 152.623 22.6582C152.857 23.1185 153.183 23.47 153.601 23.7129C154.019 23.9516 154.507 24.0709 155.065 24.0709C155.427 24.0709 155.757 24.0197 156.056 23.9175C156.354 23.8109 156.612 23.6533 156.829 23.4445C157.046 23.2356 157.213 22.9778 157.328 22.671L159.137 22.997C158.992 23.5297 158.732 23.9963 158.357 24.3969C157.986 24.7932 157.519 25.1021 156.957 25.3237C156.399 25.541 155.762 25.6497 155.046 25.6497ZM161.379 25.4516V15.6334H163.226V17.193H163.328C163.507 16.6646 163.822 16.2491 164.274 15.9466C164.73 15.6398 165.246 15.4864 165.821 15.4864C165.94 15.4864 166.081 15.4906 166.243 15.4991C166.409 15.5077 166.539 15.5183 166.633 15.5311V17.3592C166.556 17.3379 166.42 17.3145 166.224 17.2889C166.028 17.2591 165.832 17.2442 165.636 17.2442C165.184 17.2442 164.781 17.34 164.428 17.5318C164.078 17.7193 163.801 17.9814 163.597 18.318C163.392 18.6504 163.29 19.0297 163.29 19.4558V25.4516H161.379Z" fill="#272D37"/>
<path d="M69.114 41.4516H68.006L71.2106 32.7243H72.3015L75.506 41.4516H74.3981L71.7901 34.105H71.7219L69.114 41.4516ZM69.5231 38.0425H73.989V38.98H69.5231V38.0425ZM79.2006 41.5879C78.6552 41.5879 78.1737 41.4501 77.756 41.1746C77.3384 40.8962 77.0117 40.5041 76.7759 39.9984C76.5401 39.4899 76.4222 38.8891 76.4222 38.1959C76.4222 37.5084 76.5401 36.9118 76.7759 36.4061C77.0117 35.9004 77.3398 35.5098 77.7603 35.2342C78.1808 34.9587 78.6665 34.8209 79.2177 34.8209C79.6438 34.8209 79.9805 34.8919 80.2276 35.0339C80.4776 35.1731 80.668 35.3322 80.7987 35.5112C80.9322 35.6873 81.0359 35.8322 81.1097 35.9459H81.195V32.7243H82.2006V41.4516H81.229V40.4459H81.1097C81.0359 40.5652 80.9308 40.7158 80.7944 40.8976C80.658 41.0766 80.4634 41.2371 80.2106 41.3791C79.9577 41.5183 79.6211 41.5879 79.2006 41.5879ZM79.337 40.6845C79.7404 40.6845 80.0813 40.5794 80.3597 40.3692C80.6381 40.1561 80.8498 39.8621 80.9947 39.4871C81.1396 39.1092 81.212 38.6731 81.212 38.1788C81.212 37.6902 81.141 37.2626 80.9989 36.8962C80.8569 36.5268 80.6467 36.2399 80.3683 36.0354C80.0898 35.828 79.7461 35.7243 79.337 35.7243C78.9109 35.7243 78.5558 35.8337 78.2717 36.0524C77.9904 36.2683 77.7788 36.5623 77.6367 36.9345C77.4975 37.3038 77.4279 37.7186 77.4279 38.1788C77.4279 38.6447 77.4989 39.068 77.641 39.4487C77.7859 39.8266 77.9989 40.1277 78.2802 40.3521C78.5643 40.5737 78.9165 40.6845 79.337 40.6845ZM84.1822 41.4516V34.9061H85.1538V35.9288H85.239C85.3754 35.5794 85.5955 35.3081 85.8995 35.1149C86.2035 34.9189 86.5685 34.8209 86.9947 34.8209C87.4265 34.8209 87.7859 34.9189 88.0728 35.1149C88.3626 35.3081 88.5884 35.5794 88.7504 35.9288H88.8185C88.9862 35.5908 89.2376 35.3223 89.5728 35.1234C89.908 34.9217 90.31 34.8209 90.7788 34.8209C91.364 34.8209 91.8427 35.0041 92.2148 35.3706C92.587 35.7342 92.7731 36.301 92.7731 37.0709V41.4516H91.7674V37.0709C91.7674 36.5879 91.6353 36.2427 91.3711 36.0354C91.1069 35.828 90.7958 35.7243 90.4379 35.7243C89.9776 35.7243 89.6211 35.8635 89.3683 36.1419C89.1154 36.4175 88.989 36.7669 88.989 37.1902V41.4516H87.9663V36.9686C87.9663 36.5964 87.8455 36.2967 87.604 36.0695C87.3626 35.8393 87.0515 35.7243 86.6708 35.7243C86.4094 35.7243 86.1651 35.7939 85.9379 35.9331C85.7134 36.0723 85.5316 36.2655 85.3924 36.5126C85.256 36.757 85.1879 37.0396 85.1879 37.3606V41.4516H84.1822ZM94.6119 41.4516V34.9061H95.6175V41.4516H94.6119ZM95.1232 33.8152C94.9272 33.8152 94.7582 33.7484 94.6161 33.6149C94.4769 33.4814 94.4073 33.3209 94.4073 33.1334C94.4073 32.9459 94.4769 32.7854 94.6161 32.6518C94.7582 32.5183 94.9272 32.4516 95.1232 32.4516C95.3192 32.4516 95.4869 32.5183 95.6261 32.6518C95.7681 32.7854 95.8391 32.9459 95.8391 33.1334C95.8391 33.3209 95.7681 33.4814 95.6261 33.6149C95.4869 33.7484 95.3192 33.8152 95.1232 33.8152ZM98.4652 37.5141V41.4516H97.4595V34.9061H98.4311V35.9288H98.5163C98.6697 35.5964 98.9027 35.3294 99.2152 35.1277C99.5277 34.9231 99.9311 34.8209 100.425 34.8209C100.869 34.8209 101.256 34.9118 101.589 35.0936C101.921 35.2726 102.18 35.5453 102.364 35.9118C102.549 36.2754 102.641 36.7356 102.641 37.2925V41.4516H101.636V37.3606C101.636 36.8464 101.502 36.4459 101.235 36.1589C100.968 35.8692 100.602 35.7243 100.136 35.7243C99.8146 35.7243 99.5277 35.7939 99.2749 35.9331C99.0249 36.0723 98.8274 36.2754 98.6825 36.5425C98.5376 36.8095 98.4652 37.1334 98.4652 37.5141ZM107.99 41.4516V32.7243H110.939C111.624 32.7243 112.184 32.8479 112.618 33.095C113.056 33.3393 113.38 33.6703 113.59 34.0879C113.8 34.5055 113.905 34.9714 113.905 35.4856C113.905 35.9998 113.8 36.4672 113.59 36.8876C113.382 37.3081 113.061 37.6433 112.627 37.8933C112.192 38.1405 111.635 38.2641 110.956 38.2641H108.843V37.3266H110.922C111.391 37.3266 111.767 37.2456 112.051 37.0837C112.336 36.9217 112.542 36.703 112.669 36.4274C112.8 36.149 112.865 35.8351 112.865 35.4856C112.865 35.1362 112.8 34.8237 112.669 34.5481C112.542 34.2726 112.334 34.0567 112.047 33.9004C111.76 33.7413 111.38 33.6618 110.905 33.6618H109.047V41.4516H107.99ZM117.397 41.605C116.983 41.605 116.606 41.5268 116.268 41.3706C115.93 41.2115 115.662 40.9828 115.463 40.6845C115.264 40.3834 115.164 40.0197 115.164 39.5936C115.164 39.2186 115.238 38.9146 115.386 38.6817C115.534 38.4459 115.731 38.2612 115.978 38.1277C116.225 37.9942 116.498 37.8947 116.797 37.8294C117.098 37.7612 117.4 37.7072 117.704 37.6675C118.102 37.6163 118.424 37.578 118.672 37.5524C118.922 37.524 119.103 37.4771 119.217 37.4118C119.333 37.3464 119.392 37.2328 119.392 37.0709V37.0368C119.392 36.6163 119.277 36.2896 119.047 36.0567C118.819 35.8237 118.474 35.7072 118.011 35.7072C117.531 35.7072 117.154 35.8123 116.882 36.0226C116.609 36.2328 116.417 36.4572 116.306 36.6959L115.352 36.355C115.522 35.9572 115.75 35.6476 116.034 35.426C116.321 35.2016 116.633 35.0453 116.971 34.9572C117.312 34.8663 117.647 34.8209 117.977 34.8209C118.187 34.8209 118.429 34.8464 118.701 34.8976C118.977 34.9459 119.243 35.0467 119.498 35.2001C119.757 35.3535 119.971 35.5851 120.142 35.8947C120.312 36.2044 120.397 36.6192 120.397 37.1391V41.4516H119.392V40.5652H119.341C119.272 40.7072 119.159 40.8592 119 41.0212C118.841 41.1831 118.629 41.3209 118.365 41.4345C118.1 41.5481 117.778 41.605 117.397 41.605ZM117.551 40.7016C117.949 40.7016 118.284 40.6234 118.556 40.4672C118.832 40.3109 119.039 40.1092 119.179 39.8621C119.321 39.6149 119.392 39.355 119.392 39.0822V38.1618C119.349 38.2129 119.255 38.2598 119.11 38.3024C118.968 38.3422 118.804 38.3777 118.616 38.4089C118.431 38.4373 118.251 38.4629 118.075 38.4856C117.902 38.5055 117.761 38.5226 117.653 38.5368C117.392 38.5709 117.147 38.6263 116.92 38.703C116.696 38.7768 116.514 38.8891 116.375 39.0396C116.238 39.1873 116.17 39.3891 116.17 39.6447C116.17 39.9942 116.299 40.2584 116.558 40.4373C116.819 40.6135 117.15 40.7016 117.551 40.7016ZM123.239 37.5141V41.4516H122.233V34.9061H123.205V35.9288H123.29C123.443 35.5964 123.676 35.3294 123.989 35.1277C124.301 34.9231 124.705 34.8209 125.199 34.8209C125.642 34.8209 126.03 34.9118 126.362 35.0936C126.695 35.2726 126.953 35.5453 127.138 35.9118C127.322 36.2754 127.415 36.7356 127.415 37.2925V41.4516H126.409V37.3606C126.409 36.8464 126.276 36.4459 126.009 36.1589C125.741 35.8692 125.375 35.7243 124.909 35.7243C124.588 35.7243 124.301 35.7939 124.048 35.9331C123.798 36.0723 123.601 36.2754 123.456 36.5425C123.311 36.8095 123.239 37.1334 123.239 37.5141ZM131.997 41.5879C131.366 41.5879 130.822 41.4487 130.365 41.1703C129.91 40.8891 129.559 40.497 129.312 39.9942C129.068 39.4885 128.946 38.9004 128.946 38.23C128.946 37.5595 129.068 36.9686 129.312 36.4572C129.559 35.943 129.903 35.5425 130.343 35.2555C130.787 34.9658 131.304 34.8209 131.895 34.8209C132.235 34.8209 132.572 34.8777 132.904 34.9913C133.237 35.105 133.539 35.2896 133.812 35.5453C134.085 35.7981 134.302 36.1334 134.464 36.551C134.626 36.9686 134.707 37.4828 134.707 38.0936V38.5197H129.662V37.6504H133.684C133.684 37.2811 133.61 36.9516 133.463 36.6618C133.318 36.372 133.11 36.1433 132.841 35.9757C132.574 35.8081 132.258 35.7243 131.895 35.7243C131.494 35.7243 131.147 35.8237 130.855 36.0226C130.565 36.2186 130.342 36.4743 130.186 36.7896C130.029 37.105 129.951 37.443 129.951 37.8038V38.3834C129.951 38.8777 130.037 39.2967 130.207 39.6405C130.38 39.9814 130.62 40.2413 130.927 40.4203C131.234 40.5964 131.591 40.6845 131.997 40.6845C132.261 40.6845 132.5 40.6476 132.713 40.5737C132.929 40.497 133.115 40.3834 133.271 40.2328C133.427 40.0794 133.548 39.8891 133.633 39.6618L134.605 39.9345C134.502 40.2641 134.331 40.5538 134.089 40.8038C133.848 41.051 133.549 41.2442 133.194 41.3834C132.839 41.5197 132.44 41.5879 131.997 41.5879ZM137.243 32.7243V41.4516H136.237V32.7243H137.243Z" fill="#272D37"/>
</svg>
