<svg width="100" height="95" viewBox="0 0 100 95" fill="none" xmlns="http://www.w3.org/2000/svg">
<path fill-rule="evenodd" clip-rule="evenodd" d="M70.5384 0.524671C71.9056 1.46052 72.2553 3.32754 71.3195 4.69479C68.9593 8.14302 65.5048 9.82659 61.9022 10.6689C58.3755 11.4935 54.4091 11.5781 50.7104 11.6181C50.3901 11.6216 50.0714 11.6247 49.7544 11.6278C46.2819 11.6619 43.0125 11.6941 39.9927 12.1468C36.7305 12.6358 34.0951 13.5761 32.1097 15.278C29.2187 17.7562 28.0742 20.9289 28.5022 23.4326C28.8926 25.7161 30.7679 28.3597 36.0216 29.5778C37.6878 29.9642 40.7336 30.0083 44.6951 29.697C48.5502 29.3941 52.951 28.7843 57.1353 28.0459C58.767 27.758 60.3231 28.8473 60.611 30.4789C60.899 32.1106 59.8097 33.6667 58.1781 33.9546C53.8624 34.7162 49.2633 35.3565 45.1652 35.6786C41.1735 35.9923 37.3129 36.0364 34.6663 35.4228C27.7048 33.8086 23.4871 29.7022 22.588 24.4438C21.7267 19.4055 24.0964 14.2444 28.2048 10.7226C31.3827 7.99847 35.2664 6.78828 39.1031 6.21309C42.5611 5.69468 46.2525 5.6601 49.6398 5.62838C49.9782 5.62521 50.3136 5.62207 50.6454 5.61848C54.4291 5.57752 57.749 5.47812 60.5362 4.82645C63.2477 4.19249 65.135 3.10755 66.3683 1.30579C67.3041 -0.0614592 69.1711 -0.411176 70.5384 0.524671Z" fill="#276EFF"/>
<path fill-rule="evenodd" clip-rule="evenodd" d="M29.4636 51.3784C28.0963 50.4426 27.7466 48.5755 28.6825 47.2083C31.0427 43.7601 34.4972 42.0765 38.0997 41.2342C41.6265 40.4096 45.5929 40.325 49.2916 40.2849C49.6119 40.2815 49.9305 40.2784 50.2475 40.2752C53.72 40.2411 56.9895 40.209 60.0093 39.7563C63.2714 39.2672 65.9069 38.3269 67.8922 36.6251C70.7832 34.1469 71.9278 30.9741 71.4997 28.4704C71.1093 26.187 69.234 23.5434 63.9804 22.3253C62.3141 21.9389 59.2683 21.8948 55.3068 22.2061C51.4518 22.509 47.0509 23.1187 42.8666 23.8571C41.235 24.1451 39.6788 23.0558 39.3909 21.4241C39.103 19.7925 40.1923 18.2364 41.8239 17.9484C46.1396 17.1869 50.7387 16.5466 54.8368 16.2245C58.8284 15.9108 62.689 15.8667 65.3356 16.4803C72.2971 18.0944 76.5149 22.2008 77.4139 27.4593C78.2753 32.4976 75.9056 37.6587 71.7971 41.1805C68.6192 43.9046 64.7356 45.1148 60.8989 45.69C57.4409 46.2084 53.7494 46.243 50.3621 46.2747C50.0237 46.2779 49.6883 46.281 49.3565 46.2846C45.5728 46.3256 42.2529 46.425 39.4657 47.0766C36.7542 47.7106 34.867 48.7955 33.6337 50.5973C32.6978 51.9645 30.8308 52.3143 29.4636 51.3784Z" fill="#272D37"/>
<path d="M9.00781 66.2511C8.93963 65.646 8.65838 65.1772 8.16406 64.8448C7.66974 64.5082 7.04759 64.3399 6.29759 64.3399C5.76065 64.3399 5.29616 64.4251 4.90412 64.5955C4.51207 64.7617 4.20739 64.9919 3.99006 65.2859C3.77699 65.5757 3.67045 65.9059 3.67045 66.2767C3.67045 66.5877 3.7429 66.8562 3.88778 67.0821C4.03693 67.3079 4.23082 67.4975 4.46946 67.6509C4.71236 67.8001 4.9723 67.9258 5.24929 68.0281C5.52628 68.1261 5.79261 68.2071 6.0483 68.271L7.3267 68.6034C7.74432 68.7056 8.17259 68.8441 8.61151 69.0188C9.05043 69.1936 9.45739 69.4237 9.83239 69.7092C10.2074 69.9947 10.5099 70.3484 10.7401 70.7703C10.9744 71.1921 11.0916 71.6971 11.0916 72.2852C11.0916 73.0267 10.8999 73.685 10.5163 74.2603C10.1371 74.8356 9.58523 75.2894 8.8608 75.6218C8.14063 75.9542 7.26918 76.1204 6.24645 76.1204C5.26634 76.1204 4.41832 75.9649 3.70241 75.6538C2.98651 75.3427 2.42614 74.9017 2.02131 74.3306C1.61648 73.7553 1.39276 73.0735 1.35014 72.2852H3.33168C3.37003 72.7582 3.52344 73.1524 3.7919 73.4677C4.06463 73.7788 4.41193 74.011 4.83381 74.1644C5.25994 74.3136 5.72656 74.3882 6.23366 74.3882C6.7919 74.3882 7.28835 74.3008 7.72301 74.1261C8.16193 73.9471 8.5071 73.7 8.75852 73.3846C9.00994 73.065 9.13565 72.6921 9.13565 72.266C9.13565 71.8782 9.02486 71.5607 8.80327 71.3136C8.58594 71.0664 8.28977 70.8619 7.91477 70.7C7.54403 70.538 7.12429 70.3953 6.65554 70.2717L5.10866 69.8498C4.06037 69.5643 3.2294 69.1446 2.61577 68.5906C2.00639 68.0366 1.7017 67.3036 1.7017 66.3917C1.7017 65.6375 1.90625 64.9791 2.31534 64.4166C2.72443 63.8541 3.27841 63.4173 3.97727 63.1062C4.67614 62.7909 5.46449 62.6332 6.34233 62.6332C7.22869 62.6332 8.01065 62.7887 8.68821 63.0998C9.37003 63.4109 9.90696 63.8392 10.299 64.3846C10.6911 64.9258 10.8956 65.548 10.9126 66.2511H9.00781ZM15.2097 70.0735V75.9031H13.2985V62.8122H15.1841V67.6829H15.3056C15.5357 67.1545 15.8873 66.7348 16.3603 66.4237C16.8333 66.1126 17.4512 65.9571 18.214 65.9571C18.8873 65.9571 19.4753 66.0955 19.9782 66.3725C20.4853 66.6495 20.8773 67.0629 21.1543 67.6126C21.4355 68.158 21.5762 68.8399 21.5762 69.658V75.9031H19.665V69.8882C19.665 69.168 19.4796 68.6098 19.1088 68.2134C18.7381 67.8129 18.2225 67.6126 17.562 67.6126C17.1103 67.6126 16.7054 67.7085 16.3475 67.9002C15.9938 68.092 15.7147 68.3732 15.5101 68.744C15.3098 69.1105 15.2097 69.5536 15.2097 70.0735ZM26.9838 76.1204C26.3617 76.1204 25.7992 76.0053 25.2963 75.7752C24.7935 75.5409 24.3951 75.2021 24.101 74.7589C23.8113 74.3157 23.6664 73.7724 23.6664 73.1289C23.6664 72.575 23.7729 72.119 23.986 71.761C24.199 71.4031 24.4867 71.1197 24.8489 70.9109C25.2111 70.7021 25.6159 70.5444 26.0634 70.4379C26.5108 70.3313 26.9668 70.2504 27.4313 70.195C28.0194 70.1268 28.4966 70.0714 28.8631 70.0288C29.2296 69.9819 29.4959 69.9073 29.6621 69.8051C29.8283 69.7028 29.9114 69.5366 29.9114 69.3065V69.2617C29.9114 68.7035 29.7537 68.271 29.4384 67.9642C29.1273 67.6573 28.6628 67.5039 28.0449 67.5039C27.4015 67.5039 26.8944 67.6467 26.5236 67.9322C26.1571 68.2134 25.9036 68.5267 25.763 68.8718L23.9668 68.4627C24.1799 67.8661 24.4909 67.3846 24.9 67.0181C25.3134 66.6474 25.7885 66.3789 26.3255 66.2127C26.8624 66.0423 27.427 65.9571 28.0194 65.9571C28.4114 65.9571 28.8269 66.0039 29.2658 66.0977C29.709 66.1872 30.1223 66.3534 30.5059 66.5963C30.8936 66.8392 31.2111 67.1865 31.4583 67.6382C31.7054 68.0856 31.829 68.6673 31.829 69.3832V75.9031H29.9625V74.5607H29.8858C29.7623 74.8079 29.5769 75.0508 29.3297 75.2894C29.0826 75.5281 28.7651 75.7262 28.3773 75.8839C27.9895 76.0416 27.525 76.1204 26.9838 76.1204ZM27.3993 74.5863C27.9277 74.5863 28.3794 74.4819 28.7544 74.2731C29.1337 74.0643 29.4213 73.7916 29.6174 73.4549C29.8176 73.114 29.9178 72.7497 29.9178 72.3619V71.0963C29.8496 71.1644 29.7175 71.2284 29.5215 71.288C29.3297 71.3434 29.1103 71.3924 28.8631 71.435C28.6159 71.4734 28.3752 71.5096 28.1408 71.5437C27.9064 71.5735 27.7104 71.5991 27.5527 71.6204C27.182 71.6673 26.8432 71.7461 26.5364 71.8569C26.2338 71.9677 25.9909 72.1275 25.8077 72.3363C25.6287 72.5409 25.5392 72.8136 25.5392 73.1545C25.5392 73.6275 25.714 73.9855 26.0634 74.2284C26.4128 74.467 26.8581 74.5863 27.3993 74.5863ZM34.3746 79.5849V66.0849H36.2411V67.6765H36.4009C36.5117 67.472 36.6715 67.2355 36.8803 66.967C37.0891 66.6985 37.3789 66.4642 37.7496 66.2639C38.1204 66.0593 38.6104 65.9571 39.2198 65.9571C40.0124 65.9571 40.7198 66.1573 41.342 66.5579C41.9641 66.9585 42.4521 67.5359 42.8058 68.2901C43.1637 69.0444 43.3427 69.9521 43.3427 71.0132C43.3427 72.0742 43.1658 72.984 42.8121 73.7426C42.4585 74.4968 41.9727 75.0785 41.3548 75.4876C40.7369 75.8924 40.0316 76.0948 39.239 76.0948C38.6424 76.0948 38.1545 75.9947 37.7752 75.7944C37.4002 75.5941 37.1062 75.3598 36.8931 75.0913C36.68 74.8228 36.516 74.5842 36.4009 74.3754H36.2859V79.5849H34.3746ZM36.2475 70.994C36.2475 71.6843 36.3477 72.2894 36.5479 72.8093C36.7482 73.3292 37.038 73.7362 37.4173 74.0302C37.7965 74.32 38.261 74.4649 38.8107 74.4649C39.3817 74.4649 39.859 74.3136 40.2425 74.011C40.6261 73.7042 40.9158 73.2887 41.1119 72.7646C41.3121 72.2404 41.4123 71.6502 41.4123 70.994C41.4123 70.3463 41.3143 69.7646 41.1183 69.249C40.9265 68.7333 40.6367 68.3264 40.2489 68.0281C39.8654 67.7298 39.386 67.5806 38.8107 67.5806C38.2567 67.5806 37.788 67.7234 37.4045 68.0089C37.0252 68.2944 36.7376 68.6928 36.5415 69.2042C36.3455 69.7156 36.2475 70.3122 36.2475 70.994ZM49.7156 76.1012C48.7482 76.1012 47.9151 75.8946 47.2163 75.4812C46.5217 75.0636 45.9847 74.4777 45.6055 73.7234C45.2305 72.9649 45.043 72.0764 45.043 71.0579C45.043 70.0522 45.2305 69.1659 45.6055 68.3988C45.9847 67.6318 46.5131 67.033 47.1907 66.6026C47.8725 66.1723 48.6694 65.9571 49.5813 65.9571C50.1353 65.9571 50.6722 66.0487 51.1921 66.2319C51.712 66.4151 52.1786 66.7028 52.592 67.0948C53.0053 67.4869 53.3313 67.9961 53.57 68.6225C53.8086 69.2447 53.9279 70.0011 53.9279 70.8917V71.5693H46.1232V70.1375H52.055C52.055 69.6346 51.9528 69.1893 51.7482 68.8015C51.5437 68.4095 51.256 68.1005 50.8853 67.8747C50.5188 67.6488 50.0884 67.5359 49.5941 67.5359C49.0572 67.5359 48.5884 67.668 48.1879 67.9322C47.7915 68.1921 47.4847 68.533 47.2674 68.9549C47.0543 69.3725 46.9478 69.8264 46.9478 70.3164V71.435C46.9478 72.0913 47.0629 72.6495 47.293 73.1098C47.5273 73.57 47.8533 73.9215 48.271 74.1644C48.6886 74.4031 49.1765 74.5224 49.7347 74.5224C50.0969 74.5224 50.4272 74.4713 50.7255 74.369C51.0238 74.2625 51.2816 74.1048 51.4989 73.896C51.7163 73.6872 51.8825 73.4294 51.9975 73.1225L53.8065 73.4485C53.6616 73.9812 53.4016 74.4478 53.0266 74.8484C52.6559 75.2447 52.1893 75.5536 51.6268 75.7752C51.0685 75.9926 50.4315 76.1012 49.7156 76.1012Z" fill="#276EFF"/>
<path d="M63.3418 66.2511C63.2736 65.646 62.9924 65.1772 62.498 64.8448C62.0037 64.5082 61.3816 64.3399 60.6316 64.3399C60.0946 64.3399 59.6301 64.4251 59.2381 64.5955C58.8461 64.7617 58.5414 64.9919 58.324 65.2859C58.111 65.5757 58.0044 65.9059 58.0044 66.2767C58.0044 66.5877 58.0769 66.8562 58.2218 67.0821C58.3709 67.3079 58.5648 67.4975 58.8034 67.6509C59.0463 67.8001 59.3063 67.9258 59.5833 68.0281C59.8603 68.1261 60.1266 68.2071 60.3823 68.271L61.6607 68.6034C62.0783 68.7056 62.5066 68.8441 62.9455 69.0188C63.3844 69.1936 63.7914 69.4237 64.1664 69.7092C64.5414 69.9947 64.8439 70.3484 65.074 70.7703C65.3084 71.1921 65.4256 71.6971 65.4256 72.2852C65.4256 73.0267 65.2338 73.685 64.8503 74.2603C64.4711 74.8356 63.9192 75.2894 63.1948 75.6218C62.4746 75.9542 61.6032 76.1204 60.5804 76.1204C59.6003 76.1204 58.7523 75.9649 58.0364 75.6538C57.3205 75.3427 56.7601 74.9017 56.3553 74.3306C55.9505 73.7553 55.7267 73.0735 55.6841 72.2852H57.6657C57.704 72.7582 57.8574 73.1524 58.1259 73.4677C58.3986 73.7788 58.7459 74.011 59.1678 74.1644C59.5939 74.3136 60.0605 74.3882 60.5676 74.3882C61.1259 74.3882 61.6223 74.3008 62.057 74.1261C62.4959 73.9471 62.8411 73.7 63.0925 73.3846C63.3439 73.065 63.4696 72.6921 63.4696 72.266C63.4696 71.8782 63.3588 71.5607 63.1373 71.3136C62.9199 71.0664 62.6238 70.8619 62.2488 70.7C61.878 70.538 61.4583 70.3953 60.9895 70.2717L59.4426 69.8498C58.3944 69.5643 57.5634 69.1446 56.9498 68.5906C56.3404 68.0366 56.0357 67.3036 56.0357 66.3917C56.0357 65.6375 56.2402 64.9791 56.6493 64.4166C57.0584 63.8541 57.6124 63.4173 58.3113 63.1062C59.0101 62.7909 59.7985 62.6332 60.6763 62.6332C61.5627 62.6332 62.3446 62.7887 63.0222 63.0998C63.704 63.4109 64.2409 63.8392 64.633 64.3846C65.025 64.9258 65.2296 65.548 65.2466 66.2511H63.3418ZM67.6325 75.9031V66.0849H69.5437V75.9031H67.6325ZM68.5977 64.57C68.2653 64.57 67.9798 64.4592 67.7411 64.2376C67.5067 64.0117 67.3896 63.7433 67.3896 63.4322C67.3896 63.1169 67.5067 62.8484 67.7411 62.6268C67.9798 62.4009 68.2653 62.288 68.5977 62.288C68.93 62.288 69.2134 62.4009 69.4478 62.6268C69.6864 62.8484 69.8058 63.1169 69.8058 63.4322C69.8058 63.7433 69.6864 64.0117 69.4478 64.2376C69.2134 64.4592 68.93 64.57 68.5977 64.57ZM75.7903 76.0948C74.9977 76.0948 74.2903 75.8924 73.6681 75.4876C73.0502 75.0785 72.5645 74.4968 72.2108 73.7426C71.8613 72.984 71.6866 72.0742 71.6866 71.0132C71.6866 69.9521 71.8635 69.0444 72.2172 68.2901C72.5751 67.5359 73.0652 66.9585 73.6873 66.5579C74.3095 66.1573 75.0147 65.9571 75.8031 65.9571C76.4125 65.9571 76.9025 66.0593 77.2733 66.2639C77.6483 66.4642 77.938 66.6985 78.1426 66.967C78.3514 67.2355 78.5133 67.472 78.6284 67.6765H78.7434V62.8122H80.6547V75.9031H78.7882V74.3754H78.6284C78.5133 74.5842 78.3471 74.8228 78.1298 75.0913C77.9167 75.3598 77.6227 75.5941 77.2477 75.7944C76.8727 75.9947 76.3869 76.0948 75.7903 76.0948ZM76.2122 74.4649C76.7619 74.4649 77.2264 74.32 77.6056 74.0302C77.9892 73.7362 78.2789 73.3292 78.475 72.8093C78.6752 72.2894 78.7754 71.6843 78.7754 70.994C78.7754 70.3122 78.6774 69.7156 78.4814 69.2042C78.2853 68.6928 77.9977 68.2944 77.6184 68.0089C77.2392 67.7234 76.7704 67.5806 76.2122 67.5806C75.6369 67.5806 75.1575 67.7298 74.774 68.0281C74.3904 68.3264 74.1007 68.7333 73.9047 69.249C73.7129 69.7646 73.617 70.3463 73.617 70.994C73.617 71.6502 73.715 72.2404 73.911 72.7646C74.1071 73.2887 74.3968 73.7042 74.7804 74.011C75.1681 74.3136 75.6454 74.4649 76.2122 74.4649ZM87.614 76.1012C86.6467 76.1012 85.8136 75.8946 85.1147 75.4812C84.4201 75.0636 83.8832 74.4777 83.5039 73.7234C83.1289 72.9649 82.9414 72.0764 82.9414 71.0579C82.9414 70.0522 83.1289 69.1659 83.5039 68.3988C83.8832 67.6318 84.4116 67.033 85.0891 66.6026C85.771 66.1723 86.5678 65.9571 87.4798 65.9571C88.0337 65.9571 88.5707 66.0487 89.0906 66.2319C89.6104 66.4151 90.0771 66.7028 90.4904 67.0948C90.9038 67.4869 91.2298 67.9961 91.4684 68.6225C91.707 69.2447 91.8264 70.0011 91.8264 70.8917V71.5693H84.0217V70.1375H89.9535C89.9535 69.6346 89.8512 69.1893 89.6467 68.8015C89.4421 68.4095 89.1545 68.1005 88.7837 67.8747C88.4173 67.6488 87.9869 67.5359 87.4925 67.5359C86.9556 67.5359 86.4869 67.668 86.0863 67.9322C85.69 68.1921 85.3832 68.533 85.1658 68.9549C84.9528 69.3725 84.8462 69.8264 84.8462 70.3164V71.435C84.8462 72.0913 84.9613 72.6495 85.1914 73.1098C85.4258 73.57 85.7518 73.9215 86.1694 74.1644C86.587 74.4031 87.0749 74.5224 87.6332 74.5224C87.9954 74.5224 88.3256 74.4713 88.6239 74.369C88.9222 74.2625 89.18 74.1048 89.3974 73.896C89.6147 73.6872 89.7809 73.4294 89.896 73.1225L91.7049 73.4485C91.56 73.9812 91.3001 74.4478 90.9251 74.8484C90.5543 75.2447 90.0877 75.5536 89.5252 75.7752C88.967 75.9926 88.3299 76.1012 87.614 76.1012ZM93.9469 75.9031V66.0849H95.7942V67.6446H95.8965C96.0755 67.1161 96.3908 66.7007 96.8425 66.3981C97.2985 66.0913 97.8141 65.9379 98.3894 65.9379C98.5087 65.9379 98.6493 65.9421 98.8113 65.9507C98.9775 65.9592 99.1074 65.9698 99.2012 65.9826V67.8107C99.1245 67.7894 98.9881 67.766 98.7921 67.7404C98.5961 67.7106 98.4 67.6957 98.204 67.6957C97.7523 67.6957 97.3496 67.7916 96.9959 67.9833C96.6465 68.1708 96.3695 68.4329 96.165 68.7696C95.9604 69.1019 95.8581 69.4812 95.8581 69.9073V75.9031H93.9469Z" fill="#272D37"/>
<path d="M16.1824 91.9031H15.0744L18.2789 83.1758H19.3699L22.5744 91.9031H21.4664L18.8585 84.5565H18.7903L16.1824 91.9031ZM16.5914 88.494H21.0574V89.4315H16.5914V88.494ZM26.269 92.0394C25.7235 92.0394 25.242 91.9017 24.8244 91.6261C24.4068 91.3477 24.0801 90.9556 23.8443 90.45C23.6085 89.9414 23.4906 89.3406 23.4906 88.6474C23.4906 87.9599 23.6085 87.3633 23.8443 86.8576C24.0801 86.3519 24.4082 85.9613 24.8287 85.6857C25.2491 85.4102 25.7349 85.2724 26.286 85.2724C26.7122 85.2724 27.0488 85.3434 27.296 85.4855C27.546 85.6247 27.7363 85.7838 27.867 85.9627C28.0005 86.1389 28.1042 86.2838 28.1781 86.3974H28.2633V83.1758H29.269V91.9031H28.2974V90.8974H28.1781C28.1042 91.0167 27.9991 91.1673 27.8627 91.3491C27.7264 91.5281 27.5318 91.6886 27.2789 91.8306C27.0261 91.9698 26.6895 92.0394 26.269 92.0394ZM26.4054 91.136C26.8088 91.136 27.1497 91.0309 27.4281 90.8207C27.7065 90.6076 27.9181 90.3136 28.063 89.9386C28.2079 89.5607 28.2804 89.1247 28.2804 88.6303C28.2804 88.1417 28.2093 87.7142 28.0673 87.3477C27.9252 86.9784 27.715 86.6914 27.4366 86.4869C27.1582 86.2795 26.8145 86.1758 26.4054 86.1758C25.9792 86.1758 25.6241 86.2852 25.34 86.5039C25.0588 86.7198 24.8471 87.0139 24.7051 87.386C24.5659 87.7553 24.4963 88.1701 24.4963 88.6303C24.4963 89.0963 24.5673 89.5196 24.7093 89.9002C24.8542 90.2781 25.0673 90.5792 25.3485 90.8036C25.6326 91.0252 25.9849 91.136 26.4054 91.136ZM31.2505 91.9031V85.3576H32.2221V86.3803H32.3074C32.4437 86.0309 32.6639 85.7596 32.9679 85.5664C33.2718 85.3704 33.6369 85.2724 34.063 85.2724C34.4949 85.2724 34.8542 85.3704 35.1412 85.5664C35.4309 85.7596 35.6568 86.0309 35.8187 86.3803H35.8869C36.0545 86.0423 36.3059 85.7738 36.6412 85.575C36.9764 85.3732 37.3784 85.2724 37.8471 85.2724C38.4324 85.2724 38.911 85.4556 39.2832 85.8221C39.6554 86.1857 39.8414 86.7525 39.8414 87.5224V91.9031H38.8358V87.5224C38.8358 87.0394 38.7037 86.6943 38.4395 86.4869C38.1752 86.2795 37.8642 86.1758 37.5062 86.1758C37.046 86.1758 36.6895 86.315 36.4366 86.5934C36.1838 86.869 36.0574 87.2184 36.0574 87.6417V91.9031H35.0346V87.4201C35.0346 87.048 34.9139 86.7482 34.6724 86.521C34.4309 86.2909 34.1199 86.1758 33.7392 86.1758C33.4778 86.1758 33.2335 86.2454 33.0062 86.3846C32.7818 86.5238 32.6 86.717 32.4608 86.9642C32.3244 87.2085 32.2562 87.4911 32.2562 87.8122V91.9031H31.2505ZM41.6802 91.9031V85.3576H42.6859V91.9031H41.6802ZM42.1916 84.2667C41.9956 84.2667 41.8265 84.2 41.6845 84.0664C41.5453 83.9329 41.4757 83.7724 41.4757 83.5849C41.4757 83.3974 41.5453 83.2369 41.6845 83.1034C41.8265 82.9698 41.9956 82.9031 42.1916 82.9031C42.3876 82.9031 42.5552 82.9698 42.6944 83.1034C42.8365 83.2369 42.9075 83.3974 42.9075 83.5849C42.9075 83.7724 42.8365 83.9329 42.6944 84.0664C42.5552 84.2 42.3876 84.2667 42.1916 84.2667ZM45.5336 87.9656V91.9031H44.5279V85.3576H45.4995V86.3803H45.5847C45.7381 86.048 45.9711 85.7809 46.2836 85.5792C46.5961 85.3747 46.9995 85.2724 47.4938 85.2724C47.937 85.2724 48.3248 85.3633 48.6571 85.5451C48.9895 85.7241 49.248 85.9968 49.4327 86.3633C49.6174 86.7269 49.7097 87.1872 49.7097 87.744V91.9031H48.704V87.8122C48.704 87.298 48.5705 86.8974 48.3034 86.6105C48.0364 86.3207 47.6699 86.1758 47.204 86.1758C46.883 86.1758 46.5961 86.2454 46.3432 86.3846C46.0932 86.5238 45.8958 86.7269 45.7509 86.994C45.606 87.261 45.5336 87.5849 45.5336 87.9656ZM55.0588 91.9031V83.1758H58.0076C58.6923 83.1758 59.252 83.2994 59.6866 83.5465C60.1241 83.7909 60.448 84.1218 60.6582 84.5394C60.8684 84.9571 60.9735 85.423 60.9735 85.9372C60.9735 86.4514 60.8684 86.9187 60.6582 87.3392C60.4508 87.7596 60.1298 88.0948 59.6951 88.3448C59.2605 88.592 58.7037 88.7156 58.0247 88.7156H55.911V87.7781H57.9906C58.4593 87.7781 58.8358 87.6971 59.1199 87.5352C59.4039 87.3732 59.6099 87.1545 59.7377 86.8789C59.8684 86.6005 59.9338 86.2866 59.9338 85.9372C59.9338 85.5877 59.8684 85.2752 59.7377 84.9997C59.6099 84.7241 59.4025 84.5082 59.1156 84.3519C58.8287 84.1928 58.448 84.1133 57.9735 84.1133H56.1156V91.9031H55.0588ZM64.4657 92.0565C64.051 92.0565 63.6745 91.9784 63.3365 91.8221C62.9984 91.663 62.7299 91.4343 62.5311 91.136C62.3322 90.8349 62.2328 90.4713 62.2328 90.0451C62.2328 89.6701 62.3066 89.3661 62.4544 89.1332C62.6021 88.8974 62.7995 88.7127 63.0467 88.5792C63.2939 88.4457 63.5666 88.3463 63.8649 88.2809C64.166 88.2127 64.4686 88.1588 64.7725 88.119C65.1703 88.0678 65.4927 88.0295 65.7399 88.0039C65.9899 87.9755 66.1717 87.9286 66.2853 87.8633C66.4018 87.798 66.46 87.6843 66.46 87.5224V87.4883C66.46 87.0678 66.345 86.7411 66.1149 86.5082C65.8876 86.2752 65.5424 86.1588 65.0794 86.1588C64.5993 86.1588 64.2228 86.2639 63.9501 86.4741C63.6774 86.6843 63.4856 86.9088 63.3748 87.1474L62.4203 86.8065C62.5907 86.4088 62.818 86.0991 63.1021 85.8775C63.389 85.6531 63.7015 85.4968 64.0396 85.4088C64.3805 85.3178 64.7157 85.2724 65.0453 85.2724C65.2555 85.2724 65.497 85.298 65.7697 85.3491C66.0453 85.3974 66.3109 85.4982 66.5666 85.6517C66.8251 85.8051 67.0396 86.0366 67.21 86.3463C67.3805 86.6559 67.4657 87.0707 67.4657 87.5906V91.9031H66.46V91.0167H66.4089C66.3407 91.1588 66.2271 91.3107 66.068 91.4727C65.9089 91.6346 65.6973 91.7724 65.4331 91.886C65.1689 91.9997 64.8464 92.0565 64.4657 92.0565ZM64.6191 91.1531C65.0169 91.1531 65.3521 91.075 65.6248 90.9187C65.9004 90.7625 66.1078 90.5607 66.247 90.3136C66.389 90.0664 66.46 89.8065 66.46 89.5338V88.6133C66.4174 88.6644 66.3237 88.7113 66.1788 88.7539C66.0368 88.7937 65.872 88.8292 65.6845 88.8605C65.4998 88.8889 65.3194 88.9144 65.1433 88.9372C64.97 88.9571 64.8294 88.9741 64.7214 88.9883C64.46 89.0224 64.2157 89.0778 63.9885 89.1545C63.764 89.2284 63.5822 89.3406 63.443 89.4911C63.3066 89.6389 63.2385 89.8406 63.2385 90.0963C63.2385 90.4457 63.3677 90.7099 63.6262 90.8889C63.8876 91.065 64.2186 91.1531 64.6191 91.1531ZM70.307 87.9656V91.9031H69.3013V85.3576H70.2729V86.3803H70.3581C70.5115 86.048 70.7445 85.7809 71.057 85.5792C71.3695 85.3747 71.7729 85.2724 72.2672 85.2724C72.7104 85.2724 73.0982 85.3633 73.4306 85.5451C73.763 85.7241 74.0215 85.9968 74.2061 86.3633C74.3908 86.7269 74.4831 87.1872 74.4831 87.744V91.9031H73.4775V87.8122C73.4775 87.298 73.3439 86.8974 73.0769 86.6105C72.8098 86.3207 72.4434 86.1758 71.9775 86.1758C71.6564 86.1758 71.3695 86.2454 71.1167 86.3846C70.8667 86.5238 70.6692 86.7269 70.5243 86.994C70.3794 87.261 70.307 87.5849 70.307 87.9656ZM79.0652 92.0394C78.4345 92.0394 77.8904 91.9002 77.4331 91.6218C76.9785 91.3406 76.6277 90.9485 76.3805 90.4457C76.1362 89.94 76.014 89.3519 76.014 88.6815C76.014 88.011 76.1362 87.4201 76.3805 86.9088C76.6277 86.3946 76.9714 85.994 77.4118 85.7071C77.8549 85.4173 78.372 85.2724 78.9629 85.2724C79.3038 85.2724 79.6404 85.3292 79.9728 85.4428C80.3052 85.5565 80.6078 85.7411 80.8805 85.9968C81.1532 86.2497 81.3706 86.5849 81.5325 87.0025C81.6944 87.4201 81.7754 87.9343 81.7754 88.5451V88.9713H76.7299V88.1019H80.7527C80.7527 87.7326 80.6788 87.4031 80.5311 87.1133C80.3862 86.8235 80.1788 86.5948 79.9089 86.4272C79.6419 86.2596 79.3265 86.1758 78.9629 86.1758C78.5623 86.1758 78.2157 86.2752 77.9231 86.4741C77.6333 86.6701 77.4103 86.9258 77.2541 87.2411C77.0978 87.5565 77.0197 87.8946 77.0197 88.2553V88.8349C77.0197 89.3292 77.1049 89.7482 77.2754 90.092C77.4487 90.4329 77.6887 90.6928 77.9956 90.8718C78.3024 91.048 78.6589 91.136 79.0652 91.136C79.3294 91.136 79.568 91.0991 79.7811 91.0252C79.997 90.9485 80.1831 90.8349 80.3393 90.6843C80.4956 90.5309 80.6163 90.3406 80.7015 90.1133L81.6731 90.386C81.5708 90.7156 81.399 91.0053 81.1575 91.2553C80.916 91.5025 80.6177 91.6957 80.2626 91.8349C79.9075 91.9713 79.5083 92.0394 79.0652 92.0394ZM84.3109 83.1758V91.9031H83.3052V83.1758H84.3109Z" fill="#272D37"/>
</svg>
