<svg width="16" height="16" viewBox="0 0 16 16" fill="none" xmlns="http://www.w3.org/2000/svg">
<path d="M11.4286 1.5V2.5H15.4286C15.7442 2.5 16 2.72386 16 3C16 3.27614 15.7442 3.5 15.4286 3.5H14.8133L13.8387 14.1595C13.7436 15.1989 12.7519 16 11.5602 16H4.43976C3.24808 16 2.25636 15.1989 2.16133 14.1595L1.18675 3.5H0.571429C0.255837 3.5 0 3.27614 0 3C0 2.72386 0.255837 2.5 0.571429 2.5H4.57143V1.5C4.57143 0.671573 5.33894 0 6.28571 0H9.71429C10.6611 0 11.4286 0.671573 11.4286 1.5ZM5.71429 1.5V2.5H10.2857V1.5C10.2857 1.22386 10.0299 1 9.71429 1H6.28571C5.97012 1 5.71429 1.22386 5.71429 1.5ZM3.99999 5.0285L4.57141 13.5285C4.58995 13.8042 4.86037 14.0145 5.17541 13.9983C5.49046 13.9821 5.73083 13.7454 5.7123 13.4698L5.14087 4.96978C5.12234 4.69411 4.85192 4.48379 4.53687 4.5C4.22183 4.51622 3.98145 4.75283 3.99999 5.0285ZM11.4631 4.50086C11.1481 4.48465 10.8777 4.69497 10.8591 4.97064L10.2877 13.4706C10.2692 13.7463 10.5095 13.9829 10.8246 13.9991C11.1396 14.0154 11.41 13.805 11.4286 13.5294L12 5.02936C12.0185 4.75369 11.7782 4.51708 11.4631 4.50086ZM8 4.5C7.68441 4.5 7.42858 4.72386 7.42858 5V13.5C7.42858 13.7761 7.68441 14 8 14C8.3156 14 8.57143 13.7761 8.57143 13.5V5C8.57143 4.72386 8.3156 4.5 8 4.5Z" fill="#A0AFC4" style="fill:#A0AFC4;fill:color(display-p3 0.6275 0.6863 0.7686);fill-opacity:1;"/>
</svg>
