<svg width="28" height="28" viewBox="0 0 28 28" fill="none" xmlns="http://www.w3.org/2000/svg">
<rect width="28" height="28" rx="4" fill="#FFB1B1" fill-opacity="0.25" style="fill:#FFB1B1;fill:color(display-p3 1.0000 0.6958 0.6958);fill-opacity:0.25;"/>
<path d="M17 7.5V8.5H20.5C20.7761 8.5 21 8.72386 21 9C21 9.27614 20.7761 9.5 20.5 9.5H19.9616L19.1088 20.1595C19.0257 21.1989 18.1579 22 17.1152 22H10.8848C9.84207 22 8.97431 21.1989 8.89116 20.1595L8.0384 9.5H7.5C7.22386 9.5 7 9.27614 7 9C7 8.72386 7.22386 8.5 7.5 8.5H11V7.5C11 6.67157 11.6716 6 12.5 6H15.5C16.3284 6 17 6.67157 17 7.5ZM12 7.5V8.5H16V7.5C16 7.22386 15.7761 7 15.5 7H12.5C12.2239 7 12 7.22386 12 7.5ZM10.5 11.0285L11 19.5285C11.0162 19.8042 11.2528 20.0145 11.5285 19.9983C11.8042 19.9821 12.0145 19.7454 11.9983 19.4698L11.4983 10.9698C11.482 10.6941 11.2454 10.4838 10.9698 10.5C10.6941 10.5162 10.4838 10.7528 10.5 11.0285ZM17.0302 10.5009C16.7546 10.4846 16.5179 10.695 16.5017 10.9706L16.0017 19.4706C15.9855 19.7463 16.1958 19.9829 16.4715 19.9991C16.7472 20.0154 16.9838 19.805 17 19.5294L17.5 11.0294C17.5162 10.7537 17.3059 10.5171 17.0302 10.5009ZM14 10.5C13.7239 10.5 13.5 10.7239 13.5 11V19.5C13.5 19.7761 13.7239 20 14 20C14.2761 20 14.5 19.7761 14.5 19.5V11C14.5 10.7239 14.2761 10.5 14 10.5Z" fill="#E23E3E" style="fill:#E23E3E;fill:color(display-p3 0.8863 0.2431 0.2431);fill-opacity:1;"/>
</svg>
