<svg width="16" height="16" viewBox="0 0 16 16" fill="none" xmlns="http://www.w3.org/2000/svg">
<path d="M12.6468 0.524754L11.2825 1.88909L11.0917 2.07986L11.1464 2.34404L11.5104 4.10139L11.577 4.42298L11.8986 4.48959L13.656 4.85357L13.9201 4.90829L14.1109 4.71751L15.4752 3.35318C15.3037 4.56665 14.2608 5.5 13 5.5C12.7741 5.5 12.556 5.47017 12.3489 5.41451L12.0722 5.34011L11.8681 5.5413L9.18824 8.18319L8.82962 8.53672L9.1857 8.89281L10.1464 9.85355L10.365 10.0721L10.6581 9.97434L11.5718 9.66978C11.7515 9.60989 11.9495 9.65665 12.0835 9.79057L15.3536 13.0607C15.4513 13.1584 15.5 13.2855 15.5 13.4142C15.5 13.5429 15.4513 13.67 15.3536 13.7678L14.8476 14.2737C14.9851 13.9161 14.9097 13.4955 14.6213 13.2071L11.3536 10.6464C11.3166 9.90237 10.6834 9.90237 10.2929 10.2929L10.6464 10.6464L10.2929 10.2929C9.90237 10.6834 9.90237 11.3166 10.2929 11.7071L13.5607 14.2678C13.588 14.8172 13.934 14.9672 14.2737 14.8476L13.7678 15.3536C13.67 15.4513 13.5429 15.5 13.4142 15.5C13.2855 15.5 13.1584 15.4513 13.0607 15.3536L9.79057 12.0835C9.65665 11.9495 9.60989 11.7515 9.66978 11.5718L9.97434 10.6581L10.0721 10.365L9.85355 10.1464L8.88567 9.17857L8.53463 8.82753L8.1811 9.17605L5.52657 11.793L5.31322 12.0033L5.39806 12.2906C5.45286 12.4762 5.48676 12.6711 5.49684 12.8729L5.44474 12.7715L5.25209 12.3965L5.23145 11.9755L5.21887 11.7189L5.00296 11.5797L4.64865 11.3513L4.42025 10.997L4.28107 10.7811L4.02449 10.7685L3.60345 10.7479L3.2285 10.5552L3.12712 10.5032C3.32889 10.5132 3.52381 10.5471 3.7094 10.6019L3.99673 10.6868L4.20705 10.4734L6.82396 7.81891L7.17248 7.46538L6.82144 7.11434L4.14645 4.43934C3.86514 4.15803 3.48361 4 3.08579 4H3.01462C2.85314 4 2.70161 3.92202 2.60775 3.79062L0.653058 1.05405L1.05405 0.653058L3.79062 2.60775C3.92202 2.70161 4 2.85314 4 3.01462V3.08579C4 3.48361 4.15803 3.86514 4.43934 4.14645L7.1072 6.81431L7.46329 7.17039L7.81682 6.81178L10.4587 4.13192L10.6599 3.92783L10.5855 3.65108C10.5298 3.44404 10.5 3.22589 10.5 3C10.5 1.73917 11.4334 0.696343 12.6468 0.524754ZM1.86057 10.7742C2.16676 10.6171 2.50959 10.5214 2.87285 10.5032L2.7715 10.5552L2.39655 10.7479L1.97551 10.7685L1.86057 10.7742ZM0.900774 11.6418C1.09276 11.3457 1.34569 11.0927 1.6418 10.9008L1.57975 10.997L1.35135 11.3513L0.997043 11.5797L0.900774 11.6418ZM0.503176 12.8729C0.521372 12.5096 0.617113 12.1667 0.774184 11.8605L0.768548 11.9755L0.747906 12.3965L0.555264 12.7715L0.503176 12.8729ZM0.774186 14.1395C0.617109 13.8333 0.521366 13.4904 0.503175 13.1271L0.555265 13.2285L0.747906 13.6034L0.768548 14.0245L0.774186 14.1395ZM1.64184 15.0993C1.34569 14.9073 1.09273 14.6543 0.900736 14.3582L0.997044 14.4202L1.35135 14.6486L1.57975 15.0029L1.64184 15.0993ZM2.87293 15.4968C2.50961 15.4786 2.16672 15.3829 1.86049 15.2258L1.97551 15.2314L2.39655 15.2521L2.7715 15.4447L2.87293 15.4968ZM4.13951 15.2258C3.83328 15.3829 3.49039 15.4786 3.12707 15.4968L3.2285 15.4447L3.60345 15.2521L4.02449 15.2314L4.13951 15.2258ZM5.09926 14.3582C4.90727 14.6543 4.65431 14.9073 4.35816 15.0993L4.42025 15.0029L4.64865 14.6486L5.00296 14.4202L5.09926 14.3582ZM5.49683 13.1271C5.47863 13.4904 5.38289 13.8333 5.22581 14.1395L5.23145 14.0245L5.25209 13.6034L5.44474 13.2285L5.49683 13.1271Z" fill="#A0AFC4" stroke="#A0AFC4" style="fill:#A0AFC4;fill:color(display-p3 0.6275 0.6863 0.7686);fill-opacity:1;stroke:#A0AFC4;stroke:color(display-p3 0.6275 0.6863 0.7686);stroke-opacity:1;"/>
</svg>
