<svg width="36" height="36" viewBox="0 0 36 36" fill="none" xmlns="http://www.w3.org/2000/svg">
<rect width="36" height="36" rx="8" fill="#249BD7"/>
<path d="M29.25 18C29.25 24.2132 24.2132 29.25 18 29.25C11.7868 29.25 6.75 24.2132 6.75 18C6.75 11.7868 11.7868 6.75 18 6.75C24.2132 6.75 29.25 11.7868 29.25 18ZM18.4032 15.0553C17.309 15.5104 15.1221 16.4524 11.8425 17.8813C11.3099 18.0931 11.0309 18.3002 11.0055 18.5028C10.9626 18.8452 11.3914 18.98 11.9752 19.1636C12.0546 19.1886 12.1369 19.2144 12.2212 19.2419C12.7957 19.4286 13.5683 19.647 13.97 19.6557C14.3344 19.6636 14.7411 19.5134 15.19 19.205C18.2543 17.1366 19.836 16.0911 19.9353 16.0686C20.0054 16.0527 20.1025 16.0327 20.1683 16.0912C20.2341 16.1496 20.2276 16.2603 20.2206 16.2901C20.1781 16.4711 18.4952 18.0358 17.6242 18.8455C17.3527 19.0979 17.1601 19.2769 17.1208 19.3178C17.0326 19.4094 16.9427 19.4961 16.8563 19.5794C16.3226 20.0938 15.9225 20.4796 16.8784 21.1095C17.3378 21.4123 17.7055 21.6626 18.0722 21.9124C18.4727 22.1851 18.8722 22.4572 19.3891 22.796C19.5208 22.8823 19.6465 22.9719 19.769 23.0593C20.2351 23.3916 20.6539 23.6901 21.1712 23.6425C21.4718 23.6148 21.7824 23.3322 21.9401 22.4891C22.3128 20.4967 23.0453 16.1799 23.2146 14.401C23.2295 14.2451 23.2108 14.0457 23.1958 13.9581C23.1808 13.8705 23.1495 13.7458 23.0357 13.6534C22.9009 13.5441 22.6928 13.521 22.5998 13.5226C22.1766 13.5301 21.5274 13.7558 18.4032 15.0553Z" fill="#F9F9F9"/>
</svg>
