<svg width="25" height="20" viewBox="0 0 25 20" fill="none" xmlns="http://www.w3.org/2000/svg">
<path fill-rule="evenodd" clip-rule="evenodd" d="M16.6667 2.5C16.6667 2.03976 16.2936 1.66667 15.8333 1.66667H2.5C2.03976 1.66667 1.66667 2.03976 1.66667 2.5V17.5C1.66667 17.9602 2.03976 18.3333 2.5 18.3333H15.8333C16.2936 18.3333 16.6667 17.9602 16.6667 17.5V14.1667C16.6667 13.7064 17.0398 13.3333 17.5 13.3333C17.9602 13.3333 18.3333 13.7064 18.3333 14.1667V17.5C18.3333 18.8807 17.214 20 15.8333 20H2.5C1.11929 20 0 18.8807 0 17.5V2.5C0 1.11929 1.11929 0 2.5 0H15.8333C17.214 0 18.3333 1.11929 18.3333 2.5V5.83333C18.3333 6.29357 17.9602 6.66667 17.5 6.66667C17.0398 6.66667 16.6667 6.29357 16.6667 5.83333V2.5Z" fill="#E23E3E"/>
<path fill-rule="evenodd" clip-rule="evenodd" d="M6.91074 10.5893C6.58531 10.2638 6.58531 9.73618 6.91074 9.41074L11.9107 4.41074C12.2362 4.08531 12.7638 4.08531 13.0893 4.41074C13.4147 4.73618 13.4147 5.26382 13.0893 5.58926L9.51184 9.16667H24.1667C24.6269 9.16667 25 9.53976 25 10C25 10.4602 24.6269 10.8333 24.1667 10.8333H9.51184L13.0893 14.4107C13.4147 14.7362 13.4147 15.2638 13.0893 15.5893C12.7638 15.9147 12.2362 15.9147 11.9107 15.5893L6.91074 10.5893Z" fill="#E23E3E"/>
</svg>
