<svg width="21" height="21" viewBox="0 0 21 21" fill="none" xmlns="http://www.w3.org/2000/svg">
<path d="M5.58841 13.5764C4.55055 12.1633 3.9375 10.4189 3.9375 8.53125C3.9375 3.81957 7.75707 0 12.4688 0C17.1804 0 21 3.81957 21 8.53125C21 13.2429 17.1804 17.0625 12.4688 17.0625C10.5806 17.0625 8.83573 16.4491 7.42251 15.4107L7.42365 15.4116C7.38494 15.4641 7.34183 15.5143 7.29431 15.5618L2.24058 20.6156C1.72801 21.1281 0.896984 21.1281 0.38442 20.6156C-0.128141 20.103 -0.128141 19.272 0.38442 18.7594L5.43815 13.7057C5.48567 13.6582 5.53593 13.6151 5.58841 13.5764ZM5.25 8.53125C5.25 12.5181 8.48195 15.75 12.4688 15.75C16.4556 15.75 19.6875 12.5181 19.6875 8.53125C19.6875 4.54444 16.4556 1.3125 12.4688 1.3125C8.48195 1.3125 5.25 4.54444 5.25 8.53125Z" fill="#A0AFC4"/>
</svg>
