<svg width="22" height="23" viewBox="0 0 22 23" fill="none" xmlns="http://www.w3.org/2000/svg">
<path fill-rule="evenodd" clip-rule="evenodd" d="M2.59156 1.20273C3.61197 0.182322 5.29581 0.287154 6.18177 1.42625L8.64811 4.59726C9.10071 5.17918 9.26065 5.93687 9.08185 6.65206L8.32936 9.66203C8.24992 9.9798 8.34303 10.316 8.57464 10.5476L11.9524 13.9254C12.1841 14.157 12.5202 14.2501 12.838 14.1706L15.8479 13.4182C16.5631 13.2394 17.3208 13.3993 17.9027 13.8519L21.0738 16.3182C22.2128 17.2042 22.3177 18.888 21.2973 19.9084L19.8756 21.3301C18.8585 22.3472 17.3372 22.7938 15.9194 22.2954C12.3991 21.0577 9.09478 19.0314 6.28167 16.2183C3.46857 13.4052 1.4423 10.1009 0.204652 6.58059C-0.293813 5.1628 0.152804 3.64149 1.16992 2.62437L2.59156 1.20273Z" fill="#276EFF"/>
</svg>
