<svg width="17" height="17" viewBox="0 0 17 17" fill="none" xmlns="http://www.w3.org/2000/svg">
<path d="M11.8649 0.000113593C11.8348 0.0010991 11.8048 0.0042568 11.7751 0.00956206H0.625964C0.543563 0.00956147 0.461972 0.0258303 0.385873 0.0574353C0.309774 0.0890403 0.240663 0.13536 0.182507 0.193736C0.12435 0.252112 0.0782914 0.321396 0.0469732 0.397614C0.0156551 0.473832 -0.000306491 0.555483 4.45719e-06 0.637884V13.7594C4.45719e-06 15.1318 1.12673 16.2562 2.50148 16.2562H13.7522C13.8278 16.2619 13.9039 16.2539 13.9766 16.2325C15.2451 16.1144 16.2537 15.0562 16.2537 13.7594V8.75882C16.2534 8.67662 16.2369 8.59529 16.2051 8.51946C16.1734 8.44363 16.127 8.3748 16.0687 8.31689C16.0103 8.25899 15.9412 8.21314 15.8651 8.18197C15.789 8.1508 15.7076 8.13492 15.6254 8.13523H12.5027V0.637884C12.5043 0.55369 12.4889 0.470037 12.4574 0.391935C12.4259 0.313832 12.379 0.242884 12.3194 0.183339C12.2599 0.123794 12.1889 0.0768759 12.1108 0.0453929C12.0327 0.0139098 11.9491 -0.00149054 11.8649 0.000113593ZM1.24956 1.26148H11.2531V8.64072C11.2404 8.7126 11.2404 8.78615 11.2531 8.85803V13.7571C11.2531 14.2129 11.3854 14.6381 11.6027 15.0066H2.50148C2.33637 15.0092 2.17243 14.9785 2.01939 14.9165C1.86635 14.8545 1.72732 14.7624 1.61056 14.6456C1.4938 14.5288 1.40167 14.3898 1.33966 14.2368C1.27765 14.0837 1.24701 13.9198 1.24956 13.7547V1.26148ZM3.06366 3.76296C2.90195 3.77678 2.75193 3.85287 2.64525 3.97518C2.53857 4.0975 2.48356 4.25646 2.49183 4.41855C2.50011 4.58064 2.57101 4.73318 2.68959 4.84399C2.80818 4.9548 2.96516 5.01523 3.12744 5.01252H9.37286C9.53888 5.01252 9.69809 4.94657 9.81548 4.82918C9.93287 4.71179 9.99882 4.55257 9.99882 4.38656C9.99882 4.22054 9.93287 4.06133 9.81548 3.94394C9.69809 3.82654 9.53888 3.7606 9.37286 3.7606H3.12744C3.1062 3.75951 3.08491 3.76187 3.06366 3.76296ZM3.06366 6.26207C2.89765 6.27053 2.74179 6.34459 2.63038 6.46796C2.51897 6.59133 2.46114 6.75391 2.46959 6.91992C2.47805 7.08593 2.55211 7.24179 2.67548 7.3532C2.79885 7.46461 2.96143 7.52245 3.12744 7.51399H9.37286C9.53888 7.51399 9.69809 7.44804 9.81548 7.33065C9.93287 7.21326 9.99882 7.05405 9.99882 6.88803C9.99882 6.72202 9.93287 6.5628 9.81548 6.44541C9.69809 6.32802 9.53888 6.26207 9.37286 6.26207H3.12744C3.1062 6.26099 3.08491 6.26099 3.06366 6.26207ZM3.12744 8.75882C3.04216 8.75358 2.95671 8.76585 2.87635 8.79487C2.796 8.8239 2.72243 8.86907 2.66019 8.9276C2.59795 8.98613 2.54835 9.05678 2.51444 9.1352C2.48054 9.21363 2.46305 9.29816 2.46305 9.3836C2.46305 9.46904 2.48054 9.55358 2.51444 9.632C2.54835 9.71042 2.59795 9.78108 2.66019 9.83961C2.72243 9.89814 2.796 9.94331 2.87635 9.97233C2.95671 10.0014 3.04216 10.0136 3.12744 10.0084H9.37286C9.53888 10.0084 9.69809 9.94243 9.81548 9.82504C9.93287 9.70765 9.99882 9.54844 9.99882 9.38242C9.99882 9.21641 9.93287 9.05719 9.81548 8.9398C9.69809 8.82241 9.53888 8.75646 9.37286 8.75646L3.12744 8.75882ZM12.5027 9.38478H15.0041V13.7594C15.0041 14.4586 14.4609 15.0066 13.7593 15.009C13.7569 15.009 13.7546 15.009 13.7522 15.009C13.5871 15.0115 13.4232 14.9809 13.2701 14.9189C13.1171 14.8569 12.9781 14.7647 12.8613 14.648C12.7445 14.5312 12.6524 14.3922 12.5904 14.2391C12.5284 14.0861 12.4977 13.9222 12.5003 13.7571L12.5027 9.38478ZM3.06603 11.2579C3.06524 11.2579 3.06445 11.2579 3.06366 11.2579C2.89765 11.2664 2.74179 11.3405 2.63038 11.4638C2.51897 11.5872 2.46114 11.7498 2.46959 11.9158C2.47805 12.0818 2.55211 12.2377 2.67548 12.3491C2.79885 12.4605 2.96143 12.5183 3.12744 12.5099H9.37286C9.53888 12.5099 9.69809 12.4439 9.81548 12.3265C9.93287 12.2091 9.99882 12.0499 9.99882 11.8839C9.99882 11.7179 9.93287 11.5587 9.81548 11.4413C9.69809 11.3239 9.53888 11.2579 9.37286 11.2579H3.12744C3.10698 11.2569 3.08649 11.2569 3.06603 11.2579Z" fill="#A0AFC4"/>
</svg>
