<svg width="18" height="18" viewBox="0 0 18 18" fill="none" xmlns="http://www.w3.org/2000/svg">
<path d="M9 4.5C9 4.22386 8.77614 4 8.5 4C8.22386 4 8 4.22386 8 4.5V10C8 10.1794 8.09614 10.3451 8.25193 10.4341L11.7519 12.4341C11.9917 12.5711 12.2971 12.4878 12.4341 12.2481C12.5711 12.0083 12.4878 11.7029 12.2481 11.5659L9 9.70984V4.5Z" fill="#A0AFC4" style="fill:#A0AFC4;fill:color(display-p3 0.6275 0.6863 0.7686);fill-opacity:1;"/>
<path d="M9 17C13.4183 17 17 13.4183 17 9C17 4.58172 13.4183 1 9 1C4.58172 1 1 4.58172 1 9C1 13.4183 4.58172 17 9 17ZM16 9C16 12.866 12.866 16 9 16C5.13401 16 2 12.866 2 9C2 5.13401 5.13401 2 9 2C12.866 2 16 5.13401 16 9Z" fill="#A0AFC4" style="fill:#A0AFC4;fill:color(display-p3 0.6275 0.6863 0.7686);fill-opacity:1;"/>
<path d="M9 4.5C9 4.22386 8.77614 4 8.5 4C8.22386 4 8 4.22386 8 4.5V10C8 10.1794 8.09614 10.3451 8.25193 10.4341L11.7519 12.4341C11.9917 12.5711 12.2971 12.4878 12.4341 12.2481C12.5711 12.0083 12.4878 11.7029 12.2481 11.5659L9 9.70984V4.5Z" stroke="#A0AFC4" style="stroke:#A0AFC4;stroke:color(display-p3 0.6275 0.6863 0.7686);stroke-opacity:1;" stroke-width="0.3" stroke-linecap="round" stroke-linejoin="round"/>
<path d="M9 17C13.4183 17 17 13.4183 17 9C17 4.58172 13.4183 1 9 1C4.58172 1 1 4.58172 1 9C1 13.4183 4.58172 17 9 17ZM16 9C16 12.866 12.866 16 9 16C5.13401 16 2 12.866 2 9C2 5.13401 5.13401 2 9 2C12.866 2 16 5.13401 16 9Z" stroke="#A0AFC4" style="stroke:#A0AFC4;stroke:color(display-p3 0.6275 0.6863 0.7686);stroke-opacity:1;" stroke-width="0.3" stroke-linecap="round" stroke-linejoin="round"/>
</svg>
