<svg width="16" height="17" viewBox="0 0 16 17" fill="none" xmlns="http://www.w3.org/2000/svg">
<path d="M1.33502 16C1.33115 15.9998 1.32316 15.9995 1.31167 15.9987C1.2885 15.997 1.25214 15.9935 1.2072 15.986C1.11495 15.9706 0.999583 15.9408 0.890273 15.8861C0.782922 15.8324 0.69078 15.7598 0.624358 15.6601C0.560024 15.5636 0.5 15.4125 0.5 15.1667C0.5 14.6284 0.783605 13.4235 1.85355 12.3536C2.90885 11.2983 4.77211 10.3333 8 10.3333C11.2279 10.3333 13.0912 11.2983 14.1464 12.3536C15.2164 13.4235 15.5 14.6284 15.5 15.1667C15.5 15.4125 15.44 15.5636 15.3756 15.6601C15.3092 15.7598 15.2171 15.8324 15.1097 15.8861C15.0004 15.9408 14.8851 15.9706 14.7928 15.986C14.7479 15.9935 14.7115 15.997 14.6883 15.9987C14.6768 15.9995 14.6689 15.9998 14.665 16C14.6644 16 14.6638 16 14.6634 16M1.33502 16L1.33425 16L1.33657 16M1.33502 16L1.33506 16L1.33634 16L1.33757 16H1.33761C1.33755 16 1.3372 16 1.33657 16M1.33502 16C1.33565 16 1.33616 16 1.33657 16M1.33657 16H14.6634M14.6634 16C14.6628 16 14.6624 16 14.6624 16H14.6624L14.6637 16L14.6649 16L14.6657 16L14.6634 16ZM14.6666 15.662H15.1695L15.1666 15.1591C15.164 14.7035 14.9117 13.5902 13.9107 12.5893C12.9299 11.6084 11.1579 10.6667 7.99999 10.6667C4.84211 10.6667 3.07012 11.6084 2.08924 12.5893C1.08825 13.5902 0.835972 14.7035 0.833342 15.1591L0.830439 15.662H1.33333H14.6666ZM11.5 4.5C11.5 6.433 9.933 8 8 8C6.067 8 4.5 6.433 4.5 4.5C4.5 2.567 6.067 1 8 1C9.933 1 11.5 2.567 11.5 4.5ZM8 7.66667C9.7489 7.66667 11.1667 6.2489 11.1667 4.5C11.1667 2.7511 9.7489 1.33333 8 1.33333C6.2511 1.33333 4.83333 2.7511 4.83333 4.5C4.83333 6.2489 6.2511 7.66667 8 7.66667Z" fill="#A0AFC4" stroke="#A0AFC4" style="fill:#A0AFC4;fill:color(display-p3 0.6275 0.6863 0.7686);fill-opacity:1;stroke:#A0AFC4;stroke:color(display-p3 0.6275 0.6863 0.7686);stroke-opacity:1;"/>
</svg>
