<svg width="16" height="20" viewBox="0 0 16 20" fill="none" xmlns="http://www.w3.org/2000/svg">
<path d="M12.6667 0H2.53333C1.13421 0 0 1.11929 0 2.5V17.5C0 18.8807 1.13421 20 2.53333 20H12.6667C14.0658 20 15.2 18.8807 15.2 17.5V2.5C15.2 1.11929 14.0658 0 12.6667 0ZM3.8 5H11.4C11.7498 5 12.0333 5.27982 12.0333 5.625C12.0333 5.97018 11.7498 6.25 11.4 6.25H3.8C3.45022 6.25 3.16667 5.97018 3.16667 5.625C3.16667 5.27982 3.45022 5 3.8 5ZM3.16667 8.125C3.16667 7.77982 3.45022 7.5 3.8 7.5H11.4C11.7498 7.5 12.0333 7.77982 12.0333 8.125C12.0333 8.47018 11.7498 8.75 11.4 8.75H3.8C3.45022 8.75 3.16667 8.47018 3.16667 8.125ZM3.8 10H11.4C11.7498 10 12.0333 10.2798 12.0333 10.625C12.0333 10.9702 11.7498 11.25 11.4 11.25H3.8C3.45022 11.25 3.16667 10.9702 3.16667 10.625C3.16667 10.2798 3.45022 10 3.8 10ZM3.8 12.5H7.6C7.94978 12.5 8.23333 12.7798 8.23333 13.125C8.23333 13.4702 7.94978 13.75 7.6 13.75H3.8C3.45022 13.75 3.16667 13.4702 3.16667 13.125C3.16667 12.7798 3.45022 12.5 3.8 12.5Z" fill="#A0AFC4"/>
</svg>
