<svg width="17" height="20" viewBox="0 0 17 20" fill="none" xmlns="http://www.w3.org/2000/svg">
<path fill-rule="evenodd" clip-rule="evenodd" d="M4.83517 1.875C4.83517 0.839466 5.64696 0 6.64835 0H10.2747C11.2761 0 12.0879 0.839466 12.0879 1.875V3.125C12.0879 4.16053 11.2761 5 10.2747 5H6.64835C5.64696 5 4.83517 4.16053 4.83517 3.125V1.875ZM10.8791 1.875C10.8791 1.52982 10.6085 1.25 10.2747 1.25H6.64835C6.31455 1.25 6.04396 1.52982 6.04396 1.875V3.125C6.04396 3.47018 6.31455 3.75 6.64835 3.75H10.2747C10.6085 3.75 10.8791 3.47018 10.8791 3.125V1.875Z" fill="#A0AFC4"/>
<path d="M2.41758 1.875H3.62637V3.125C3.62637 4.85089 4.97936 6.25 6.64835 6.25H10.2747C11.9437 6.25 13.2967 4.85089 13.2967 3.125V1.875H14.5055C15.8407 1.875 16.9231 2.99429 16.9231 4.375V17.5C16.9231 18.8807 15.8407 20 14.5055 20H2.41758C1.08239 20 0 18.8807 0 17.5V4.375C0 2.99429 1.08239 1.875 2.41758 1.875Z" fill="#A0AFC4"/>
</svg>
