<svg width="15" height="20" viewBox="0 0 15 20" fill="none" xmlns="http://www.w3.org/2000/svg">
<path d="M0 2.5C0 1.83696 0.263392 1.20107 0.732233 0.732233C1.20107 0.263392 1.83696 0 2.5 0L12.5 0C13.163 0 13.7989 0.263392 14.2678 0.732233C14.7366 1.20107 15 1.83696 15 2.5V17.5C15 18.163 14.7366 18.7989 14.2678 19.2678C13.7989 19.7366 13.163 20 12.5 20H2.5C1.83696 20 1.20107 19.7366 0.732233 19.2678C0.263392 18.7989 0 18.163 0 17.5V2.5ZM12.5 1.25H2.5C2.16848 1.25 1.85054 1.3817 1.61612 1.61612C1.3817 1.85054 1.25 2.16848 1.25 2.5V17.5C1.25 17.8315 1.3817 18.1495 1.61612 18.3839C1.85054 18.6183 2.16848 18.75 2.5 18.75H12.5C12.8315 18.75 13.1495 18.6183 13.3839 18.3839C13.6183 18.1495 13.75 17.8315 13.75 17.5V2.5C13.75 2.16848 13.6183 1.85054 13.3839 1.61612C13.1495 1.3817 12.8315 1.25 12.5 1.25Z" fill="#A0AFC4"/>
</svg>
