<svg width="19" height="15" viewBox="0 0 19 15" fill="none" xmlns="http://www.w3.org/2000/svg">
<path d="M9.41667 7.26667C9.86131 6.88178 10.218 6.40574 10.4624 5.87085C10.7068 5.33597 10.8333 4.75476 10.8333 4.16667C10.8333 3.0616 10.3943 2.00179 9.61294 1.22039C8.83154 0.438987 7.77174 1.49093e-07 6.66667 1.49093e-07C5.5616 1.49093e-07 4.50179 0.438987 3.72039 1.22039C2.93899 2.00179 2.5 3.0616 2.5 4.16667C2.49999 4.75476 2.6265 5.33597 2.87094 5.87085C3.11537 6.40574 3.47202 6.88178 3.91667 7.26667C2.75012 7.7949 1.76039 8.64794 1.06582 9.72379C0.371246 10.7996 0.00122655 12.0528 0 13.3333C0 13.5543 0.0877973 13.7663 0.244078 13.9226C0.400358 14.0789 0.61232 14.1667 0.833333 14.1667C1.05435 14.1667 1.26631 14.0789 1.42259 13.9226C1.57887 13.7663 1.66667 13.5543 1.66667 13.3333C1.66667 12.0073 2.19345 10.7355 3.13113 9.7978C4.06881 8.86012 5.34058 8.33333 6.66667 8.33333C7.99275 8.33333 9.26452 8.86012 10.2022 9.7978C11.1399 10.7355 11.6667 12.0073 11.6667 13.3333C11.6667 13.5543 11.7545 13.7663 11.9107 13.9226C12.067 14.0789 12.279 14.1667 12.5 14.1667C12.721 14.1667 12.933 14.0789 13.0893 13.9226C13.2455 13.7663 13.3333 13.5543 13.3333 13.3333C13.3321 12.0528 12.9621 10.7996 12.2675 9.72379C11.5729 8.64794 10.5832 7.7949 9.41667 7.26667ZM6.66667 6.66667C6.17221 6.66667 5.68886 6.52004 5.27774 6.24534C4.86662 5.97064 4.54619 5.58019 4.35697 5.12337C4.16775 4.66656 4.11824 4.16389 4.2147 3.67894C4.31117 3.19399 4.54927 2.74853 4.8989 2.3989C5.24853 2.04927 5.69399 1.81117 6.17894 1.7147C6.66389 1.61824 7.16656 1.66775 7.62337 1.85697C8.08019 2.04619 8.47064 2.36662 8.74534 2.77774C9.02004 3.18886 9.16667 3.67221 9.16667 4.16667C9.16667 4.82971 8.90327 5.46559 8.43443 5.93443C7.96559 6.40327 7.32971 6.66667 6.66667 6.66667ZM14.7833 6.93333C15.3166 6.33278 15.665 5.59088 15.7865 4.79695C15.908 4.00302 15.7974 3.1909 15.4681 2.45833C15.1388 1.72577 14.6048 1.104 13.9304 0.667852C13.256 0.231708 12.4698 -0.000214667 11.6667 1.49093e-07C11.4457 1.49093e-07 11.2337 0.0877975 11.0774 0.244078C10.9211 0.400358 10.8333 0.61232 10.8333 0.833333C10.8333 1.05435 10.9211 1.26631 11.0774 1.42259C11.2337 1.57887 11.4457 1.66667 11.6667 1.66667C12.3297 1.66667 12.9656 1.93006 13.4344 2.3989C13.9033 2.86774 14.1667 3.50363 14.1667 4.16667C14.1655 4.60437 14.0494 5.03409 13.8301 5.41285C13.6107 5.79162 13.2957 6.10615 12.9167 6.325C12.7931 6.39627 12.6899 6.49805 12.617 6.62062C12.544 6.74318 12.5037 6.88242 12.5 7.025C12.4965 7.16647 12.5291 7.3065 12.5947 7.43188C12.6603 7.55727 12.7568 7.66388 12.875 7.74167L13.2 7.95833L13.3083 8.01667C14.3128 8.4931 15.1603 9.24666 15.7508 10.1886C16.3414 11.1305 16.6505 12.2216 16.6417 13.3333C16.6417 13.5543 16.7295 13.7663 16.8857 13.9226C17.042 14.0789 17.254 14.1667 17.475 14.1667C17.696 14.1667 17.908 14.0789 18.0643 13.9226C18.2205 13.7663 18.3083 13.5543 18.3083 13.3333C18.3151 12.0545 17.9949 10.7952 17.3779 9.67505C16.7609 8.55489 15.8678 7.61109 14.7833 6.93333Z" fill="#A0AFC4"/>
</svg>
