<svg width="18" height="18" viewBox="0 0 18 18" fill="none" xmlns="http://www.w3.org/2000/svg">
<path fill-rule="evenodd" clip-rule="evenodd" d="M9.63636 4.5C9.63636 4.22386 9.41251 4 9.13636 4H2.5C1.67157 4 1 4.67157 1 5.5V15.5C1 16.3284 1.67157 17 2.5 17H12.5C13.3284 17 14 16.3284 14 15.5V8.86364C14 8.58749 13.7761 8.36364 13.5 8.36364C13.2239 8.36364 13 8.58749 13 8.86364V15.5C13 15.7761 12.7761 16 12.5 16H2.5C2.22386 16 2 15.7761 2 15.5V5.5C2 5.22386 2.22386 5 2.5 5H9.13636C9.41251 5 9.63636 4.77614 9.63636 4.5Z" fill="#A0AFC4" style="fill:#A0AFC4;fill:color(display-p3 0.6275 0.6863 0.7686);fill-opacity:1;"/>
<path fill-rule="evenodd" clip-rule="evenodd" d="M17 1.5C17 1.22386 16.7761 1 16.5 1H11.5C11.2239 1 11 1.22386 11 1.5C11 1.77614 11.2239 2 11.5 2H15.2929L7.14645 10.1464C6.95118 10.3417 6.95118 10.6583 7.14645 10.8536C7.34171 11.0488 7.65829 11.0488 7.85355 10.8536L16 2.70711V6.5C16 6.77614 16.2239 7 16.5 7C16.7761 7 17 6.77614 17 6.5V1.5Z" fill="#A0AFC4" style="fill:#A0AFC4;fill:color(display-p3 0.6275 0.6863 0.7686);fill-opacity:1;"/>
<path d="M15.2929 2L15.5757 2.28284C15.6901 2.16844 15.7244 1.9964 15.6624 1.84693C15.6005 1.69746 15.4547 1.6 15.2929 1.6V2ZM7.14645 10.1464L6.8636 9.8636L6.8636 9.8636L7.14645 10.1464ZM7.14645 10.8536L6.8636 11.1364L6.8636 11.1364L7.14645 10.8536ZM7.85355 10.8536L8.1364 11.1364L8.1364 11.1364L7.85355 10.8536ZM16 2.70711H16.4C16.4 2.54532 16.3025 2.39947 16.1531 2.33756C16.0036 2.27564 15.8316 2.30986 15.7172 2.42426L16 2.70711ZM9.13636 4.4C9.19159 4.4 9.23636 4.44477 9.23636 4.5H10.0364C10.0364 4.00294 9.63342 3.6 9.13636 3.6V4.4ZM2.5 4.4H9.13636V3.6H2.5V4.4ZM1.4 5.5C1.4 4.89249 1.89249 4.4 2.5 4.4V3.6C1.45066 3.6 0.6 4.45066 0.6 5.5H1.4ZM1.4 15.5V5.5H0.6V15.5H1.4ZM2.5 16.6C1.89249 16.6 1.4 16.1075 1.4 15.5H0.6C0.6 16.5493 1.45066 17.4 2.5 17.4V16.6ZM12.5 16.6H2.5V17.4H12.5V16.6ZM13.6 15.5C13.6 16.1075 13.1075 16.6 12.5 16.6V17.4C13.5493 17.4 14.4 16.5493 14.4 15.5H13.6ZM13.6 8.86364V15.5H14.4V8.86364H13.6ZM13.5 8.76364C13.5552 8.76364 13.6 8.80841 13.6 8.86364H14.4C14.4 8.36658 13.9971 7.96364 13.5 7.96364V8.76364ZM13.4 8.86364C13.4 8.80841 13.4448 8.76364 13.5 8.76364V7.96364C13.0029 7.96364 12.6 8.36658 12.6 8.86364H13.4ZM13.4 15.5V8.86364H12.6V15.5H13.4ZM12.5 16.4C12.9971 16.4 13.4 15.9971 13.4 15.5H12.6C12.6 15.5552 12.5552 15.6 12.5 15.6V16.4ZM2.5 16.4H12.5V15.6H2.5V16.4ZM1.6 15.5C1.6 15.9971 2.00294 16.4 2.5 16.4V15.6C2.44477 15.6 2.4 15.5552 2.4 15.5H1.6ZM1.6 5.5V15.5H2.4V5.5H1.6ZM2.5 4.6C2.00294 4.6 1.6 5.00294 1.6 5.5H2.4C2.4 5.44477 2.44477 5.4 2.5 5.4V4.6ZM9.13636 4.6H2.5V5.4H9.13636V4.6ZM9.23636 4.5C9.23636 4.55523 9.19159 4.6 9.13636 4.6V5.4C9.63342 5.4 10.0364 4.99706 10.0364 4.5H9.23636ZM16.5 1.4C16.5552 1.4 16.6 1.44477 16.6 1.5H17.4C17.4 1.00294 16.9971 0.6 16.5 0.6V1.4ZM11.5 1.4H16.5V0.6H11.5V1.4ZM11.4 1.5C11.4 1.44477 11.4448 1.4 11.5 1.4V0.6C11.0029 0.6 10.6 1.00294 10.6 1.5H11.4ZM11.5 1.6C11.4448 1.6 11.4 1.55523 11.4 1.5H10.6C10.6 1.99706 11.0029 2.4 11.5 2.4V1.6ZM15.2929 1.6H11.5V2.4H15.2929V1.6ZM7.42929 10.4293L15.5757 2.28284L15.0101 1.71716L6.8636 9.8636L7.42929 10.4293ZM7.42929 10.5707C7.39024 10.5317 7.39024 10.4683 7.42929 10.4293L6.8636 9.8636C6.51213 10.2151 6.51213 10.7849 6.8636 11.1364L7.42929 10.5707ZM7.57071 10.5707C7.53166 10.6098 7.46834 10.6098 7.42929 10.5707L6.8636 11.1364C7.21508 11.4879 7.78492 11.4879 8.1364 11.1364L7.57071 10.5707ZM15.7172 2.42426L7.57071 10.5707L8.1364 11.1364L16.2828 2.98995L15.7172 2.42426ZM16.4 6.5V2.70711H15.6V6.5H16.4ZM16.5 6.6C16.4448 6.6 16.4 6.55523 16.4 6.5H15.6C15.6 6.99706 16.0029 7.4 16.5 7.4V6.6ZM16.6 6.5C16.6 6.55523 16.5552 6.6 16.5 6.6V7.4C16.9971 7.4 17.4 6.99706 17.4 6.5H16.6ZM16.6 1.5V6.5H17.4V1.5H16.6Z" fill="#A0AFC4" style="fill:#A0AFC4;fill:color(display-p3 0.6275 0.6863 0.7686);fill-opacity:1;"/>
</svg>
